<?xml version="1.0" encoding="UTF-8"?>
<svg width="26px" height="20px" viewBox="0 0 26 20" version="1.1" xmlns="http://www.w3.org/2000/svg" xmlns:xlink="http://www.w3.org/1999/xlink">
    <!-- Generator: sketchtool 49.1 (51147) - http://www.bohemiancoding.com/sketch -->
    <title>7C987227-0FE0-4B48-AAEA-B0A6D57C89D4@2x</title>
    <desc>Created with sketchtool.</desc>
    <defs></defs>
    <g id="Page-1" stroke="none" stroke-width="1" fill="none" fill-rule="evenodd">
        <g id="NP" transform="translate(-1009.000000, -32.000000)" fill="#54D0FF">
            <g id="mail_white" transform="translate(1009.000000, 32.000000)">
                <path d="M2.46918095,0.969393939 L12.3739429,9.15121212 L12.4048945,9.18198788 C12.6489417,9.39387273 12.9834545,9.39387273 13.197763,9.18198788 L13.2287147,9.15121212 L23.1334766,0.969393939 C23.1644282,0.938618182 23.1941912,0.938618182 23.2251429,0.909024242 C22.4632381,0.454478788 21.5799162,0.151448485 20.6346667,0.151448485 L4.93699048,0.151448485 C3.99174095,0.151448485 3.10841905,0.42370303 2.34651429,0.909024242 C2.3774659,0.909024242 2.43818057,0.9398 2.46913219,0.969393939 L2.46918095,0.969393939 Z" id="Fill-1"></path>
                <path d="M24.8987429,2.60666667 C24.8380282,2.69781212 24.7773135,2.75818182 24.6856472,2.81855152 L14.811971,11.0003697 C14.233411,11.485703 13.5322149,11.7579455 12.8000549,11.7579455 C12.0691139,11.7579455 11.3679177,11.5152848 10.7881387,11.0003697 L0.914462476,2.81855152 C0.82279619,2.75818182 0.762081524,2.66703636 0.701366857,2.60666667 C0.304932571,3.30387879 0.0608792381,4.12181818 0.0608792381,5.00012121 L0.0608792381,15.0001212 C0.0608792381,17.6670303 2.25492114,19.8486061 4.93706971,19.8486061 L20.6633935,19.8486061 C23.3455421,19.8486061 25.539584,17.6670303 25.539584,15.0001212 L25.539584,5.00012121 C25.539584,4.12181818 25.2955368,3.30266667 24.8990964,2.60666667 L24.8987429,2.60666667 Z" id="Fill-2"></path>
            </g>
        </g>
    </g>
</svg>