<?xml version="1.0" encoding="UTF-8"?>
<svg width="39px" height="40px" viewBox="0 0 39 40" version="1.1" xmlns="http://www.w3.org/2000/svg" xmlns:xlink="http://www.w3.org/1999/xlink">
    <!-- Generator: Sketch 48.2 (47327) - http://www.bohemiancoding.com/sketch -->
    <title>Common Ailments</title>
    <desc>Created with Sketch.</desc>
    <defs></defs>
    <g id="HCD27" stroke="none" stroke-width="1" fill="none" fill-rule="evenodd" transform="translate(-340.000000, -3738.000000)">
        <g id="Common-Ailments" transform="translate(329.000000, 3728.000000)">
            <g id="Personal-Care">
                <g id="Group-52"></g>
            </g>
            <rect id="Rectangle-34" opacity="0.153759058" x="0" y="0" width="60" height="60"></rect>
            <path d="M22.9992036,33.6908266 L23.0289082,40.096526 C23.0289082,45.510088 27.7666021,49.887126 33.5990597,49.8974359 C39.3976793,49.8974359 44.1371655,45.5098167 44.1371655,40.096526 L44.1371655,34.4477898 C46.8741292,34.0196254 49,31.8109533 49,29.1359701 C49,26.1727441 46.3648761,23.7330435 43.1720505,23.745741 C39.9725986,23.745741 37.3457305,26.1748603 37.3457305,29.1359701 C37.3457305,31.8109533 39.4483004,34.0196037 42.1830915,34.4477898 L42.1830915,40.0943555 C42.1830915,44.5265242 38.334418,48.0959177 33.5965069,48.0959177 C28.8291573,48.0959177 24.9740746,44.52647 24.9740746,40.0943555 L24.9549777,33.6631527 C27.1530325,33.3558039 29.2853125,32.134901 31.2136414,30.0915887 C31.489456,29.7842399 31.5912958,29.3793921 31.5446233,29.0232667 C34.1266819,25.8565559 35.7200531,21.5811518 35.7200531,18.2955517 C35.7200531,13.1999684 33.2631894,12.6744894 29.1979639,11.8160552 C28.9242675,11.33066 28.4171924,11 27.8061539,11 C26.9511345,11 26.2615572,11.6380196 26.2615572,12.4456098 C26.2615572,13.2277508 26.9510802,13.8636542 27.8061539,13.8636542 C28.1647168,13.8636542 28.4744943,13.7343573 28.7481852,13.5605488 C32.7008168,14.3935881 33.768043,14.616119 33.768043,18.2979446 C33.768043,21.1848775 32.2722751,25.0574361 30.0169727,27.8682385 C29.6584099,27.8894335 29.2807392,28.0441687 28.9985752,28.3218413 C27.8635101,29.5575633 26.0133941,31.034971 23.8281032,31.034971 C21.6534035,31.034971 19.8308794,29.5364009 18.6576311,28.3218413 C18.3839348,28.0166142 18.0317648,27.8682385 17.649825,27.8682385 C15.3987591,25.0575989 13.9199373,21.1874278 13.9199373,18.2979446 C13.9199373,14.6246383 14.9892818,14.3935881 18.9206764,13.5605488 L18.9652306,13.5605488 C19.1986147,13.7343573 19.5253221,13.8636542 19.8563149,13.8636542 C20.7134525,13.8636542 21.428449,13.2277508 21.428449,12.4456098 C21.428449,11.6380196 20.7134525,11 19.8563149,11 C19.2516312,11 18.7424324,11.3306654 18.5132794,11.8160552 L18.4856985,11.8160552 C14.4333454,12.6744894 12,13.2023017 12,18.2955517 C12,21.5831052 13.5678976,25.8586722 16.1266553,29.0015617 C16.0821011,29.3767387 16.1796989,29.762486 16.4639975,30.0677131 C18.4328993,32.1661562 20.6394272,33.3785996 22.8671378,33.6541451 L22.9992036,33.6908266 Z M43.3170422,32.8205128 C45.4064713,32.8205128 47.1025641,31.1185434 47.1025641,29.0200522 C47.1025641,26.9349628 45.4064713,25.2307692 43.3170422,25.2307692 C41.2338465,25.2307692 39.5128205,26.9327387 39.5128205,29.0200522 C39.5128205,31.1185434 41.231822,32.8205128 43.3170422,32.8205128 Z" id="Page-1" stroke="#54D0FF" stroke-width="0.2" fill="#54D0FF"></path>
        </g>
    </g>
</svg>