<?xml version="1.0" encoding="UTF-8"?>
<svg width="67px" height="113px" viewBox="0 0 67 113" version="1.1" xmlns="http://www.w3.org/2000/svg" xmlns:xlink="http://www.w3.org/1999/xlink">
    <!-- Generator: Sketch 48.2 (47327) - http://www.bohemiancoding.com/sketch -->
    <title>Convenient</title>
    <desc>Created with Sketch.</desc>
    <defs></defs>
    <g id="HCD27" stroke="none" stroke-width="1" fill="none" fill-rule="evenodd" transform="translate(-687.000000, -948.000000)">
        <g id="Convenient" transform="translate(640.000000, 923.000000)">
            <rect id="Rectangle-33" x="0" y="0" width="160" height="160"></rect>
            <path d="M105.775343,26 L55.2246566,26 C51.2365874,26 48,29.2342387 48,33.2250101 L48,130.06298 C48,131.980131 48.7646051,133.814595 50.1156485,135.170856 C51.4711405,136.527228 53.3087508,137.287879 55.2246566,137.287879 L105.775343,137.287879 C107.691249,137.287879 109.52886,136.527128 110.884351,135.170856 C112.235395,133.814484 113,131.98002 113,130.06298 L113,33.2250101 C113,31.3078595 112.235395,29.4733956 110.884351,28.1171343 C109.52886,26.7607617 107.691249,26.0001113 105.775343,26.0001113 L105.775343,26 Z M92.3192083,29.9394425 C93.115097,29.9394425 93.8351868,30.422659 94.1383825,31.1569434 C94.4415782,31.8912278 94.2757665,32.7392459 93.7120166,33.3029419 C93.1482666,33.8666379 92.3002162,34.0324965 91.5659975,33.7293037 C90.8317788,33.4261109 90.3484848,32.7060281 90.3484848,31.910147 C90.3484848,30.8300288 91.2249144,29.9488536 92.3050673,29.9393939 L92.3192083,29.9394425 Z M74.7250512,29.9393939 L86.2921325,29.9444667 C86.9169364,30.0255532 87.3939394,30.6590398 87.3939394,31.4192031 C87.3939394,32.1743194 86.9168932,32.8128529 86.2921325,32.8939394 L74.7120824,32.8939394 C74.0830636,32.8128529 73.6060606,32.1742935 73.6060606,31.4192031 C73.6060606,30.6590139 74.0831068,30.0255532 74.7120824,29.9444667 L74.7250512,29.9393939 Z M88.374352,132.038415 L88.3787879,132.038415 C88.3787879,133.307731 87.3835663,134.333333 86.1617755,134.333333 L75.823073,134.333333 C74.5968463,134.333333 73.6060606,133.307743 73.6060606,132.038415 L73.6060606,129.729721 C73.6060606,128.464996 74.5968349,127.439394 75.823073,127.439394 L86.1617755,127.439394 C87.3835663,127.439394 88.3787879,128.464984 88.3787879,129.729721 L88.374352,132.038415 Z M110.041127,123.5 L50.9545455,123.5 L50.9588843,37.8181818 L110.045455,37.8181818 L110.041127,123.5 Z" id="Page-1" stroke="#C0EBFC" fill="#E8F8FF"></path>
            <g id="Page-1" transform="translate(63.000000, 56.000000)">
                <path d="M24.9571212,26.1174242 C24.9571212,27.2215152 23.2999242,27.2215152 23.2999242,26.1174242 C23.2999242,25.0133333 24.9571212,25.0133333 24.9571212,26.1174242" id="Fill-1" fill="#54D0FF"></path>
                <path d="M17.5,0.430871212 C7.90469697,0.430871212 0.0996969697,8.23640152 0.0996969697,17.8311742 C0.0996969697,27.2069318 16.2161364,44.1994318 16.9018182,44.9179919 C17.0571811,45.0816381 17.2746848,45.1748601 17.5004773,45.1748601 C17.7262697,45.1748601 17.9437788,45.0816434 18.0991364,44.9179919 C18.7868864,44.1991661 34.9012576,27.2069318 34.9012576,17.8311742 C34.9012576,8.23587121 27.0957273,0.430871212 17.5009545,0.430871212 L17.5,0.430871212 Z" id="Fill-2" fill="#54D0FF"></path>
                <path d="M21.8371294,18.8568462 C20.9932893,18.8568462 20.1833517,19.1885121 19.5865446,19.779909 C18.9889934,20.3705079 18.653876,21.1721037 18.653876,22.0073142 L18.653876,23.8486522 C18.653876,24.2506368 18.4923743,24.6350673 18.2057023,24.9195744 C17.9190406,25.2032837 17.529824,25.3631323 17.1244417,25.3631323 L16.3387319,25.3631323 C15.4940856,25.3631323 14.808512,24.6846197 14.808512,23.8486727 L14.808512,19.5321672 C15.976968,19.3379633 17.0380111,18.7401667 17.8026766,17.8450719 C18.5673834,16.9491791 18.9864921,15.8143215 18.9848796,14.641962 L18.9848796,11.8183725 C18.9848796,11.3668355 18.6142267,11 18.1579908,11 C17.7009486,11 17.3311019,11.3668355 17.3311019,11.8183725 L17.3311019,14.641962 C17.2414692,15.7608409 16.5865712,16.7590916 15.5901081,17.2945118 C14.593645,17.8299729 13.3912038,17.8299729 12.3939759,17.2945118 C11.3975128,16.7590507 10.7426168,15.7608613 10.6537883,14.641962 L10.6537883,11.8183725 C10.6537883,11.3668355 10.2831353,11 9.82689939,11 C9.36985724,11 9.00001053,11.3668355 9.00001053,11.8183725 L9.00001053,14.641962 C8.99758774,15.8111708 9.41345496,16.944453 10.1741307,17.8387295 C10.9340002,18.7338244 11.9902267,19.3340187 13.1546516,19.5322081 L13.1546516,23.8487136 C13.1546516,24.6846606 13.4905752,25.4862565 14.0873202,26.0769372 C14.6840653,26.6675362 15.4940029,27 16.3387319,27 L17.1446178,27 C17.985233,26.9944064 18.7903127,26.6595366 19.3821791,26.0697356 C19.974893,25.4791366 20.3075917,24.6807324 20.3075917,23.8488773 L20.3075917,22.0075393 C20.2567195,21.5783643 20.3939954,21.1484118 20.6838882,20.8255435 C20.974581,20.5026751 21.3904647,20.3180502 21.8273101,20.3180502 C22.26337,20.3180502 22.679233,20.5026628 22.9699258,20.8255435 C23.2598124,21.1484118 23.3970966,21.5783847 23.3462223,22.0075393 L23.3462223,25.260979 C23.3462223,25.712516 23.7168752,26.0793514 24.1731111,26.0793514 C24.6301533,26.0793514 25,25.712516 25,25.260979 L25,22.0075393 C25,21.1755818 24.6673013,20.3771776 24.0753935,19.7872948 C23.4826796,19.1966958 22.6784061,18.8626362 21.8370054,18.8570303 L21.8371294,18.8568462 Z" stroke="#FFFFFF" fill="#FFFFFF"></path>
            </g>
        </g>
    </g>
</svg>