<?xml version="1.0" encoding="UTF-8"?>
<svg width="47px" height="44px" viewBox="0 0 47 44" version="1.1" xmlns="http://www.w3.org/2000/svg" xmlns:xlink="http://www.w3.org/1999/xlink">
    <!-- Generator: Sketch 48.2 (47327) - http://www.bohemiancoding.com/sketch -->
    <title>Ear, Nose &amp; Throat</title>
    <desc>Created with Sketch.</desc>
    <defs></defs>
    <g id="HCD27" stroke="none" stroke-width="1" fill="none" fill-rule="evenodd" transform="translate(-1068.000000, -4230.000000)">
        <g id="Ear,-Nose-&amp;-Throat" transform="translate(1061.000000, 4222.000000)">
            <g id="Group-25">
                <rect id="Rectangle-34" opacity="0.153759058" x="0" y="0" width="60" height="60"></rect>
                <path d="M47.6478632,9.65329915 C44.0208547,7.69282051 39.9381197,7.94123077 36.7264957,10.3210256 C33.234188,12.9078291 31.6410256,17.3589744 32.5692308,21.937094 C32.6934291,22.5500855 32.7708855,23.1403419 32.816294,23.7266325 L34.1998496,23.7266325 C34.1517744,23.0495385 34.0649675,22.3671111 33.9220718,21.6619829 C33.102106,17.6154872 34.4909949,13.6944615 37.5490803,11.4308718 C40.3188581,9.37825641 43.8485675,9.1685812 46.9921573,10.8686496 C50.2440205,12.6261197 52.1272,16.5431795 51.4714735,20.1807863 C50.7930462,23.9428376 48.1982427,27.6406154 45.6889094,31.2156581 C44.7928068,32.4923761 43.946106,33.6982906 43.2089436,34.8802735 C41.5943453,37.4657443 39.2092855,37.9932656 37.5118496,37.6206503 C35.624841,37.2093333 34.2893538,35.6922393 34.0287726,33.665094 C33.8845402,32.5459829 33.8351282,31.4188376 33.8751932,30.2930256 L32.4903043,30.2930256 C32.4502393,31.4775726 32.5063282,32.6634872 32.6585744,33.8414017 C32.9964479,36.4642735 34.7432581,38.43012 37.2178906,38.9696075 C37.6479077,39.0630913 38.0805915,39.1084964 38.5106085,39.1084964 C40.7889333,39.1084964 42.9991556,37.8237781 44.3813778,35.6096923 C45.0998735,34.4598462 45.9358735,33.2685983 46.8212752,32.0066154 C49.2959077,28.4797778 52.1002496,24.4838803 52.8335829,20.4226838 C53.5894462,16.2172137 51.409959,11.6872991 47.6479419,9.65345299 L47.6478632,9.65329915 Z" id="Fill-1" stroke="#54D0FF" stroke-width="0.5" fill="#54D0FF"></path>
                <path d="M42.0721368,14.6786325 C44.5587692,14.491665 47.0054701,16.5843419 47.2095726,19.0683761 C47.2416239,19.4489915 47.5741538,19.7334359 47.9547692,19.7000684 C48.3353846,19.6693538 48.6171624,19.3354872 48.5864615,18.9548718 C48.3193675,15.7003419 45.233094,13.0560684 41.9693675,13.3018803 C39.1622222,13.5115487 37.0948376,15.2516581 36.5727863,17.8410256 C36.0185641,20.5934359 37.4087863,23.4246154 39.9555214,24.7254701 C40.4523077,24.9792103 40.6219145,25.7043761 40.5297778,26.257265 C40.4162632,26.938359 39.2437265,29.1525812 38.7375726,29.9099145 C38.5252342,30.2264205 38.6107043,30.6564444 38.9285436,30.867453 C39.046065,30.9462462 39.1796137,30.9836376 39.3118256,30.9836376 C39.5348479,30.9836376 39.7538769,30.8754632 39.8874154,30.6764786 C40.3348,30.0060855 41.7196889,27.5247521 41.8932957,26.4843419 C42.1043009,25.2249915 41.566106,23.9950427 40.5845436,23.4942222 C38.2541504,22.3043077 37.5730564,19.8696068 37.9269709,18.1137094 C38.3276205,16.1278632 39.8767487,14.8444786 42.0722701,14.6788376 L42.0721368,14.6786325 Z" id="Fill-2" stroke="#54D0FF" stroke-width="0.5" fill="#54D0FF"></path>
                <path d="M23.3987826,25.8577739 C25.1430152,30.1356217 26.3076739,34.7542957 26.8915435,39.7143609 C26.9743393,40.4197804 27.4402,40.8845304 28.3310957,41.3945543 C28.4977896,41.4905961 29.697763,42.1198413 30.056563,42.3329 C31.7996935,43.3706109 32.6574391,44.5893609 32.6574391,46.6966609 C32.6574391,48.8371957 31.0467957,49.8604647 27.4910696,49.7756823 C27.1654196,49.7679547 26.896037,50.0251721 26.8872196,50.3497171 C26.879493,50.6753671 27.1367093,50.9447497 27.4623848,50.9524649 C31.5989283,51.0518188 33.834363,49.6310432 33.834363,46.6966609 C33.834363,44.1244696 32.7293065,42.5536174 30.6584065,41.3205957 C30.266513,41.0876639 29.0554783,40.4518 28.9163783,40.3723022 C28.3257826,40.0345 28.0873174,39.7960348 28.060837,39.5774652 C27.4647022,34.5125522 26.2746652,29.7910087 24.4895109,25.4139652 C24.3658696,25.1125913 24.0225565,24.9679804 23.7211543,25.0905196 C23.4208826,25.2130559 23.2762717,25.5574739 23.3988109,25.8577457 L23.3987826,25.8577739 Z" id="Fill-1" stroke="#54D0FF" stroke-width="0.7" fill="#54D0FF"></path>
                <path d="M18.483087,25.8577739 C16.7388543,30.1356217 15.5741957,34.7542957 14.9903261,39.7143609 C14.9075302,40.4197804 14.4405674,40.8845304 13.5507739,41.3945543 C13.382975,41.4905961 12.1830043,42.1198413 11.8253065,42.3329 C10.0821761,43.3706109 9.22443072,44.5893609 9.22443072,46.6966609 C9.22443072,48.8371957 10.8350739,49.8604647 14.3908,49.7756823 C14.71645,49.7679547 14.9858326,50.0251721 14.9935478,50.3497171 C15.0012772,50.6753671 14.744058,50.9447497 14.419513,50.9524649 C10.2829696,51.0518188 8.04753478,49.6310432 8.04753478,46.6966609 C8.04753478,44.1244696 9.15259159,42.5536174 11.2223609,41.3205957 C11.6153565,41.0876639 12.8263913,40.4518 12.9654913,40.3723022 C13.556087,40.0345 13.7945522,39.7960348 13.8199304,39.5774652 C14.4171674,34.5125522 15.6072043,29.7910087 17.392387,25.4139652 C17.5149233,25.1125913 17.8593413,24.9679804 18.159613,25.0905196 C18.460987,25.2130559 18.6055978,25.5574739 18.4830587,25.8577457 L18.483087,25.8577739 Z" id="Fill-2" stroke="#54D0FF" stroke-width="0.7" fill="#54D0FF"></path>
                <path d="M13.3463913,48.5978261 C13.7979152,48.5978261 14.2571543,48.7004922 14.7936587,48.91025 C15.035422,49.0051896 15.2915304,49.1199993 15.6072609,49.2745609 C15.7938278,49.3650833 16.4716478,49.705087 16.4882087,49.7139326 C18.2136761,50.5728087 19.4146217,50.9536522 21.0000565,50.95255 C22.5842196,50.95255 23.7853065,50.5716783 25.5119043,49.7139326 C25.5284624,49.7051011 26.2051717,49.3650804 26.3928522,49.2745609 C26.7085826,49.1200078 26.9646826,49.0052009 27.2064543,48.91025 C27.7429587,48.7005007 28.2021978,48.5978261 28.6537217,48.5978261 C28.9793717,48.5978261 29.2432152,48.3339854 29.2432152,48.0094348 C29.2432152,47.6837848 28.9793746,47.4199413 28.6537217,47.4199413 C28.0399239,47.4199413 27.4415848,47.5546213 26.7781326,47.8140391 C26.5021483,47.9211224 26.2184261,48.049178 25.8773174,48.2158804 C25.6819189,48.31082 24.9985739,48.65415 24.9875522,48.6596609 C23.4100304,49.4434478 22.3646043,49.7757391 21.0002261,49.7757391 C19.6358478,49.7757391 18.590337,49.44455 17.0129,48.6596609 C17.0018613,48.6541415 16.3185304,48.3108087 16.1231348,48.2158804 C15.7809239,48.0491865 15.4983152,47.9222217 15.2223196,47.8140391 C14.5588391,47.5546128 13.9605283,47.4199413 13.3467304,47.4199413 C13.0210804,47.4199413 12.757237,47.683782 12.757237,48.0094348 C12.757237,48.3339826 13.0210776,48.5978261 13.3467304,48.5978261 L13.3463913,48.5978261 Z" id="Fill-3" stroke="#54D0FF" stroke-width="0.7" fill="#54D0FF"></path>
            </g>
            <g id="Page-1" transform="translate(32.000000, 8.000000)"></g>
            <g id="Page-1" transform="translate(8.000000, 25.000000)"></g>
        </g>
    </g>
</svg>