<?xml version="1.0" encoding="UTF-8"?>
<svg width="48px" height="36px" viewBox="0 0 48 36" version="1.1" xmlns="http://www.w3.org/2000/svg" xmlns:xlink="http://www.w3.org/1999/xlink">
    <!-- Generator: Sketch 48.2 (47327) - http://www.bohemiancoding.com/sketch -->
    <title>Eye</title>
    <desc>Created with Sketch.</desc>
    <defs></defs>
    <g id="HCD27" stroke="none" stroke-width="1" fill="none" fill-rule="evenodd" transform="translate(-697.000000, -3740.000000)">
        <g id="Eye" transform="translate(691.000000, 3728.000000)">
            <rect id="Rectangle-34" opacity="0.153759058" x="0" y="0" width="60" height="60"></rect>
            <g id="Page-1" transform="translate(7.000000, 13.000000)" fill="#54D0FF" stroke="#54D0FF" stroke-width="0.8">
                <path d="M23.0601538,8.84615385 C11.2652821,8.96364256 3.95364103,18.2820513 2.00689744,21.1706154 L1.76962,21.5253815 L2.00459744,21.8801477 C4.59852564,25.4186092 11.9128795,33.6750195 23.0578538,33.6750195 L23.1177482,33.6750195 C34.795261,33.6750195 42.3445687,24.6513528 44.3485174,21.8801477 L44.5834949,21.5253815 L44.3485174,21.1706154 C42.2844149,18.2218974 34.7351072,8.72820513 23.0599533,8.84615385 L23.0601538,8.84615385 Z M23.0601538,32.4960513 C12.7974359,32.4361569 5.8974359,25.0641026 3.18402564,21.4660769 C5.01317436,18.9297077 12.0903333,10.0834359 23.0005897,10.0262308 C33.7333333,9.90874205 40.8102564,18.3427949 43.0518718,21.4660769 C40.8702923,24.4747128 33.7934872,32.4960513 23.0607436,32.4960513 L23.0601538,32.4960513 Z" id="Fill-1"></path>
                <path d="M23.117359,14.0936923 C19.1665487,14.0936923 15.9802821,17.2773641 15.9802821,21.2307692 C15.9802821,25.1815795 19.1639538,28.3678462 23.117359,28.3678462 C27.0681692,28.3678462 30.2544359,25.1841744 30.2544359,21.2307692 C30.2544359,17.279959 27.0684641,14.0936923 23.117359,14.0936923 Z M23.117359,27.1877692 C19.8138513,27.1877692 17.1597692,24.5339231 17.1597692,21.2301795 C17.1597692,17.9264359 19.8136154,15.2725897 23.117359,15.2725897 C26.4208667,15.2725897 29.0749487,17.9264359 29.0749487,21.2301795 C29.0749487,24.5339231 26.4211026,27.1877692 23.117359,27.1877692 Z" id="Fill-2"></path>
                <polygon id="Fill-3" points="10.5003846 2.77120513 11.5830949 2.30586205 13.7969333 7.45231846 12.7142231 7.91766154"></polygon>
                <polygon id="Fill-4" points="0.287794872 9.93128205 1.11479231 9.09042564 5.11396154 13.0158769 4.2869641 13.8567333"></polygon>
                <polygon id="Fill-5" points="22.4102564 5.48532308 23.5897436 5.48532308 23.5897436 0.0601538462 22.4102564 0.0601538462"></polygon>
                <polygon id="Fill-6" points="32.3273846 7.47087179 34.5435231 2.32441538 35.6262333 2.78975846 33.4100949 7.93621487"></polygon>
                <polygon id="Fill-7" points="40.9158205 13.0457179 44.9149897 9.12256667 45.7419872 9.96572308 41.7428179 13.8888744"></polygon>
            </g>
        </g>
    </g>
</svg>