<?xml version="1.0" encoding="UTF-8"?>
<svg width="29px" height="43px" viewBox="0 0 29 43" version="1.1" xmlns="http://www.w3.org/2000/svg" xmlns:xlink="http://www.w3.org/1999/xlink">
    <!-- Generator: Sketch 48.2 (47327) - http://www.bohemiancoding.com/sketch -->
    <title>Female Conditions</title>
    <desc>Created with Sketch.</desc>
    <defs></defs>
    <g id="HCD27" stroke="none" stroke-width="1" fill="none" fill-rule="evenodd" transform="translate(-345.000000, -4231.000000)">
        <g id="Female-Conditions" transform="translate(329.000000, 4222.000000)">
            <rect id="Rectangle-34" opacity="0.153759058" x="0" y="0" width="60" height="60"></rect>
            <path d="M30.4999786,10 C23.0438278,10 17,16.0006923 17,23.4036276 C17,30.5406856 22.6211791,36.3582915 29.7070954,36.7684618 L29.7052324,43.1164032 L21.7630595,43.1164032 L21.7630595,44.692744 L29.7052324,44.692744 L29.7052324,51 L31.2929046,51 L31.2929046,44.692744 L39.2350775,44.692744 L39.2350775,43.1164032 L31.2929046,43.1164032 L31.2929046,36.7684618 C38.3788209,36.3582016 44,30.542578 44,23.4036276 C44,16.0006923 37.9561722,10 30.5000214,10 L30.4999786,10 Z M30.5,35 C24.1589,35 19,29.8411 19,23.5 C19,17.1589 24.1589,12 30.5,12 C36.8411,12 42,17.1589 42,23.5 C42,29.8411 36.83926,35 30.5,35 Z" id="Page-1" stroke="#54D0FF" stroke-width="0.3" fill="#54D0FF"></path>
        </g>
    </g>
</svg>