<?xml version="1.0" encoding="UTF-8"?>
<svg width="38px" height="38px" viewBox="0 0 38 38" version="1.1" xmlns="http://www.w3.org/2000/svg" xmlns:xlink="http://www.w3.org/1999/xlink">
    <!-- Generator: Sketch 48.2 (47327) - http://www.bohemiancoding.com/sketch -->
    <title>Gastrointestinal</title>
    <desc>Created with Sketch.</desc>
    <defs></defs>
    <g id="HCD27" stroke="none" stroke-width="1" fill="none" fill-rule="evenodd" transform="translate(-340.000000, -3983.000000)">
        <g id="Gastrointestinal" transform="translate(329.000000, 3972.000000)">
            <rect id="Rectangle-34" opacity="0.153759058" x="0" y="0" width="60" height="60"></rect>
            <g id="Page-1" transform="translate(11.000000, 11.000000)" fill="#54D0FF">
                <path d="M26.3888889,3.16666667 C24.6686711,3.16666667 22.9665667,3.55095644 21.4193333,4.28323333 L18.2114156,0.943371111 C17.5978844,0.32984 16.7781822,0.00654444444 15.8397089,0.00654444444 C14.5928444,0.00654444444 13.2321489,0.621722222 12.2029822,1.65253556 C10.67078,3.18473778 9.64490667,6.29191333 11.70324,7.87524667 L17.1461067,13.4663133 C18.3401933,14.6620467 18.9999156,16.2520089 18.9999156,17.94398 C18.9999156,21.4355467 16.1581489,24.2773133 12.6665822,24.2773133 C12.2328333,24.2773133 11.7165822,24.0810476 11.1195178,23.8534444 C10.3427133,23.5582182 9.46195778,23.2217578 8.44436,23.2217578 L8.35199889,23.2217578 C6.06769222,23.2217578 2.06888889e-05,23.2217578 2.06888889e-05,34.8328689 C2.06888889e-05,36.6371929 1.81591402,37.9995351 4.22224333,37.9995351 C6.62857222,37.9995351 8.44446556,36.6371929 8.44446556,34.8328689 C8.44446556,33.2495356 8.84194978,33.2495356 9.50166778,33.2495356 C10.1778989,33.2495356 10.9167878,33.594242 11.7760522,33.9950111 C12.0712784,34.1335507 12.3664878,34.2704436 12.6617478,34.3957929 C15.0878789,35.4216662 18.7425922,35.8884329 21.1112589,35.8884329 C30.42337,35.8884329 38.0001478,28.3116551 38.0001478,18.999544 C38.0001478,13.5220551 35.5740167,3.16621067 26.3890367,3.16621067 L26.3888889,3.16666667 Z M13.0791778,6.26404667 C12.15886,5.35196222 12.9455824,3.89398667 13.6943556,3.14521778 C14.3276889,2.51188444 15.1506844,2.11769778 15.8384422,2.11769778 C16.1237716,2.11769778 16.36128,2.18201911 16.5476489,2.29912244 C16.5707402,2.32716222 16.5905298,2.35684867 16.6169187,2.38323756 C16.9781171,2.744436 16.9698711,3.27222644 16.8972996,3.64990422 C16.783498,4.25849533 16.4305329,4.88194867 15.9076951,5.40643311 C15.2628351,6.05293978 13.9978151,6.81327756 13.079144,6.26405089 L13.0791778,6.26404667 Z M21.1111111,33.7777356 C18.8795822,33.7777356 15.5428444,33.3225378 13.4849333,32.4500578 C13.2144493,32.3362562 12.9422933,32.2092602 12.6668778,32.0806133 C11.6723333,31.61714 10.64646,31.1388467 9.50185778,31.1388467 C7.39898,31.1388467 6.33354444,32.3824178 6.33354444,34.8332911 C6.33354444,35.2736689 5.53035111,35.8888467 4.22243333,35.8888467 C2.91451556,35.8888467 2.11132222,35.2736689 2.11132222,34.8332911 C2.11132222,25.3332911 6.32695778,25.3332911 8.35218889,25.3332911 L8.44455,25.3332911 C9.07294333,25.3332911 9.70298333,25.572442 10.3692922,25.8264467 C11.0950078,26.10353 11.8454233,26.3888467 12.6667722,26.3888467 C17.3226167,26.3888467 21.1112167,22.6003733 21.1112167,17.9444022 C21.1112167,15.6881311 20.23215,13.5689133 18.64717,11.9838911 L15.0863167,8.32571556 C15.9158989,8.06182667 16.7290144,7.57196444 17.4003056,6.89906889 C18.0649678,6.23440667 18.5531833,5.44274 18.8187189,4.62303778 L20.4416567,6.31357333 C20.7748153,6.66157733 21.3009633,6.73908889 21.7214967,6.50159311 C23.1415567,5.70169311 24.7562189,5.27782422 26.3891633,5.27782422 C33.9034522,5.27782422 35.8891633,14.2534242 35.8891633,19.0000464 C35.8891633,27.1493576 29.2606967,33.7778242 21.1113856,33.7778242 L21.1111111,33.7777356 Z" id="Fill-1"></path>
                <path d="M21.1111111,29.5555556 C20.5272622,29.5555556 20.0555556,30.0272622 20.0555556,30.6111111 C20.0555556,31.19496 20.5272622,31.6666667 21.1111111,31.6666667 C28.0959333,31.6666667 33.7777778,25.9848222 33.7777778,19 C33.7777778,18.4161511 33.3060711,17.9444444 32.7222222,17.9444444 C32.1383733,17.9444444 31.6666667,18.4161511 31.6666667,19 C31.6666667,24.8203333 26.9314444,29.5555556 21.1111111,29.5555556 Z" id="Fill-2"></path>
            </g>
        </g>
    </g>
</svg>