<?xml version="1.0" encoding="UTF-8"?>
<svg width="37px" height="37px" viewBox="0 0 37 37" version="1.1" xmlns="http://www.w3.org/2000/svg" xmlns:xlink="http://www.w3.org/1999/xlink">
    <!-- Generator: Sketch 48.2 (47327) - http://www.bohemiancoding.com/sketch -->
    <title>Male Conditions</title>
    <desc>Created with Sketch.</desc>
    <defs></defs>
    <g id="HCD27" stroke="none" stroke-width="1" fill="none" fill-rule="evenodd" transform="translate(-700.000000, -4236.000000)">
        <g id="Male-Conditions" transform="translate(691.000000, 4222.000000)">
            <rect id="Rectangle-34" opacity="0.153759058" x="0" y="0" width="60" height="60"></rect>
            <path d="M35.6,14.8 C35.1578,14.8 34.8,15.157812 34.8,15.6 C34.8,16.042188 35.157812,16.4 35.6,16.4 L42.4624,16.4 L33.3124,25.55 C30.8374,23.3422 27.5716,22 24,22 C16.278,22 10,28.278 10,36 C10,43.722 16.278,50 24,50 C31.722,50 38,43.722 38,36 C38,32.425 36.64844,29.164 34.43752,26.6876 L43.59992,17.5252 L43.59992,24.4004 C43.59992,24.8426 43.957732,25.2004 44.39992,25.2004 C44.842108,25.2004 45.19992,24.842588 45.19992,24.4004 L45.19992,15.6004 C45.19992,15.1582 44.842108,14.8004 44.39992,14.8004 L35.6,14.8 Z M24,23.6 C30.858,23.6 36.4,29.142 36.4,36 C36.4,42.858 30.858,48.4 24,48.4 C17.142,48.4 11.6,42.858 11.6,36 C11.6,29.142 17.142,23.6 24,23.6 Z" id="Page-1" stroke="#54D0FF" stroke-width="0.5" fill="#54D0FF"></path>
        </g>
    </g>
</svg>