<?xml version="1.0" encoding="UTF-8"?>
<svg width="46px" height="42px" viewBox="0 0 46 42" version="1.1" xmlns="http://www.w3.org/2000/svg" xmlns:xlink="http://www.w3.org/1999/xlink">
    <!-- Generator: Sketch 48.2 (47327) - http://www.bohemiancoding.com/sketch -->
    <title>Musculoskeletal</title>
    <desc>Created with Sketch.</desc>
    <defs></defs>
    <g id="HCD27" stroke="none" stroke-width="1" fill="none" fill-rule="evenodd" transform="translate(-698.000000, -3981.000000)">
        <g id="Musculoskeletal" transform="translate(691.000000, 3972.000000)">
            <rect id="Rectangle-34" opacity="0.153759058" x="0" y="0" width="60" height="60"></rect>
            <g id="Page-1" transform="translate(8.000000, 10.000000)" fill="#54D0FF" stroke="#54D0FF" stroke-width="0.5">
                <path d="M25.6462104,18.7 C25.4266826,18.7 25.22179,18.5992404 25.0882469,18.4283106 C24.9546991,18.2555798 24.9107935,18.0306705 24.9711654,17.8201601 L25.7431538,15.1446294 C24.7937168,15.2094011 23.4143097,15.3011649 22.748444,15.3443476 C22.4465939,15.3641403 22.1630366,15.1896085 22.0496081,14.9107197 C21.9380154,14.6318309 22.0185066,14.315144 22.2526695,14.1226528 L29.0654061,8.5556549 C27.3658983,6.09785713 27.7628982,3.24936536 30.1502362,1.29727725 C31.1765256,0.460615412 32.4589423,0 33.7632768,0 C35.3822793,0 36.9079914,0.705294318 37.9471129,1.93780904 C38.8160916,2.96700811 39.2661059,4.26967456 39.2295296,5.60112947 C40.5686607,5.81164453 41.7943632,6.49177543 42.6724742,7.53175291 C44.6756445,9.90318529 44.3774614,13.4064419 42.0102146,15.340566 C41.0296338,16.1412538 39.7600492,16.5838591 38.4355768,16.5838591 C37.0433844,16.5838591 35.7207385,16.1034372 34.765822,15.273961 L30.8271076,18.4928797 C30.7027109,18.5936393 30.547208,18.6512162 30.3862209,18.6530172 L25.6537879,18.6997973 L25.6464726,18.6997973 L25.6462104,18.7 Z M26.6926377,13.6981772 C26.9030191,13.6981772 27.104254,13.7917374 27.2378159,13.953676 C27.3823366,14.1282078 27.4299044,14.3621129 27.3677014,14.5780402 L26.5792279,17.3093514 L30.1227689,17.2733681 L34.3687987,13.8043813 C34.5133194,13.6874265 34.698088,13.6316506 34.88288,13.6478458 C35.0676721,13.664041 35.2396132,13.7540038 35.3585118,13.8943487 C36.0500418,14.7130005 37.2007185,15.2024044 38.4373798,15.2024044 C39.4343988,15.2024044 40.3838359,14.8749345 41.1137686,14.2793772 C42.8553789,12.8561677 43.0748832,10.1716089 41.5930533,8.41712482 C40.8247179,7.5066724 39.6502502,6.94711679 38.4501651,6.91832833 C38.2471037,6.91292992 38.0568463,6.82296712 37.9269514,6.67002899 C37.7970659,6.51709085 37.7421828,6.31557161 37.7732844,6.11945539 C37.9653729,4.93553559 37.6360789,3.73360574 36.865903,2.82499578 C36.0939146,1.91095055 34.963329,1.38557261 33.763244,1.38557261 C32.786363,1.38557261 31.8222673,1.73463158 31.0465792,2.36617676 C29.4934232,3.63646195 28.551292,5.84239521 30.5691209,8.22981096 C30.8160879,8.523094 30.7758447,8.95850454 30.4776522,9.20322951 L24.8193389,13.8218202 C25.7797816,13.7570485 26.643234,13.6994716 26.643234,13.6994716 C26.6597004,13.6976706 26.676162,13.6976706 26.6926284,13.6976706 L26.6926377,13.6981772 Z" id="Fill-1"></path>
                <path d="M10.1496609,40.6997809 C8.46346344,40.6997809 6.81997701,39.899896 5.75520931,38.5587062 C4.90942119,37.4946692 4.48563826,36.1832428 4.52839489,34.8030044 C3.22322371,34.5946638 2.06943242,33.9231167 1.22897748,32.8665562 C-0.665533211,30.483664 -0.332596728,26.9177784 1.97147507,24.9181852 C3.04517745,23.9843909 4.26843641,23.4932786 5.50947265,23.4932786 C6.87695546,23.4932786 8.15363742,24.0866801 9.23445026,25.2176718 L17.4338772,18.1007581 C17.5424918,18.0058881 17.6760356,17.9500814 17.8184818,17.9370619 L21.9405308,17.6022313 C22.1702269,17.5836306 22.3838961,17.6822198 22.5245371,17.8645166 C22.6669833,18.0468134 22.7132771,18.290498 22.6491786,18.5155868 L21.8425917,21.4025917 L25.653037,21.0361362 C25.9539561,21.0100924 26.2334878,21.1849509 26.3474447,21.4751419 C26.4631839,21.7634709 26.3830585,22.0983064 26.1533625,22.2973609 L14.7522024,32.1915138 C15.3059418,33.1569282 15.5552339,34.3549222 15.4448324,35.578917 C15.3041686,37.1247326 14.6239781,38.4993993 13.5289434,39.4499566 C12.5976876,40.2554131 11.3975847,40.7 10.149392,40.7 L10.1496609,40.6997809 Z M5.50751259,24.919709 C4.5905242,24.919709 3.66998035,25.2991889 2.84374677,26.0153661 C1.0898589,27.5369903 0.84239009,30.1468428 2.27929545,31.9531912 C3.01646031,32.8814139 4.0865612,33.409718 5.29026515,33.4431953 C5.48790744,33.4487765 5.67308741,33.5417844 5.79773803,33.6998995 C5.92415725,33.8580145 5.97757569,34.066355 5.94730418,34.2691097 C5.75678192,35.509867 6.06126108,36.7096706 6.80553639,37.6453221 C7.61390107,38.6628336 8.86387153,39.2692832 10.1494421,39.2711404 C11.093142,39.2711404 11.9585307,38.9530484 12.6529385,38.3503466 C13.4684597,37.6434649 13.975887,36.6110957 14.0809552,35.4428647 C14.1824498,34.33235 13.8975575,33.2664558 13.3010798,32.5168108 C13.1853406,32.3698581 13.1301444,32.1838373 13.1461713,31.9940783 C13.1621982,31.8062004 13.2512259,31.631342 13.390112,31.5104425 L23.5801381,22.6653737 L20.9626849,22.9164967 C20.7365533,22.9369593 20.5157596,22.8420893 20.371522,22.6597925 C20.2272936,22.4774957 20.1792175,22.2319491 20.2433205,22.0050079 L21.0552407,19.1030977 L18.1386733,19.3393392 L9.60421305,26.7500726 C9.46532694,26.8709863 9.28727156,26.9323694 9.10385109,26.9119067 C8.92401342,26.8951633 8.75663809,26.8021553 8.64091257,26.6570598 C7.73636827,25.5204965 6.65377771,24.9196662 5.50709779,24.9196662 L5.50751259,24.919709 Z" id="Fill-2"></path>
            </g>
        </g>
    </g>
</svg>