<?xml version="1.0" encoding="UTF-8"?>
<svg width="106px" height="114px" viewBox="0 0 106 114" version="1.1" xmlns="http://www.w3.org/2000/svg" xmlns:xlink="http://www.w3.org/1999/xlink">
    <!-- Generator: Sketch 48.2 (47327) - http://www.bohemiancoding.com/sketch -->
    <title>Price &amp; Insurance</title>
    <desc>Created with Sketch.</desc>
    <defs>
        <path d="M50.1202392,111.999877 C49.8736969,111.999877 49.6271546,111.999877 49.3757858,111.874049 C29.0826378,105.311366 14.1059531,87.9657022 6.0619561,61.8222561 C0.125610106,42.3717106 0,25.0261703 0,24.2803121 C0,23.0413449 0.990995674,21.9282568 2.22855842,21.8023777 C33.6595483,18.2113553 48.0174641,1.11286509 48.143693,0.86631062 C48.6367776,0.246827038 49.2555466,0 50,0 C50.7444534,0 51.4840556,0.372656543 51.856307,0.86631062 C51.9819913,0.992140125 66.334264,18.2118509 97.7714416,21.8023777 C99.0089796,21.9282073 100,23.0413449 100,24.2803121 C100,25.0256252 99.8743156,42.3717106 93.9380439,61.8222561 C86.1357381,87.9669412 71.1599196,105.312481 50.8655341,111.879006 C50.6141654,111.879006 50.367623,112 50.1210807,112 L50.1202392,111.999877 Z" id="path-1"></path>
        <rect id="path-3" x="50" y="-4" width="61" height="126"></rect>
    </defs>
    <g id="HCD27" stroke="none" stroke-width="1" fill="none" fill-rule="evenodd" transform="translate(-1028.000000, -945.000000)">
        <g id="Price-&amp;-Insurance" transform="translate(1000.000000, 923.000000)">
            <rect id="Rectangle-33" x="0" y="0" width="160" height="160"></rect>
            <g id="Group-32" transform="translate(28.000000, 23.000000)">
                <g id="Group-28" transform="translate(5.000000, 0.000000)">
                    <mask id="mask-2" fill="white">
                        <use xlink:href="#path-1"></use>
                    </mask>
                    <use id="Page-1" stroke="#C0EBFC" fill="#FFFFFF" xlink:href="#path-1"></use>
                    <g id="Rectangle-6" mask="url(#mask-2)">
                        <use fill="#E8F8FF" fill-rule="evenodd" xlink:href="#path-3"></use>
                        <rect stroke="#C0EBFC" stroke-width="1" x="50.5" y="-3.5" width="60" height="125"></rect>
                    </g>
                </g>
                <path d="M34.1423818,87.6786235 C34.1423818,91.7154182 32.9779392,94.9499808 30.6490192,97.3824084 C28.3200992,99.8148359 25.4995606,101.419179 22.1873188,102.195486 L22.1873188,107.163824 C22.1873188,108.975206 22.0191215,110.243154 21.6827219,110.967707 C21.3463224,111.69226 20.8546689,112.183914 20.2077466,112.442683 C19.5608244,112.701451 18.6939616,112.830834 17.6071323,112.830834 C16.5203029,112.830834 15.6534402,112.701451 15.0065179,112.442683 C14.3595957,112.183914 13.9067569,111.718137 13.6479881,111.045337 C13.2857116,110.165523 13.1045761,108.845822 13.1045761,107.086193 L13.1045761,102.273116 C10.9826712,101.807332 9.06781012,101.031037 7.35993544,99.9442076 C5.65206076,98.8573782 4.46174171,97.8999477 3.78894259,97.0718872 L2.77974896,95.7521725 C1.69291962,94.3548205 1.1495131,93.1386249 1.1495131,92.1035494 C1.1495131,91.0684738 2.02931413,89.6970193 3.78894259,87.9891446 C4.82401816,87.0058228 5.92376945,86.5141693 7.08822946,86.5141693 C8.25268947,86.5141693 9.86997078,87.5492293 11.9401219,89.6193804 C13.544489,91.586024 15.3558441,92.569331 17.3742415,92.569331 C21.204021,92.569331 23.1188821,90.9908645 23.1188821,87.833884 C23.1188821,86.6953009 22.3943401,85.8154999 20.9452343,85.1944545 C19.4961285,84.5734092 17.7365264,84.0170644 15.6663753,83.5254035 C13.5962242,83.0337426 11.5261041,82.3738919 9.45595297,81.5458314 C7.38580185,80.717771 5.62619978,79.2945634 4.17709399,77.276166 C2.7279882,75.2577687 2.00344617,72.6959951 2.00344617,69.5907684 C2.00344617,66.4855417 2.98675321,63.6908796 4.95339678,61.2066983 C6.92004035,58.7225169 9.63707296,57.1181738 13.1045761,56.3936209 L13.1045761,52.0463253 C13.1045761,50.2866969 13.2598351,49.0187483 13.5703578,48.2424416 C14.0878956,47.000351 15.4593501,46.3793149 17.6847626,46.3793149 C19.0821146,46.3793149 20.1301129,46.6768947 20.8287889,47.2720631 C21.5274649,47.8672316 21.9285506,48.5012059 22.0320582,49.174005 C22.1355658,49.8468041 22.1873188,50.8301111 22.1873188,52.1239556 L22.1873188,56.4712512 C23.6364246,56.7817739 24.9561261,57.2216744 26.146463,57.790966 C27.3367999,58.3602575 28.1648479,58.8260346 28.6306319,59.188311 L29.3293044,59.8093532 L29.6398256,60.0422441 C30.93367,61.232581 31.5805825,62.215888 31.5805825,62.9921947 C31.5805825,63.7685014 30.9724848,65.0623264 29.756271,66.8737086 C28.5400572,68.6850909 27.2074174,69.5907684 25.7583116,69.5907684 C24.8267436,69.5907684 24.0375103,69.3578799 23.3905881,68.8920959 C22.7436659,68.4263119 22.2390741,68.0381644 21.8767976,67.7276417 C21.5145212,67.417119 21.1781267,67.158354 20.867604,66.9513389 C19.9877898,66.3820474 18.8751002,66.0974058 17.529502,66.0974058 C16.1839038,66.0974058 15.0712142,66.4208621 14.1914,67.0677843 C13.3115858,67.7147066 12.8716853,68.6074458 12.8716853,69.746029 C12.8716853,70.8846121 13.4021535,71.8032279 14.463106,72.5019039 C15.5240584,73.2005799 16.8308217,73.6663569 18.3834351,73.8992489 C19.9360484,74.1321409 21.6438975,74.5202884 23.5070335,75.0637031 C25.3701695,75.6071178 27.0780186,76.241092 28.6306319,76.9656449 C30.1832453,77.6901978 31.4900086,78.9710846 32.550961,80.8083438 C33.6119135,82.6456029 34.1423818,84.9356732 34.1423818,87.6786235 Z" id="$" fill="#54D0FF" transform="translate(17.645947, 79.605074) rotate(2.000000) translate(-17.645947, -79.605074) "></path>
            </g>
        </g>
    </g>
</svg>