<?xml version="1.0" encoding="UTF-8"?>
<svg width="44px" height="39px" viewBox="0 0 44 39" version="1.1" xmlns="http://www.w3.org/2000/svg" xmlns:xlink="http://www.w3.org/1999/xlink">
    <!-- Generator: Sketch 48.2 (47327) - http://www.bohemiancoding.com/sketch -->
    <title>Respiratory</title>
    <desc>Created with Sketch.</desc>
    <defs></defs>
    <g id="HCD27" stroke="none" stroke-width="1" fill="none" fill-rule="evenodd" transform="translate(-1069.000000, -3983.000000)">
        <g id="Respiratory" transform="translate(1061.000000, 3972.000000)">
            <rect id="Rectangle-34" opacity="0.153759058" x="0" y="0" width="60" height="60"></rect>
            <path d="M37.2079567,35.331684 C37.2079567,35.8521414 37.6217251,36.2765957 38.1290385,36.2765957 C38.6363704,36.2765957 39.0501204,35.8521225 39.0501204,35.331684 L39.0501204,31.8362667 L42.3206979,33.0174063 C42.4124469,33.0653889 42.5041958,33.0653889 42.6427173,33.0653889 C43.0115093,33.0653889 43.3803197,32.829161 43.5170083,32.4508184 C43.7005062,31.9783625 43.4252593,31.4117935 42.9647276,31.2696788 L38.6813284,29.7101965 L30.8991077,21.6784471 L30.8991077,11.9449117 C30.8991077,11.4244543 30.4853393,11 29.9780259,11 C29.4707124,11 29.056944,11.4244732 29.056944,11.9449117 L29.056944,21.6784471 L21.3193958,29.662006 L17.0359966,31.2214883 C16.5754557,31.4097336 16.2983943,31.930172 16.483716,32.4026279 C16.6222375,32.7809611 16.9910479,33.0171984 17.3580069,33.0171984 C17.4497558,33.0171984 17.5415048,33.0171984 17.6800263,32.9692158 L20.9506038,31.7880762 L20.9506038,35.2834936 C20.9506038,35.8039509 21.3643722,36.2284052 21.8716857,36.2284052 C22.3790176,36.2284052 22.7927675,35.803932 22.7927675,35.2834936 L22.7927675,30.8431645 L29.9781272,23.4260802 L37.2081593,30.8431645 L37.2079567,35.331684 Z M25.7450617,30.8163002 C25.2315822,30.8163002 24.8128186,31.2333201 24.8128186,31.7446203 L24.8128186,45.4373413 C24.8128186,46.5052807 23.9734269,47.3864421 22.9483324,47.4336008 C20.104245,47.6185407 14.9315076,47.5260708 12.0420201,44.2316392 C9.84980192,41.6316004 9.29082894,37.5468064 10.4561328,32.0692538 C13.1126547,19.676645 19.3599887,15.9160204 22.8559004,14.8029646 C23.322022,14.6633546 23.7881436,14.7104947 24.2069072,15.0350446 C24.6256894,15.3142648 24.8132381,15.7784434 24.8132381,16.2426034 L24.8132381,20.6049651 C24.8132381,21.1162838 25.2320204,21.5332851 25.7454812,21.5332851 C26.2589607,21.5332851 26.6777243,21.1162652 26.6777243,20.6049651 L26.6777243,16.2426034 C26.6777243,15.174664 26.1642448,14.1538832 25.2793597,13.5048018 C24.3944745,12.8557204 23.322022,12.7161011 22.2495695,13.0406418 C18.4277456,14.2463903 11.5287736,18.3311379 8.63928422,31.6525309 C7.33377096,37.7789792 8.0329533,42.3755561 10.6894733,45.4376198 C13.5335625,48.6867401 18.0546619,49.3829787 21.3175128,49.3829787 C21.9693372,49.3829787 22.5756682,49.3358386 23.1346411,49.3358386 C25.1393367,49.1962286 26.7234043,47.4791999 26.7234043,45.4829404 L26.7234043,31.7447317 C26.6778828,31.2352232 26.2572827,30.8164116 25.7456211,30.8164116 L25.7450617,30.8163002 Z M51.3604206,31.6935773 C48.4711846,18.3695689 41.5730357,14.283552 37.7042223,13.0304944 C36.67925,12.7058694 35.5595732,12.8908521 34.6747936,13.4947618 C33.790014,14.1439932 33.2765957,15.1196975 33.2765957,16.2331963 L33.2765957,20.5965665 C33.2765957,21.1080034 33.695328,21.5251011 34.2087276,21.5251011 C34.7221459,21.5251011 35.1408595,21.1079848 35.1408595,20.5965665 L35.1408595,16.2331963 C35.1408595,15.7217594 35.3738925,15.3046616 35.7471181,15.0253584 C36.1203344,14.7460737 36.6318977,14.6535824 37.0979637,14.7932247 C40.5934583,15.9067235 46.7926015,19.6680318 49.49625,32.0635055 C50.7087672,37.5892154 50.1498143,41.6752323 47.9123715,44.2287027 C45.0231308,47.5257436 39.8489599,47.6635382 37.0073558,47.4314045 C35.9823836,47.3389132 35.143092,46.4557002 35.143092,45.4346835 L35.143092,31.7861522 C35.143092,31.2747153 34.7243597,30.8576175 34.2109601,30.8576175 C33.6975418,30.8576175 33.2788282,31.2747339 33.2788282,31.7861522 L33.2788282,45.4820388 C33.2788282,47.4787598 34.8627067,49.1961761 36.8671632,49.3358277 C37.3805814,49.3829787 38.032328,49.3829787 38.6840746,49.3829787 C41.9465363,49.3829787 46.4669099,48.6865791 49.310849,45.4367077 C51.9670521,42.41897 52.666151,37.8217948 51.3607888,31.6934659 L51.3604206,31.6935773 Z" id="Page-1" fill="#54D0FF"></path>
        </g>
    </g>
</svg>