<?xml version="1.0" encoding="UTF-8"?>
<svg width="140px" height="100px" viewBox="0 0 140 100" version="1.1" xmlns="http://www.w3.org/2000/svg" xmlns:xlink="http://www.w3.org/1999/xlink">
    <!-- Generator: Sketch 48.2 (47327) - http://www.bohemiancoding.com/sketch -->
    <title>Right Care</title>
    <desc>Created with Sketch.</desc>
    <defs></defs>
    <g id="HCD27" stroke="none" stroke-width="1" fill="none" fill-rule="evenodd" transform="translate(-289.000000, -953.000000)">
        <g id="Right-Care" transform="translate(279.000000, 923.000000)">
            <rect id="Rectangle-33" x="0" y="0" width="160" height="160"></rect>
            <g id="Group-29" transform="translate(11.000000, 30.000000)">
                <g id="Group-2">
                    <path d="M103.6846,70.5795334 L111.388396,54.6895556 C112.959143,51.4461756 116.784889,49.9706282 120.139893,51.2948374 C120.156791,51.3014984 120.173421,51.307893 120.190588,51.3148205 C123.729061,52.7408099 125.42212,56.7539365 123.96993,60.2621584 L122.389795,64.0783855" id="Shape" stroke="#C0EBFC" stroke-width="1.5" fill="#E8F8FF" fill-rule="nonzero"></path>
                    <path d="M119.979784,23.8898018 L105.727167,23.8898018 L105.727167,9.63718466 C105.727167,4.31439674 101.412845,0 96.0899826,0 C90.7671947,0 86.4498048,4.31432191 86.4498048,9.63718466 L86.4498048,23.8898018 L72.2001808,23.8898018 C66.8744746,23.8898018 62.56,28.207042 62.56,33.5299796 C62.56,38.8527675 66.8743249,43.1701574 72.2001808,43.1701574 L86.4498048,43.1701574 L86.4498048,57.4227745 C86.4498048,62.7455625 90.767045,67.0599592 96.0899826,67.0599592 C101.412771,67.0599592 105.73016,62.7456373 105.73016,57.4227745 L105.727235,43.1671643 L119.979852,43.1671643 C125.30264,43.1671643 129.62003,38.849924 129.62003,33.5269865 C129.62003,28.2071169 125.302789,23.8898018 119.979852,23.8898018 L119.979784,23.8898018 Z" id="Page-1" fill="#54D0FF"></path>
                    <path d="M132.025374,78.4062226 L86.3819726,97.3176355 C81.7952622,99.2205534 76.6683393,99.4134563 71.9488557,97.8691673 L24.5166376,82.3434137 C22.07978,81.5467567 19.4269984,81.6693193 17.0732918,82.695648 L15.1916676,83.5138868 L4.46359342,58.7991337 L0,48.5193269 L22.2525193,33.7934276 C29.0325356,29.3044383 37.5493325,28.0084718 45.2485685,30.6374401 C45.559982,30.7416183 45.8716637,30.8519247 46.1801267,30.9744873 L88.0356024,46.9230819 C89.9357344,47.6432706 91.3423256,49.074056 92.0826367,50.7808737 C92.8476249,52.5428447 92.9125362,54.5957686 92.0732487,56.4954893 C90.5679494,59.9211146 86.6689773,61.6279324 83.1060958,60.4174932 L56.5503838,51.3968841 C54.906142,50.8360269 53.2004759,50.9527278 51.7321921,51.5807281 C49.9122605,52.362198 48.4530965,53.9248715 47.9040324,55.9900517 C47.006271,59.3514648 48.8696556,62.8290461 52.17316,63.9782039 L82.6061175,74.543102 C85.3144225,75.4839034 88.2601098,75.4777753 90.9625137,74.543102 L125.855846,62.4155304 C130.134362,60.9263946 134.835337,62.9825158 136.624423,67.1035508 C136.633542,67.1251325 136.64293,67.1464477 136.6491,67.1648321 C138.512216,71.5365876 136.436394,76.5768423 132.025374,78.4062226 Z" id="Shape" stroke="#C0EBFC" stroke-width="1.5" fill="#FFFFFF" fill-rule="nonzero"></path>
                </g>
                <path d="M46.1801267,30.9742209 C46.1801267,30.9742209 15.0098086,38.9591758 5.29322472,57.3435693 C5.01560804,57.8705886 4.73799136,58.354711 4.46332519,58.7988673 L0,48.5193269 L22.2525193,33.7934276 C29.0325356,29.3044383 37.5493325,28.0084718 45.2485685,30.6374401 C45.559982,30.7413519 45.8716637,30.8516582 46.1801267,30.9742209 Z" id="Shape" stroke="#C0EBFC" stroke-width="1.5" fill="#E8F8FF" fill-rule="nonzero"></path>
            </g>
        </g>
    </g>
</svg>