<?xml version="1.0" encoding="UTF-8"?>
<svg width="66px" height="66px" viewBox="0 0 66 66" version="1.1" xmlns="http://www.w3.org/2000/svg" xmlns:xlink="http://www.w3.org/1999/xlink">
    <!-- Generator: Sketch 48.2 (47327) - http://www.bohemiancoding.com/sketch -->
    <title>Page 1</title>
    <desc>Created with Sketch.</desc>
    <defs></defs>
    <g id="Area" stroke="none" stroke-width="1" fill="none" fill-rule="evenodd" transform="translate(-685.000000, -144.000000)">
        <path d="M717.667599,210 C735.708699,210 750.335199,195.373501 750.335199,177.332401 C750.335199,159.291301 735.708699,144.664801 717.667599,144.664801 C699.626499,144.664801 685,159.291301 685,177.332401 C685,195.373501 699.626499,210 717.667599,210 Z M717.667599,207.66487 C734.421399,207.66487 747.999999,194.086271 747.999999,177.332471 C747.999999,160.578671 734.421399,147.000071 717.667599,147.000071 C700.913799,147.000071 687.335199,160.578671 687.335199,177.332471 C687.335199,194.086271 700.913799,207.66487 717.667599,207.66487 Z M705.999999,178.500071 C702.133619,178.500071 698.999999,175.366451 698.999999,171.500071 C698.999999,170.854755 699.522262,170.332471 700.167599,170.332471 C700.812936,170.332471 701.335199,170.854734 701.335199,171.500071 C701.335199,174.075861 703.424279,176.164941 706.000069,176.164941 C708.578589,176.164941 710.667669,174.075861 710.667669,171.500071 C710.667669,170.854755 711.189932,170.332471 711.835269,170.332471 C712.477848,170.332471 713.000139,170.854734 713.000139,171.500071 C713.000139,175.366451 709.866519,178.500071 706.000139,178.500071 L705.999999,178.500071 Z M729.335199,178.500071 C725.468819,178.500071 722.335199,175.366451 722.335199,171.500071 C722.335199,170.854755 722.857462,170.332471 723.500069,170.332471 C724.145385,170.332471 724.667669,170.854734 724.667669,171.500071 C724.667669,174.075861 726.756749,176.164941 729.335269,176.164941 C731.911059,176.164941 734.000139,174.075861 734.000139,171.500071 C734.000139,170.854755 734.522402,170.332471 735.167739,170.332471 C735.813076,170.332471 736.335339,170.854734 736.335339,171.500071 C736.335339,175.366451 733.201719,178.500071 729.335339,178.500071 L729.335199,178.500071 Z M708.671199,197.285271 C709.201666,196.784883 709.830539,196.281751 710.552449,195.811421 C712.614159,194.468821 714.990309,193.664941 717.667249,193.664941 C720.344189,193.664941 722.720409,194.468821 724.782049,195.811421 C725.503889,196.28173 726.132839,196.784841 726.663299,197.285271 C726.972286,197.57785 727.174628,197.7966 727.264865,197.905975 C727.675023,198.403633 728.410555,198.477462 728.908255,198.067304 C729.405913,197.659883 729.477005,196.924344 729.069584,196.426644 C728.519972,195.756723 727.508234,194.802434 726.056294,193.853584 C723.636394,192.281314 720.828134,191.332464 717.667494,191.332464 C714.506854,191.332464 711.698384,192.281314 709.278694,193.853584 C707.826754,194.802434 706.815044,195.756744 706.265404,196.426644 C705.857983,196.924302 705.929075,197.659834 706.426733,198.067304 C706.924391,198.477462 707.659923,198.403633 708.070123,197.905975 C708.16036,197.7966 708.362702,197.57785 708.671689,197.285271 L708.671199,197.285271 Z" id="Page-1" fill="#54D0FF"></path>
    </g>
</svg>