<?xml version="1.0" encoding="UTF-8"?>
<svg width="47px" height="49px" viewBox="0 0 47 49" version="1.1" xmlns="http://www.w3.org/2000/svg" xmlns:xlink="http://www.w3.org/1999/xlink">
    <!-- Generator: Sketch 48.2 (47327) - http://www.bohemiancoding.com/sketch -->
    <title>Skin</title>
    <desc>Created with Sketch.</desc>
    <defs></defs>
    <g id="HCD27" stroke="none" stroke-width="1" fill="none" fill-rule="evenodd" transform="translate(-1068.000000, -3734.000000)">
        <g id="Skin" transform="translate(1061.000000, 3728.000000)">
            <rect id="Rectangle-34" opacity="0.153759058" x="0" y="0" width="60" height="60"></rect>
            <g id="Page-1" transform="translate(8.000000, 7.000000)">
                <path d="M26.8587766,29.9819681 C26.8587766,31.6201117 24.4015851,31.6201117 24.4015851,29.9819681 C24.4015851,28.3438245 26.8587766,28.3438245 26.8587766,29.9819681" id="Fill-1" fill="#54D0FF"></path>
                <path d="M14.571383,22.8494681 C14.571383,24.4876117 12.1160585,24.4876117 12.1160585,22.8494681 C12.1160585,21.2113245 14.571383,21.2113245 14.571383,22.8494681" id="Fill-2" fill="#54D0FF"></path>
                <path d="M33.5350532,22.6570213 C33.5350532,24.2932979 31.0778617,24.2932979 31.0778617,22.6570213 C31.0778617,21.0188777 33.5350532,21.0188777 33.5350532,22.6570213" id="Fill-3" fill="#54D0FF"></path>
                <path d="M21.5109574,29.4041489 C21.5109574,31.0404255 19.055633,31.0404255 19.055633,29.4041489 C19.055633,27.7660053 21.5109574,27.7660053 21.5109574,29.4041489" id="Fill-4" fill="#54D0FF"></path>
                <path d="M22.3539894,15.525 C22.3539894,17.1612766 19.8967979,17.1612766 19.8967979,15.525 C19.8967979,13.8868564 22.3539894,13.8868564 22.3539894,15.525" id="Fill-5" fill="#54D0FF"></path>
                <path d="M38.0565957,35.9564362 C38.0565957,37.3888723 35.9079415,37.3888723 35.9079415,35.9564362 C35.9079415,34.525867 38.0565957,34.525867 38.0565957,35.9564362" id="Fill-6" fill="#54D0FF"></path>
                <path d="M37.164734,31.3300532 C37.164734,32.7624894 35.0160798,32.7624894 35.0160798,31.3300532 C35.0160798,29.899484 37.164734,29.899484 37.164734,31.3300532" id="Fill-7" fill="#54D0FF"></path>
                <path d="M34.933883,26.3187766 C34.933883,27.7512128 32.7852287,27.7512128 32.7852287,26.3187766 C32.7852287,24.8882074 34.933883,24.8882074 34.933883,26.3187766" id="Fill-8" fill="#54D0FF"></path>
                <path d="M10.1767021,31.1376064 C10.1767021,32.5700426 8.02804787,32.5700426 8.02804787,31.1376064 C8.02804787,29.7051702 10.1767021,29.7051702 10.1767021,31.1376064" id="Fill-9" fill="#54D0FF"></path>
                <path d="M25.2134043,24.777766 C25.2134043,26.2083351 23.06475,26.2083351 23.06475,24.777766 C23.06475,23.3453298 25.2134043,23.3453298 25.2134043,24.777766" id="Fill-10" fill="#54D0FF"></path>
                <path d="M8.82670213,35.9564362 C8.82670213,37.3888723 6.67991489,37.3888723 6.67991489,35.9564362 C6.67991489,34.525867 8.82670213,34.525867 8.82670213,35.9564362" id="Fill-11" fill="#54D0FF"></path>
                <path d="M11.9120745,27.2834043 C11.9120745,28.7139734 9.76342021,28.7139734 9.76342021,27.2834043 C9.76342021,25.8509681 11.9120745,25.8509681 11.9120745,27.2834043" id="Fill-12" fill="#54D0FF"></path>
                <path d="M22.3539894,19.9570213 C22.3539894,21.5951649 19.8967979,21.5951649 19.8967979,19.9570213 C19.8967979,18.3207447 22.3539894,18.3207447 22.3539894,19.9570213" id="Fill-13" fill="#54D0FF"></path>
                <path d="M16.6916489,27.4763298 C16.6916489,29.1144734 14.2363245,29.1144734 14.2363245,27.4763298 C14.2363245,25.8381862 16.6916489,25.8381862 16.6916489,27.4763298" id="Fill-14" fill="#54D0FF"></path>
                <path d="M19.6559043,24.3923936 C19.6559043,26.0286702 17.1987128,26.0286702 17.1987128,24.3923936 C17.1987128,22.75425 19.6559043,22.75425 19.6559043,24.3923936" id="Fill-15" fill="#54D0FF"></path>
                <path d="M23.9457447,41.3554787 C23.9457447,42.9936228 21.4904202,42.9936228 21.4904202,41.3554787 C21.4904202,39.7173351 23.9457447,39.7173351 23.9457447,41.3554787" id="Fill-16" fill="#54D0FF"></path>
                <path d="M19.3902128,41.3554787 C19.3902128,42.9936228 16.9348883,42.9936228 16.9348883,41.3554787 C16.9348883,39.7173351 19.3902128,39.7173351 19.3902128,41.3554787" id="Fill-17" fill="#54D0FF"></path>
                <path d="M24.9817021,33.0654255 C24.9817021,34.7035691 22.5245106,34.7035691 22.5245106,33.0654255 C22.5245106,31.4291489 24.9817021,31.4291489 24.9817021,33.0654255" id="Fill-18" fill="#54D0FF"></path>
                <path d="M19.197766,33.0654255 C19.197766,34.7035691 16.7424415,34.7035691 16.7424415,33.0654255 C16.7424415,31.4291489 19.197766,31.4291489 19.197766,33.0654255" id="Fill-19" fill="#54D0FF"></path>
                <path d="M27.8727128,40.7776596 C27.8727128,42.4139362 25.4173883,42.4139362 25.4173883,40.7776596 C25.4173883,39.139516 27.8727128,39.139516 27.8727128,40.7776596" id="Fill-20" fill="#54D0FF"></path>
                <path d="M24.961117,37.4993617 C24.961117,39.1375053 22.5039255,39.1375053 22.5039255,37.4993617 C22.5039255,35.8612181 24.961117,35.8612181 24.961117,37.4993617" id="Fill-21" fill="#54D0FF"></path>
                <path d="M28.6448936,34.6083511 C28.6448936,36.2464947 26.1877021,36.2464947 26.1877021,34.6083511 C26.1877021,32.9702074 28.6448936,32.9702074 28.6448936,34.6083511" id="Fill-22" fill="#54D0FF"></path>
                <path d="M20.6693617,36.7290957 C20.6693617,38.3672394 18.2121702,38.3672394 18.2121702,36.7290957 C18.2121702,35.0909521 20.6693617,35.0909521 20.6693617,36.7290957" id="Fill-23" fill="#54D0FF"></path>
                <path d="M29.9929787,26.7036702 C29.9929787,28.3418138 27.5376543,28.3418138 27.5376543,26.7036702 C27.5376543,25.0673936 29.9929787,25.0673936 29.9929787,26.7036702" id="Fill-24" fill="#54D0FF"></path>
                <path d="M28.2576064,21.1140957 C28.2576064,22.7522394 25.8022819,22.7522394 25.8022819,21.1140957 C25.8022819,19.4759521 28.2576064,19.4759521 28.2576064,21.1140957" id="Fill-25" fill="#54D0FF"></path>
                <path d="M44.4518617,44.280001 C44.2050223,43.8461579 44.0030585,43.4048467 43.8441223,42.9784478 C42.2172287,38.4062553 40.7642074,33.9315319 39.5561968,30.1630213 L39.3448835,29.4973085 C38.6305324,27.2682766 37.8843941,24.9606383 37.4299899,22.6755 C36.5548356,18.3931755 33.8900697,16.0949681 29.2936069,15.6516702 C28.5624527,15.588091 27.9901867,15.2122165 27.7302878,14.634383 C27.4123867,13.9088298 27.5657266,13.0205585 28.1435601,12.240766 C28.2819399,12.053767 28.3978819,11.8368431 28.4913814,11.6049734 L28.6297612,11.4665936 L28.6297612,11.292683 C28.8092824,10.9168085 28.8803441,10.5465447 28.9196138,10.2566777 C28.9252245,10.1631782 28.9401846,10.0771564 28.9532777,9.98178511 C28.9831979,9.78730372 29.0112463,9.59095053 29.0262064,9.38338085 C29.0355559,9.26743883 29.0411665,9.09352819 29.0355559,8.89718936 C29.0561266,8.36796064 28.8186367,7.68917872 28.2744814,7.31328511 C28.2894415,7.20669255 28.2969191,7.11132128 28.3174899,7.02343245 C28.4558697,6.4830016 28.534409,5.93323564 28.5568516,5.38902287 C28.5774223,4.77376755 28.498883,4.19408138 28.3100122,3.6685867 C27.9117,2.51668245 27.0870176,1.63587926 25.9163952,1.11603351 C25.7424846,1.03562234 25.5685739,0.972043085 25.3965495,0.904720213 C24.8823048,0.717721277 24.3381399,0.571859043 23.7733899,0.480226596 L23.7752617,0.422257979 L22.7635755,0.354939894 L22.5316915,0.354939894 L22.4681122,0.354939894 L22.4587628,0.354939894 L22.236233,0.354939894 L21.2245468,0.422257979 L21.2245468,0.480226596 C20.6597968,0.573726064 20.1174989,0.717716489 19.6013872,0.904720213 C19.4274766,0.972038298 19.253566,1.03562234 19.0815415,1.11603351 C17.9109191,1.63587926 17.0862223,2.51854947 16.6879245,3.6685867 C16.5009255,4.1959484 16.4223814,4.77376755 16.4410851,5.38902287 C16.4635229,5.93318777 16.542067,6.4810867 16.6804468,7.02343245 C16.7010176,7.10945426 16.710367,7.20669255 16.7234553,7.31328511 C16.1792904,7.68915957 15.9417957,8.36796064 15.9623809,8.89718936 C15.9567702,9.09354255 15.9623809,9.26745319 15.9717303,9.38338085 C15.9866904,9.59095053 16.0147436,9.78730372 16.044659,9.98178511 C16.0596191,10.0771564 16.0745793,10.1650452 16.0783181,10.2566777 C16.1157207,10.5465303 16.1886495,10.9149223 16.3681707,11.292683 L16.3681707,11.4665936 L16.5065505,11.6049734 C16.60005,11.8368527 16.7141202,12.0537766 16.8543718,12.240766 C17.432191,13.0224255 17.5855261,13.9088298 17.2676441,14.634383 C17.0077117,15.2122021 16.4354793,15.5880957 15.704325,15.6516702 C11.1078144,16.0929957 8.4430484,18.3931277 7.56794202,22.6755 C7.11352819,24.9606383 6.36739947,27.2682766 5.6530484,29.4973085 L5.44173511,30.1630213 C4.23372447,33.929234 2.78257213,38.4061596 1.15567851,42.9784478 C0.996727979,43.4029414 0.794764149,43.8461339 0.547939149,44.280001 C0.278657234,44.7512467 0.278657234,45.3346765 0.553549309,45.8059318 C0.828441862,46.2734339 1.32027271,46.5576712 1.87003867,46.5576712 L5.36696809,46.5576712 C6.03828191,46.5576712 6.62548404,46.1238281 6.82745745,45.4786765 C7.21829202,44.2294956 8.02239894,43.1075116 8.87510106,41.9144362 C9.56886702,40.9513883 10.2832181,39.9471702 10.8124468,38.8251862 C11.3472766,37.682617 11.7810957,36.4839415 12.1083511,35.2609468 C12.2673016,34.6456915 12.4038144,34.0323511 12.5047915,33.4302128 C12.5478048,33.1983287 12.5852027,32.9757989 12.6356936,32.7588989 C13.6137255,36.2221755 13.5744223,38.9990585 12.5421941,41.8938989 C12.3103101,42.5502766 12.0859133,43.2533786 11.8764814,43.9677297 C11.7025707,44.5979212 11.8241186,45.2486978 12.2149532,45.7554744 C12.6057878,46.269719 13.1929851,46.5595861 13.8343787,46.5595861 L31.1732617,46.5595861 C31.8146553,46.5595861 32.4018574,46.2697334 32.7926872,45.7554744 C33.1835218,45.2505648 33.3050649,44.5997882 33.131159,43.9677297 C32.9235894,43.2533786 32.697316,42.5502766 32.4654463,41.8938989 C31.4332229,38.9991064 31.3957867,36.2238989 32.3719468,32.7588989 C32.420566,32.9758181 32.4579686,33.1983527 32.5028489,33.4302128 C32.6038309,34.0323511 32.7403388,34.6457394 32.8992894,35.2609468 C33.2265399,36.4839415 33.6603638,37.684484 34.1951936,38.8251862 C34.7244223,39.9472181 35.4387734,40.9495213 36.1325394,41.9144362 C36.9852415,43.1093786 37.7893532,44.2294956 38.180183,45.4786765 C38.3821468,46.123852 38.9693106,46.5576712 39.6406723,46.5576712 L43.1376032,46.5576712 C43.6873691,46.5576712 44.1792096,46.2734291 44.4540926,45.8059318 C44.7215027,45.3346861 44.7215027,44.7512563 44.4522255,44.280001 L44.4518617,44.280001 Z" id="Fill-26" stroke="#54D0FF" stroke-width="1.7"></path>
            </g>
        </g>
    </g>
</svg>