<?xml version="1.0" encoding="UTF-8"?>
<svg width="279px" height="326px" viewBox="0 0 279 326" version="1.1" xmlns="http://www.w3.org/2000/svg" xmlns:xlink="http://www.w3.org/1999/xlink">
    <!-- Generator: Sketch 48.2 (47327) - http://www.bohemiancoding.com/sketch -->
    <title>Step 1@2x</title>
    <desc>Created with Sketch.</desc>
    <defs>
        <rect id="path-1" x="0.800409469" y="0.650083545" width="259.003831" height="309.003215" rx="10"></rect>
        <rect id="path-2" x="30.6854669" y="30.7951929" width="199.233716" height="49.8392283" rx="6"></rect>
        <rect id="path-3" x="30.6854669" y="96.3259259" width="199.233716" height="49.8392283" rx="6"></rect>
        <rect id="path-4" x="107.969105" y="161.116923" width="49.8084291" height="49.8392283" rx="6"></rect>
        <rect id="path-5" x="180.110754" y="161.116923" width="49.8084291" height="49.8392283" rx="6"></rect>
    </defs>
    <g id="HCD27" stroke="none" stroke-width="1" fill="none" fill-rule="evenodd" transform="translate(-342.000000, -1671.000000)">
        <g id="Step-1" transform="translate(481.000000, 1834.000000) rotate(-4.000000) translate(-481.000000, -1834.000000) translate(351.000000, 1679.000000)">
            <g id="Rectangle-18" transform="translate(130.302325, 155.151691) rotate(-360.000000) translate(-130.302325, -155.151691) ">
                <use fill="#F4FCFF" fill-rule="evenodd" xlink:href="#path-1"></use>
                <rect stroke="#C0EBFC" stroke-width="1.5" x="1.55040947" y="1.40008355" width="257.503831" height="307.503215" rx="10"></rect>
            </g>
            <g id="Rectangle-3">
                <use fill="#FFFFFF" fill-rule="evenodd" xlink:href="#path-2"></use>
                <rect stroke="#C0EBFC" stroke-width="1.5" x="31.4354669" y="31.5451929" width="197.733716" height="48.3392283" rx="6"></rect>
            </g>
            <g id="Rectangle-3">
                <use fill="#FFFFFF" fill-rule="evenodd" xlink:href="#path-3"></use>
                <rect stroke="#C0EBFC" stroke-width="1.5" x="31.4354669" y="97.0759259" width="197.733716" height="48.3392283" rx="6"></rect>
            </g>
            <rect id="Rectangle-3" fill="#54D0FF" x="30.6854669" y="161.116923" width="49.8084291" height="49.8392283" rx="6"></rect>
            <g id="flaticon1504111565-svg" transform="translate(42.407915, 175.149213)" fill="#FFFFFF" fill-rule="nonzero">
                <path d="M0.762321636,11.5992378 C0.56308792,11.3998809 0.463471062,11.1008455 0.463471062,10.9014886 C0.463471062,10.7021317 0.56308792,10.4030963 0.762321636,10.2037394 L2.15695765,8.80824098 C2.55542508,8.40952715 3.15312623,8.40952715 3.55159367,8.80824098 L3.65121053,8.90791944 L9.13013773,14.7889484 C9.32937144,14.9883053 9.62822202,14.9883053 9.82745574,14.7889484 L23.1761147,0.933642909 L23.2757316,0.933642909 C23.674199,0.534929082 24.2719002,0.534929082 24.6703676,0.933642909 L26.0650036,2.3291413 C26.4634711,2.72785513 26.4634711,3.32592587 26.0650036,3.72463969 L10.1263063,20.2712635 C9.92707259,20.4706204 9.72783888,20.5702989 9.4289883,20.5702989 C9.13013773,20.5702989 8.93090401,20.4706204 8.7316703,20.2712635 L0.961555353,11.8982731 L0.762321636,11.5992378 Z" id="Shape"></path>
            </g>
            <g id="Rectangle-3">
                <use fill="#FFFFFF" fill-rule="evenodd" xlink:href="#path-4"></use>
                <rect stroke="#C0EBFC" stroke-width="1.5" x="108.719105" y="161.866923" width="48.3084291" height="48.3392283" rx="6"></rect>
            </g>
            <g id="Rectangle-3">
                <use fill="#FFFFFF" fill-rule="evenodd" xlink:href="#path-5"></use>
                <rect stroke="#C0EBFC" stroke-width="1.5" x="180.860754" y="161.866923" width="48.3084291" height="48.3392283" rx="6"></rect>
            </g>
            <rect id="Rectangle-3" fill="#54D0FF" x="30.6854669" y="226.904704" width="199.233716" height="49.8392283" rx="6"></rect>
            <path d="M103.614231,245.633141 C103.518231,245.801142 103.416232,245.923141 103.308231,245.999141 C103.200231,246.075142 103.066232,246.113141 102.906231,246.113141 C102.738231,246.113141 102.556232,246.051142 102.360231,245.927141 C102.16423,245.803141 101.930233,245.665142 101.658231,245.513141 C101.38623,245.361141 101.068233,245.223142 100.704231,245.099141 C100.34023,244.975141 99.9102339,244.913141 99.4142314,244.913141 C98.9662292,244.913141 98.5742331,244.967141 98.2382314,245.075141 C97.9022297,245.183142 97.6202326,245.33314 97.3922314,245.525141 C97.1642303,245.717142 96.994232,245.94714 96.8822314,246.215141 C96.7702309,246.483143 96.7142314,246.77714 96.7142314,247.097141 C96.7142314,247.505143 96.8282303,247.84514 97.0562314,248.117141 C97.2842326,248.389143 97.5862295,248.62114 97.9622314,248.813141 C98.3382333,249.005142 98.766229,249.177141 99.2462314,249.329141 C99.7262338,249.481142 100.218229,249.64314 100.722231,249.815141 C101.226234,249.987142 101.718229,250.18714 102.198231,250.415141 C102.678234,250.643142 103.10623,250.93114 103.482231,251.279141 C103.858233,251.627143 104.16023,252.053139 104.388231,252.557141 C104.616233,253.061144 104.730231,253.673138 104.730231,254.393141 C104.730231,255.177145 104.596233,255.911138 104.328231,256.595141 C104.06023,257.279145 103.668234,257.875139 103.152231,258.383141 C102.636229,258.891144 102.006235,259.29114 101.262231,259.583141 C100.518228,259.875143 99.6662362,260.021141 98.7062314,260.021141 C98.1542287,260.021141 97.6102341,259.967142 97.0742314,259.859141 C96.5382287,259.751141 96.0242339,259.597142 95.5322314,259.397141 C95.040229,259.19714 94.5782336,258.957143 94.1462314,258.677141 C93.7142293,258.39714 93.3302331,258.085143 92.9942314,257.741141 L93.9422314,256.193141 C94.0222318,256.081141 94.1262308,255.987142 94.2542314,255.911141 C94.3822321,255.835141 94.5182307,255.797141 94.6622314,255.797141 C94.8622324,255.797141 95.0782303,255.87914 95.3102314,256.043141 C95.5422326,256.207142 95.8182298,256.38914 96.1382314,256.589141 C96.458233,256.789142 96.8322293,256.97114 97.2602314,257.135141 C97.6882336,257.299142 98.2022284,257.381141 98.8022314,257.381141 C99.722236,257.381141 100.434229,257.163143 100.938231,256.727141 C101.442234,256.291139 101.694231,255.665145 101.694231,254.849141 C101.694231,254.393139 101.580233,254.021143 101.352231,253.733141 C101.12423,253.44514 100.822233,253.203142 100.446231,253.007141 C100.07023,252.81114 99.6422338,252.645142 99.1622314,252.509141 C98.682229,252.373141 98.1942339,252.225142 97.6982314,252.065141 C97.2022289,251.905141 96.7142338,251.713142 96.2342314,251.489141 C95.754229,251.26514 95.3262333,250.973143 94.9502314,250.613141 C94.5742295,250.25314 94.2722326,249.803144 94.0442314,249.263141 C93.8162303,248.723139 93.7022314,248.057145 93.7022314,247.265141 C93.7022314,246.633138 93.8282302,246.017144 94.0802314,245.417141 C94.3322327,244.817138 94.698229,244.285144 95.1782314,243.821141 C95.6582338,243.357139 96.2502279,242.985143 96.9542314,242.705141 C97.6582349,242.42514 98.4662269,242.285141 99.3782314,242.285141 C100.402237,242.285141 101.346227,242.44514 102.210231,242.765141 C103.074236,243.085143 103.810228,243.533138 104.418231,244.109141 L103.614231,245.633141 Z M109.780263,247.517141 L109.780263,255.341141 C109.780263,256.093145 109.954261,256.675139 110.302263,257.087141 C110.650264,257.499143 111.172259,257.705141 111.868263,257.705141 C112.380265,257.705141 112.86026,257.591142 113.308263,257.363141 C113.756265,257.13514 114.180261,256.821143 114.580263,256.421141 L114.580263,247.517141 L117.544263,247.517141 L117.544263,259.829141 L115.732263,259.829141 C115.340261,259.829141 115.092263,259.649143 114.988263,259.289141 L114.784263,258.305141 C114.528261,258.561143 114.264264,258.79514 113.992263,259.007141 C113.720261,259.219142 113.428264,259.401141 113.116263,259.553141 C112.804261,259.705142 112.472264,259.821141 112.120263,259.901141 C111.768261,259.981142 111.384265,260.021141 110.968263,260.021141 C110.296259,260.021141 109.702265,259.907142 109.186263,259.679141 C108.67026,259.45114 108.236264,259.129143 107.884263,258.713141 C107.532261,258.297139 107.266264,257.803144 107.086263,257.231141 C106.906262,256.659138 106.816263,256.029145 106.816263,255.341141 L106.816263,247.517141 L109.780263,247.517141 Z M120.554294,259.829141 L120.554294,241.997141 L123.518294,241.997141 L123.518294,249.041141 C124.014296,248.513139 124.564291,248.095143 125.168294,247.787141 C125.772297,247.47914 126.46229,247.325141 127.238294,247.325141 C127.950297,247.325141 128.592291,247.46514 129.164294,247.745141 C129.736297,248.025143 130.224292,248.427139 130.628294,248.951141 C131.032296,249.475144 131.342293,250.109138 131.558294,250.853141 C131.774295,251.597145 131.882294,252.433137 131.882294,253.361141 C131.882294,254.361146 131.758295,255.269137 131.510294,256.085141 C131.262293,256.901145 130.908296,257.599138 130.448294,258.179141 C129.988292,258.759144 129.434297,259.20914 128.786294,259.529141 C128.138291,259.849143 127.418298,260.009141 126.626294,260.009141 C126.242292,260.009141 125.892296,259.971142 125.576294,259.895141 C125.260292,259.819141 124.972295,259.713142 124.712294,259.577141 C124.452293,259.441141 124.212295,259.275142 123.992294,259.079141 C123.772293,258.88314 123.562295,258.665143 123.362294,258.425141 L123.230294,259.253141 C123.182294,259.461142 123.100295,259.609141 122.984294,259.697141 C122.868293,259.785142 122.710295,259.829141 122.510294,259.829141 L120.554294,259.829141 Z M126.218294,249.629141 C125.650291,249.629141 125.154296,249.75914 124.730294,250.019141 C124.306292,250.279143 123.902296,250.645139 123.518294,251.117141 L123.518294,256.637141 C123.854296,257.053143 124.220292,257.34314 124.616294,257.507141 C125.012296,257.671142 125.430292,257.753141 125.870294,257.753141 C126.326296,257.753141 126.736292,257.671142 127.100294,257.507141 C127.464296,257.34314 127.774293,257.087143 128.030294,256.739141 C128.286295,256.39114 128.482293,255.947144 128.618294,255.407141 C128.754295,254.867139 128.822294,254.221145 128.822294,253.469141 C128.822294,252.117135 128.598296,251.139144 128.150294,250.535141 C127.702292,249.931138 127.058298,249.629141 126.218294,249.629141 Z M134.256325,259.829141 L134.256325,247.517141 L136.068325,247.517141 C136.452327,247.517141 136.704325,247.69714 136.824325,248.057141 L137.016325,248.969141 C137.232326,248.72914 137.458324,248.509142 137.694325,248.309141 C137.930326,248.10914 138.182324,247.937142 138.450325,247.793141 C138.718327,247.649141 139.006324,247.535142 139.314325,247.451141 C139.622327,247.367141 139.960323,247.325141 140.328325,247.325141 C141.104329,247.325141 141.742323,247.535139 142.242325,247.955141 C142.742328,248.375143 143.116324,248.933138 143.364325,249.629141 C143.556326,249.221139 143.796324,248.871143 144.084325,248.579141 C144.372327,248.28714 144.688323,248.049142 145.032325,247.865141 C145.376327,247.68114 145.742323,247.545142 146.130325,247.457141 C146.518327,247.369141 146.908323,247.325141 147.300325,247.325141 C147.980329,247.325141 148.584323,247.42914 149.112325,247.637141 C149.640328,247.845142 150.084323,248.149139 150.444325,248.549141 C150.804327,248.949143 151.078324,249.437138 151.266325,250.013141 C151.454326,250.589144 151.548325,251.249138 151.548325,251.993141 L151.548325,259.829141 L148.584325,259.829141 L148.584325,251.993141 C148.584325,251.209137 148.412327,250.619143 148.068325,250.223141 C147.724323,249.827139 147.220328,249.629141 146.556325,249.629141 C146.252324,249.629141 145.970326,249.681141 145.710325,249.785141 C145.450324,249.889142 145.222326,250.03914 145.026325,250.235141 C144.830324,250.431142 144.676326,250.67714 144.564325,250.973141 C144.452325,251.269143 144.396325,251.609139 144.396325,251.993141 L144.396325,259.829141 L141.420325,259.829141 L141.420325,251.993141 C141.420325,251.169137 141.254327,250.569143 140.922325,250.193141 C140.590324,249.817139 140.104328,249.629141 139.464325,249.629141 C139.032323,249.629141 138.630327,249.73514 138.258325,249.947141 C137.886323,250.159142 137.540327,250.449139 137.220325,250.817141 L137.220325,259.829141 L134.256325,259.829141 Z M157.510356,247.517141 L157.510356,259.829141 L154.534356,259.829141 L154.534356,247.517141 L157.510356,247.517141 Z M157.918356,243.929141 C157.918356,244.185143 157.866357,244.42514 157.762356,244.649141 C157.658356,244.873142 157.520357,245.06914 157.348356,245.237141 C157.176356,245.405142 156.974358,245.539141 156.742356,245.639141 C156.510355,245.739142 156.262358,245.789141 155.998356,245.789141 C155.742355,245.789141 155.500358,245.739142 155.272356,245.639141 C155.044355,245.539141 154.846357,245.405142 154.678356,245.237141 C154.510356,245.06914 154.376357,244.873142 154.276356,244.649141 C154.176356,244.42514 154.126356,244.185143 154.126356,243.929141 C154.126356,243.66514 154.176356,243.417142 154.276356,243.185141 C154.376357,242.95314 154.510356,242.753142 154.678356,242.585141 C154.846357,242.41714 155.044355,242.283142 155.272356,242.183141 C155.500358,242.083141 155.742355,242.033141 155.998356,242.033141 C156.262358,242.033141 156.510355,242.083141 156.742356,242.183141 C156.974358,242.283142 157.176356,242.41714 157.348356,242.585141 C157.520357,242.753142 157.658356,242.95314 157.762356,243.185141 C157.866357,243.417142 157.918356,243.66514 157.918356,243.929141 Z M164.720388,260.021141 C163.648382,260.021141 162.826391,259.719144 162.254388,259.115141 C161.682385,258.511138 161.396388,257.677147 161.396388,256.613141 L161.396388,249.737141 L160.136388,249.737141 C159.976387,249.737141 159.840388,249.685142 159.728388,249.581141 C159.616387,249.477141 159.560388,249.321142 159.560388,249.113141 L159.560388,247.937141 L161.540388,247.613141 L162.164388,244.253141 C162.204388,244.093141 162.280387,243.969142 162.392388,243.881141 C162.504388,243.793141 162.648387,243.749141 162.824388,243.749141 L164.360388,243.749141 L164.360388,247.625141 L167.648388,247.625141 L167.648388,249.737141 L164.360388,249.737141 L164.360388,256.409141 C164.360388,256.793143 164.454387,257.09314 164.642388,257.309141 C164.830389,257.525142 165.088386,257.633141 165.416388,257.633141 C165.600389,257.633141 165.754387,257.611142 165.878388,257.567141 C166.002388,257.523141 166.110387,257.477142 166.202388,257.429141 C166.294388,257.381141 166.376387,257.335142 166.448388,257.291141 C166.520388,257.247141 166.592387,257.225141 166.664388,257.225141 C166.752388,257.225141 166.824387,257.247141 166.880388,257.291141 C166.936388,257.335142 166.996387,257.401141 167.060388,257.489141 L167.948388,258.929141 C167.516386,259.289143 167.02039,259.56114 166.460388,259.745141 C165.900385,259.929142 165.320391,260.021141 164.720388,260.021141 Z" id="Submit" fill="#FFFFFF"></path>
            <path d="M64.492,55.324 C64.492,56.1000039 64.4120008,56.8419965 64.252,57.55 C64.0919992,58.2580035 63.8620015,58.9219969 63.562,59.542 C63.2619985,60.1620031 62.8960022,60.7299974 62.464,61.246 C62.0319978,61.7620026 61.5400028,62.215998 60.988,62.608 L65.392,67.396 L62.728,67.396 C62.3439981,67.396 61.9980015,67.3440005 61.69,67.24 C61.3819985,67.1359995 61.1000013,66.9440014 60.844,66.664 L58.3,63.856 C57.891998,63.9680006 57.4740021,64.0519997 57.046,64.108 C56.6179979,64.1640003 56.1720023,64.192 55.708,64.192 C54.3959934,64.192 53.2000054,63.9700022 52.12,63.526 C51.0399946,63.0819978 50.1140039,62.464004 49.342,61.672 C48.5699961,60.879996 47.9720021,59.9420054 47.548,58.858 C47.1239979,57.7739946 46.912,56.5960064 46.912,55.324 C46.912,54.0519936 47.1239979,52.8740054 47.548,51.79 C47.9720021,50.7059946 48.5699961,49.768004 49.342,48.976 C50.1140039,48.183996 51.0399946,47.5660022 52.12,47.122 C53.2000054,46.6779978 54.3959934,46.456 55.708,46.456 C56.5880044,46.456 57.4159961,46.557999 58.192,46.762 C58.9680039,46.966001 59.6799968,47.2539981 60.328,47.626 C60.9760032,47.9980019 61.5579974,48.4499973 62.074,48.982 C62.5900026,49.5140027 63.0279982,50.1079967 63.388,50.764 C63.7480018,51.4200033 64.0219991,52.1319962 64.21,52.9 C64.3980009,53.6680038 64.492,54.4759958 64.492,55.324 Z M61.192,55.324 C61.192,54.3719952 61.0640013,53.5180038 60.808,52.762 C60.5519987,52.0059962 60.1880024,51.3640026 59.716,50.836 C59.2439976,50.3079974 58.6700034,49.9040014 57.994,49.624 C57.3179966,49.3439986 56.5560042,49.204 55.708,49.204 C54.8599958,49.204 54.0980034,49.3439986 53.422,49.624 C52.7459966,49.9040014 52.1700024,50.3079974 51.694,50.836 C51.2179976,51.3640026 50.8520013,52.0059962 50.596,52.762 C50.3399987,53.5180038 50.212,54.3719952 50.212,55.324 C50.212,56.2760048 50.3399987,57.1299962 50.596,57.886 C50.8520013,58.6420038 51.2179976,59.2819974 51.694,59.806 C52.1700024,60.3300026 52.7459966,60.7319986 53.422,61.012 C54.0980034,61.2920014 54.8599958,61.432 55.708,61.432 C56.5560042,61.432 57.3179966,61.2920014 57.994,61.012 C58.6700034,60.7319986 59.2439976,60.3300026 59.716,59.806 C60.1880024,59.2819974 60.5519987,58.6420038 60.808,57.886 C61.0640013,57.1299962 61.192,56.2760048 61.192,55.324 Z M69.6260312,51.688 L69.6260312,59.512 C69.6260312,60.2640038 69.8000295,60.8459979 70.1480313,61.258 C70.496033,61.6700021 71.0180278,61.876 71.7140313,61.876 C72.2260338,61.876 72.706029,61.7620011 73.1540313,61.534 C73.6020335,61.3059989 74.0260292,60.992002 74.4260312,60.592 L74.4260312,51.688 L77.3900312,51.688 L77.3900312,64 L75.5780313,64 C75.1860293,64 74.9380318,63.8200018 74.8340313,63.46 L74.6300313,62.476 C74.37403,62.7320013 74.1100326,62.9659989 73.8380313,63.178 C73.5660299,63.3900011 73.2740328,63.5719992 72.9620312,63.724 C72.6500297,63.8760008 72.318033,63.9919996 71.9660313,64.072 C71.6140295,64.1520004 71.2300333,64.192 70.8140312,64.192 C70.1420279,64.192 69.5480338,64.0780011 69.0320313,63.85 C68.5160287,63.6219989 68.082033,63.3000021 67.7300312,62.884 C67.3780295,62.4679979 67.1120322,61.9740029 66.9320312,61.402 C66.7520303,60.8299971 66.6620312,60.2000034 66.6620312,59.512 L66.6620312,51.688 L69.6260312,51.688 Z M85.6440625,51.496 C86.4200664,51.496 87.1360592,51.6199988 87.7920625,51.868 C88.4480658,52.1160012 89.0120601,52.4779976 89.4840625,52.954 C89.9560649,53.4300024 90.3260612,54.0139965 90.5940625,54.706 C90.8620638,55.3980035 90.9960625,56.1879956 90.9960625,57.076 C90.9960625,57.5240022 90.948063,57.8259992 90.8520625,57.982 C90.756062,58.1380008 90.5720639,58.216 90.3000625,58.216 L82.6800625,58.216 C82.7280627,58.8480032 82.8400616,59.3939977 83.0160625,59.854 C83.1920634,60.3140023 83.4240611,60.6939985 83.7120625,60.994 C84.0000639,61.2940015 84.3420605,61.5179993 84.7380625,61.666 C85.1340645,61.8140007 85.5720601,61.888 86.0520625,61.888 C86.5320649,61.888 86.9460608,61.8320006 87.2940625,61.72 C87.6420642,61.6079994 87.9460612,61.4840007 88.2060625,61.348 C88.4660638,61.2119993 88.6940615,61.0880006 88.8900625,60.976 C89.0860635,60.8639994 89.2760616,60.808 89.4600625,60.808 C89.7080637,60.808 89.8920619,60.8999991 90.0120625,61.084 L90.8640625,62.164 C90.5360609,62.5480019 90.1680645,62.8699987 89.7600625,63.13 C89.3520605,63.3900013 88.9260647,63.5979992 88.4820625,63.754 C88.0380603,63.9100008 87.5860648,64.0199997 87.1260625,64.084 C86.6660602,64.1480003 86.2200647,64.18 85.7880625,64.18 C84.9320582,64.18 84.1360662,64.0380014 83.4000625,63.754 C82.6640588,63.4699986 82.0240652,63.0500028 81.4800625,62.494 C80.9360598,61.9379972 80.5080641,61.2500041 80.1960625,60.43 C79.8840609,59.6099959 79.7280625,58.6600054 79.7280625,57.58 C79.7280625,56.7399958 79.8640611,55.9500037 80.1360625,55.21 C80.4080639,54.4699963 80.79806,53.8260027 81.3060625,53.278 C81.814065,52.7299973 82.4340588,52.2960016 83.1660625,51.976 C83.8980662,51.6559984 84.7240579,51.496 85.6440625,51.496 Z M85.7040625,53.62 C84.8400582,53.62 84.1640649,53.8639976 83.6760625,54.352 C83.1880601,54.8400024 82.8760632,55.5319955 82.7400625,56.428 L88.3320625,56.428 C88.3320625,56.0439981 88.278063,55.6820017 88.1700625,55.342 C88.062062,55.0019983 87.9000636,54.7040013 87.6840625,54.448 C87.4680614,54.1919987 87.1940642,53.9900007 86.8620625,53.842 C86.5300608,53.6939993 86.1440647,53.62 85.7040625,53.62 Z M100.810094,54.088 C100.730093,54.2160006 100.646094,54.3059997 100.558094,54.358 C100.470093,54.4100003 100.358094,54.436 100.222094,54.436 C100.078093,54.436 99.9240946,54.3960004 99.7600938,54.316 C99.5960929,54.2359996 99.4060948,54.1460005 99.1900937,54.046 C98.9740927,53.9459995 98.7280951,53.8560004 98.4520937,53.776 C98.1760924,53.6959996 97.8500956,53.656 97.4740938,53.656 C96.8900908,53.656 96.4320954,53.7799988 96.1000937,54.028 C95.7680921,54.2760012 95.6020937,54.599998 95.6020937,55 C95.6020937,55.2640013 95.6880929,55.4859991 95.8600938,55.666 C96.0320946,55.8460009 96.2600923,56.0039993 96.5440938,56.14 C96.8280952,56.2760007 97.1500919,56.3979995 97.5100938,56.506 C97.8700956,56.6140005 98.2360919,56.7319994 98.6080937,56.86 C98.9800956,56.9880006 99.3460919,57.1339992 99.7060938,57.298 C100.066096,57.4620008 100.388092,57.6699987 100.672094,57.922 C100.956095,58.1740013 101.184093,58.4759982 101.356094,58.828 C101.528095,59.1800018 101.614094,59.6039975 101.614094,60.1 C101.614094,60.692003 101.508095,61.2379975 101.296094,61.738 C101.084093,62.2380025 100.770096,62.6699982 100.354094,63.034 C99.9380917,63.3980018 99.4240968,63.681999 98.8120938,63.886 C98.2000907,64.090001 97.4940978,64.192 96.6940938,64.192 C96.2700916,64.192 95.8560958,64.1540004 95.4520937,64.078 C95.0480917,64.0019996 94.6600956,63.8960007 94.2880938,63.76 C93.9160919,63.6239993 93.5720953,63.4640009 93.2560937,63.28 C92.9400922,63.0959991 92.662095,62.8960011 92.4220937,62.68 L93.1060937,61.552 C93.1940942,61.4159993 93.2980931,61.3120004 93.4180937,61.24 C93.5380943,61.1679996 93.6900928,61.132 93.8740937,61.132 C94.0580947,61.132 94.2320929,61.1839995 94.3960938,61.288 C94.5600946,61.3920005 94.7500927,61.5039994 94.9660937,61.624 C95.1820948,61.7440006 95.4360923,61.8559995 95.7280937,61.96 C96.0200952,62.0640005 96.3900915,62.116 96.8380937,62.116 C97.1900955,62.116 97.4920925,62.0740004 97.7440937,61.99 C97.996095,61.9059996 98.2040929,61.7960007 98.3680937,61.66 C98.5320946,61.5239993 98.6520934,61.3660009 98.7280937,61.186 C98.8040941,61.0059991 98.8420938,60.820001 98.8420938,60.628 C98.8420938,60.3399986 98.7560946,60.1040009 98.5840937,59.92 C98.4120929,59.7359991 98.1840952,59.5760007 97.9000937,59.44 C97.6160923,59.3039993 97.2920956,59.1820005 96.9280937,59.074 C96.5640919,58.9659995 96.1920956,58.8480006 95.8120938,58.72 C95.4320919,58.5919994 95.0600956,58.4420009 94.6960937,58.27 C94.3320919,58.0979991 94.0080952,57.8800013 93.7240938,57.616 C93.4400923,57.3519987 93.2120946,57.0280019 93.0400938,56.644 C92.8680929,56.2599981 92.7820938,55.7960027 92.7820938,55.252 C92.7820938,54.7479975 92.8820927,54.2680023 93.0820937,53.812 C93.2820947,53.3559977 93.5760918,52.9580017 93.9640937,52.618 C94.3520957,52.2779983 94.8360909,52.006001 95.4160937,51.802 C95.9960966,51.597999 96.6660899,51.496 97.4260938,51.496 C98.274098,51.496 99.0460903,51.6359986 99.7420938,51.916 C100.438097,52.1960014 101.018091,52.5639977 101.482094,53.02 L100.810094,54.088 Z M108.032125,64.192 C106.96012,64.192 106.138128,63.890003 105.566125,63.286 C104.994122,62.681997 104.708125,61.8480053 104.708125,60.784 L104.708125,53.908 L103.448125,53.908 C103.288124,53.908 103.152126,53.8560005 103.040125,53.752 C102.928124,53.6479995 102.872125,53.492001 102.872125,53.284 L102.872125,52.108 L104.852125,51.784 L105.476125,48.424 C105.516125,48.2639992 105.592124,48.1400004 105.704125,48.052 C105.816126,47.9639996 105.960124,47.92 106.136125,47.92 L107.672125,47.92 L107.672125,51.796 L116.348125,51.796 L116.348125,64 L113.384125,64 L113.384125,53.908 L107.672125,53.908 L107.672125,60.58 C107.672125,60.9640019 107.766124,61.2639989 107.954125,61.48 C108.142126,61.6960011 108.400123,61.804 108.728125,61.804 C108.912126,61.804 109.066124,61.7820002 109.190125,61.738 C109.314126,61.6939998 109.422125,61.6480002 109.514125,61.6 C109.606125,61.5519998 109.688125,61.5060002 109.760125,61.462 C109.832125,61.4179998 109.904125,61.396 109.976125,61.396 C110.064125,61.396 110.136125,61.4179998 110.192125,61.462 C110.248125,61.5060002 110.308125,61.5719996 110.372125,61.66 L111.260125,63.1 C110.828123,63.4600018 110.332128,63.7319991 109.772125,63.916 C109.212122,64.1000009 108.632128,64.192 108.032125,64.192 Z M116.864125,48.052 C116.864125,48.3080013 116.812126,48.5499989 116.708125,48.778 C116.604124,49.0060011 116.466126,49.2039992 116.294125,49.372 C116.122124,49.5400008 115.918126,49.6739995 115.682125,49.774 C115.446124,49.8740005 115.196126,49.924 114.932125,49.924 C114.676124,49.924 114.436126,49.8740005 114.212125,49.774 C113.988124,49.6739995 113.792126,49.5400008 113.624125,49.372 C113.456124,49.2039992 113.322125,49.0060011 113.222125,48.778 C113.122125,48.5499989 113.072125,48.3080013 113.072125,48.052 C113.072125,47.7879987 113.122125,47.5420011 113.222125,47.314 C113.322125,47.0859989 113.456124,46.8860009 113.624125,46.714 C113.792126,46.5419991 113.988124,46.4060005 114.212125,46.306 C114.436126,46.2059995 114.676124,46.156 114.932125,46.156 C115.196126,46.156 115.446124,46.2059995 115.682125,46.306 C115.918126,46.4060005 116.122124,46.5419991 116.294125,46.714 C116.466126,46.8860009 116.604124,47.0859989 116.708125,47.314 C116.812126,47.5420011 116.864125,47.7879987 116.864125,48.052 Z M124.902156,51.496 C125.814161,51.496 126.644153,51.6439985 127.392156,51.94 C128.14016,52.2360015 128.780154,52.6559973 129.312156,53.2 C129.844159,53.7440027 130.254155,54.4079961 130.542156,55.192 C130.830158,55.9760039 130.974156,56.8519952 130.974156,57.82 C130.974156,58.7960049 130.830158,59.6759961 130.542156,60.46 C130.254155,61.2440039 129.844159,61.9119972 129.312156,62.464 C128.780154,63.0160028 128.14016,63.4399985 127.392156,63.736 C126.644153,64.0320015 125.814161,64.18 124.902156,64.18 C123.982152,64.18 123.14616,64.0320015 122.394156,63.736 C121.642152,63.4399985 121.000159,63.0160028 120.468156,62.464 C119.936154,61.9119972 119.524158,61.2440039 119.232156,60.46 C118.940155,59.6759961 118.794156,58.7960049 118.794156,57.82 C118.794156,56.8519952 118.940155,55.9760039 119.232156,55.192 C119.524158,54.4079961 119.936154,53.7440027 120.468156,53.2 C121.000159,52.6559973 121.642152,52.2360015 122.394156,51.94 C123.14616,51.6439985 123.982152,51.496 124.902156,51.496 Z M124.902156,61.9 C125.926161,61.9 126.684154,61.5560034 127.176156,60.868 C127.668159,60.1799966 127.914156,59.1720066 127.914156,57.844 C127.914156,56.5159934 127.668159,55.5040035 127.176156,54.808 C126.684154,54.1119965 125.926161,53.764 124.902156,53.764 C123.862151,53.764 123.092159,54.1139965 122.592156,54.814 C122.092154,55.5140035 121.842156,56.5239934 121.842156,57.844 C121.842156,59.1640066 122.092154,60.1699965 122.592156,60.862 C123.092159,61.5540035 123.862151,61.9 124.902156,61.9 Z M133.324187,64 L133.324187,51.688 L135.136188,51.688 C135.520189,51.688 135.772187,51.8679982 135.892187,52.228 L136.096187,53.2 C136.344189,52.9439987 136.606186,52.712001 136.882187,52.504 C137.158189,52.295999 137.450186,52.1160008 137.758187,51.964 C138.066189,51.8119992 138.396186,51.6960004 138.748188,51.616 C139.100189,51.5359996 139.484185,51.496 139.900188,51.496 C140.572191,51.496 141.168185,51.6099989 141.688187,51.838 C142.20819,52.0660011 142.642186,52.3859979 142.990187,52.798 C143.338189,53.2100021 143.602187,53.7019971 143.782187,54.274 C143.962188,54.8460029 144.052188,55.4759966 144.052188,56.164 L144.052188,64 L141.088188,64 L141.088188,56.164 C141.088188,55.4119962 140.916189,54.8300021 140.572187,54.418 C140.228186,54.0059979 139.704191,53.8 139.000187,53.8 C138.488185,53.8 138.00819,53.9159988 137.560187,54.148 C137.112185,54.3800012 136.688189,54.695998 136.288187,55.096 L136.288187,64 L133.324187,64 Z M154.21225,61.78 L157.72825,61.78 L157.72825,51.664 C157.72825,51.271998 157.74025,50.8600022 157.76425,50.428 L155.26825,52.516 C155.124249,52.6280006 154.982251,52.6979999 154.84225,52.726 C154.702249,52.7540001 154.570251,52.7560001 154.44625,52.732 C154.322249,52.7079999 154.21225,52.6660003 154.11625,52.606 C154.02025,52.5459997 153.94825,52.4800004 153.90025,52.408 L152.96425,51.124 L158.25625,46.624 L160.69225,46.624 L160.69225,61.78 L163.81225,61.78 L163.81225,64 L154.21225,64 L154.21225,61.78 Z" id="Question-1" fill="#C0EBFC"></path>
            <path d="M64.492,118.324 C64.492,119.100004 64.4120008,119.841996 64.252,120.55 C64.0919992,121.258004 63.8620015,121.921997 63.562,122.542 C63.2619985,123.162003 62.8960022,123.729997 62.464,124.246 C62.0319978,124.762003 61.5400028,125.215998 60.988,125.608 L65.392,130.396 L62.728,130.396 C62.3439981,130.396 61.9980015,130.344001 61.69,130.24 C61.3819985,130.135999 61.1000013,129.944001 60.844,129.664 L58.3,126.856 C57.891998,126.968001 57.4740021,127.052 57.046,127.108 C56.6179979,127.164 56.1720023,127.192 55.708,127.192 C54.3959934,127.192 53.2000054,126.970002 52.12,126.526 C51.0399946,126.081998 50.1140039,125.464004 49.342,124.672 C48.5699961,123.879996 47.9720021,122.942005 47.548,121.858 C47.1239979,120.773995 46.912,119.596006 46.912,118.324 C46.912,117.051994 47.1239979,115.874005 47.548,114.79 C47.9720021,113.705995 48.5699961,112.768004 49.342,111.976 C50.1140039,111.183996 51.0399946,110.566002 52.12,110.122 C53.2000054,109.677998 54.3959934,109.456 55.708,109.456 C56.5880044,109.456 57.4159961,109.557999 58.192,109.762 C58.9680039,109.966001 59.6799968,110.253998 60.328,110.626 C60.9760032,110.998002 61.5579974,111.449997 62.074,111.982 C62.5900026,112.514003 63.0279982,113.107997 63.388,113.764 C63.7480018,114.420003 64.0219991,115.131996 64.21,115.9 C64.3980009,116.668004 64.492,117.475996 64.492,118.324 Z M61.192,118.324 C61.192,117.371995 61.0640013,116.518004 60.808,115.762 C60.5519987,115.005996 60.1880024,114.364003 59.716,113.836 C59.2439976,113.307997 58.6700034,112.904001 57.994,112.624 C57.3179966,112.343999 56.5560042,112.204 55.708,112.204 C54.8599958,112.204 54.0980034,112.343999 53.422,112.624 C52.7459966,112.904001 52.1700024,113.307997 51.694,113.836 C51.2179976,114.364003 50.8520013,115.005996 50.596,115.762 C50.3399987,116.518004 50.212,117.371995 50.212,118.324 C50.212,119.276005 50.3399987,120.129996 50.596,120.886 C50.8520013,121.642004 51.2179976,122.281997 51.694,122.806 C52.1700024,123.330003 52.7459966,123.731999 53.422,124.012 C54.0980034,124.292001 54.8599958,124.432 55.708,124.432 C56.5560042,124.432 57.3179966,124.292001 57.994,124.012 C58.6700034,123.731999 59.2439976,123.330003 59.716,122.806 C60.1880024,122.281997 60.5519987,121.642004 60.808,120.886 C61.0640013,120.129996 61.192,119.276005 61.192,118.324 Z M69.6260312,114.688 L69.6260312,122.512 C69.6260312,123.264004 69.8000295,123.845998 70.1480313,124.258 C70.496033,124.670002 71.0180278,124.876 71.7140313,124.876 C72.2260338,124.876 72.706029,124.762001 73.1540313,124.534 C73.6020335,124.305999 74.0260292,123.992002 74.4260312,123.592 L74.4260312,114.688 L77.3900312,114.688 L77.3900312,127 L75.5780313,127 C75.1860293,127 74.9380318,126.820002 74.8340313,126.46 L74.6300313,125.476 C74.37403,125.732001 74.1100326,125.965999 73.8380313,126.178 C73.5660299,126.390001 73.2740328,126.571999 72.9620312,126.724 C72.6500297,126.876001 72.318033,126.992 71.9660313,127.072 C71.6140295,127.152 71.2300333,127.192 70.8140312,127.192 C70.1420279,127.192 69.5480338,127.078001 69.0320313,126.85 C68.5160287,126.621999 68.082033,126.300002 67.7300312,125.884 C67.3780295,125.467998 67.1120322,124.974003 66.9320312,124.402 C66.7520303,123.829997 66.6620312,123.200003 66.6620312,122.512 L66.6620312,114.688 L69.6260312,114.688 Z M85.6440625,114.496 C86.4200664,114.496 87.1360592,114.619999 87.7920625,114.868 C88.4480658,115.116001 89.0120601,115.477998 89.4840625,115.954 C89.9560649,116.430002 90.3260612,117.013997 90.5940625,117.706 C90.8620638,118.398003 90.9960625,119.187996 90.9960625,120.076 C90.9960625,120.524002 90.948063,120.825999 90.8520625,120.982 C90.756062,121.138001 90.5720639,121.216 90.3000625,121.216 L82.6800625,121.216 C82.7280627,121.848003 82.8400616,122.393998 83.0160625,122.854 C83.1920634,123.314002 83.4240611,123.693998 83.7120625,123.994 C84.0000639,124.294002 84.3420605,124.517999 84.7380625,124.666 C85.1340645,124.814001 85.5720601,124.888 86.0520625,124.888 C86.5320649,124.888 86.9460608,124.832001 87.2940625,124.72 C87.6420642,124.607999 87.9460612,124.484001 88.2060625,124.348 C88.4660638,124.211999 88.6940615,124.088001 88.8900625,123.976 C89.0860635,123.863999 89.2760616,123.808 89.4600625,123.808 C89.7080637,123.808 89.8920619,123.899999 90.0120625,124.084 L90.8640625,125.164 C90.5360609,125.548002 90.1680645,125.869999 89.7600625,126.13 C89.3520605,126.390001 88.9260647,126.597999 88.4820625,126.754 C88.0380603,126.910001 87.5860648,127.02 87.1260625,127.084 C86.6660602,127.148 86.2200647,127.18 85.7880625,127.18 C84.9320582,127.18 84.1360662,127.038001 83.4000625,126.754 C82.6640588,126.469999 82.0240652,126.050003 81.4800625,125.494 C80.9360598,124.937997 80.5080641,124.250004 80.1960625,123.43 C79.8840609,122.609996 79.7280625,121.660005 79.7280625,120.58 C79.7280625,119.739996 79.8640611,118.950004 80.1360625,118.21 C80.4080639,117.469996 80.79806,116.826003 81.3060625,116.278 C81.814065,115.729997 82.4340588,115.296002 83.1660625,114.976 C83.8980662,114.655998 84.7240579,114.496 85.6440625,114.496 Z M85.7040625,116.62 C84.8400582,116.62 84.1640649,116.863998 83.6760625,117.352 C83.1880601,117.840002 82.8760632,118.531996 82.7400625,119.428 L88.3320625,119.428 C88.3320625,119.043998 88.278063,118.682002 88.1700625,118.342 C88.062062,118.001998 87.9000636,117.704001 87.6840625,117.448 C87.4680614,117.191999 87.1940642,116.990001 86.8620625,116.842 C86.5300608,116.693999 86.1440647,116.62 85.7040625,116.62 Z M100.810094,117.088 C100.730093,117.216001 100.646094,117.306 100.558094,117.358 C100.470093,117.41 100.358094,117.436 100.222094,117.436 C100.078093,117.436 99.9240946,117.396 99.7600938,117.316 C99.5960929,117.236 99.4060948,117.146 99.1900937,117.046 C98.9740927,116.945999 98.7280951,116.856 98.4520937,116.776 C98.1760924,116.696 97.8500956,116.656 97.4740938,116.656 C96.8900908,116.656 96.4320954,116.779999 96.1000937,117.028 C95.7680921,117.276001 95.6020937,117.599998 95.6020937,118 C95.6020937,118.264001 95.6880929,118.485999 95.8600938,118.666 C96.0320946,118.846001 96.2600923,119.003999 96.5440938,119.14 C96.8280952,119.276001 97.1500919,119.397999 97.5100938,119.506 C97.8700956,119.614001 98.2360919,119.731999 98.6080937,119.86 C98.9800956,119.988001 99.3460919,120.133999 99.7060938,120.298 C100.066096,120.462001 100.388092,120.669999 100.672094,120.922 C100.956095,121.174001 101.184093,121.475998 101.356094,121.828 C101.528095,122.180002 101.614094,122.603998 101.614094,123.1 C101.614094,123.692003 101.508095,124.237998 101.296094,124.738 C101.084093,125.238002 100.770096,125.669998 100.354094,126.034 C99.9380917,126.398002 99.4240968,126.681999 98.8120938,126.886 C98.2000907,127.090001 97.4940978,127.192 96.6940938,127.192 C96.2700916,127.192 95.8560958,127.154 95.4520937,127.078 C95.0480917,127.002 94.6600956,126.896001 94.2880938,126.76 C93.9160919,126.623999 93.5720953,126.464001 93.2560937,126.28 C92.9400922,126.095999 92.662095,125.896001 92.4220937,125.68 L93.1060937,124.552 C93.1940942,124.415999 93.2980931,124.312 93.4180937,124.24 C93.5380943,124.168 93.6900928,124.132 93.8740937,124.132 C94.0580947,124.132 94.2320929,124.183999 94.3960938,124.288 C94.5600946,124.392001 94.7500927,124.503999 94.9660937,124.624 C95.1820948,124.744001 95.4360923,124.855999 95.7280937,124.96 C96.0200952,125.064001 96.3900915,125.116 96.8380937,125.116 C97.1900955,125.116 97.4920925,125.074 97.7440937,124.99 C97.996095,124.906 98.2040929,124.796001 98.3680937,124.66 C98.5320946,124.523999 98.6520934,124.366001 98.7280937,124.186 C98.8040941,124.005999 98.8420938,123.820001 98.8420938,123.628 C98.8420938,123.339999 98.7560946,123.104001 98.5840937,122.92 C98.4120929,122.735999 98.1840952,122.576001 97.9000937,122.44 C97.6160923,122.303999 97.2920956,122.182001 96.9280937,122.074 C96.5640919,121.965999 96.1920956,121.848001 95.8120938,121.72 C95.4320919,121.591999 95.0600956,121.442001 94.6960937,121.27 C94.3320919,121.097999 94.0080952,120.880001 93.7240938,120.616 C93.4400923,120.351999 93.2120946,120.028002 93.0400938,119.644 C92.8680929,119.259998 92.7820938,118.796003 92.7820938,118.252 C92.7820938,117.747997 92.8820927,117.268002 93.0820937,116.812 C93.2820947,116.355998 93.5760918,115.958002 93.9640937,115.618 C94.3520957,115.277998 94.8360909,115.006001 95.4160937,114.802 C95.9960966,114.597999 96.6660899,114.496 97.4260938,114.496 C98.274098,114.496 99.0460903,114.635999 99.7420938,114.916 C100.438097,115.196001 101.018091,115.563998 101.482094,116.02 L100.810094,117.088 Z M108.032125,127.192 C106.96012,127.192 106.138128,126.890003 105.566125,126.286 C104.994122,125.681997 104.708125,124.848005 104.708125,123.784 L104.708125,116.908 L103.448125,116.908 C103.288124,116.908 103.152126,116.856001 103.040125,116.752 C102.928124,116.647999 102.872125,116.492001 102.872125,116.284 L102.872125,115.108 L104.852125,114.784 L105.476125,111.424 C105.516125,111.263999 105.592124,111.14 105.704125,111.052 C105.816126,110.964 105.960124,110.92 106.136125,110.92 L107.672125,110.92 L107.672125,114.796 L116.348125,114.796 L116.348125,127 L113.384125,127 L113.384125,116.908 L107.672125,116.908 L107.672125,123.58 C107.672125,123.964002 107.766124,124.263999 107.954125,124.48 C108.142126,124.696001 108.400123,124.804 108.728125,124.804 C108.912126,124.804 109.066124,124.782 109.190125,124.738 C109.314126,124.694 109.422125,124.648 109.514125,124.6 C109.606125,124.552 109.688125,124.506 109.760125,124.462 C109.832125,124.418 109.904125,124.396 109.976125,124.396 C110.064125,124.396 110.136125,124.418 110.192125,124.462 C110.248125,124.506 110.308125,124.572 110.372125,124.66 L111.260125,126.1 C110.828123,126.460002 110.332128,126.731999 109.772125,126.916 C109.212122,127.100001 108.632128,127.192 108.032125,127.192 Z M116.864125,111.052 C116.864125,111.308001 116.812126,111.549999 116.708125,111.778 C116.604124,112.006001 116.466126,112.203999 116.294125,112.372 C116.122124,112.540001 115.918126,112.674 115.682125,112.774 C115.446124,112.874 115.196126,112.924 114.932125,112.924 C114.676124,112.924 114.436126,112.874 114.212125,112.774 C113.988124,112.674 113.792126,112.540001 113.624125,112.372 C113.456124,112.203999 113.322125,112.006001 113.222125,111.778 C113.122125,111.549999 113.072125,111.308001 113.072125,111.052 C113.072125,110.787999 113.122125,110.542001 113.222125,110.314 C113.322125,110.085999 113.456124,109.886001 113.624125,109.714 C113.792126,109.541999 113.988124,109.406001 114.212125,109.306 C114.436126,109.205999 114.676124,109.156 114.932125,109.156 C115.196126,109.156 115.446124,109.205999 115.682125,109.306 C115.918126,109.406001 116.122124,109.541999 116.294125,109.714 C116.466126,109.886001 116.604124,110.085999 116.708125,110.314 C116.812126,110.542001 116.864125,110.787999 116.864125,111.052 Z M124.902156,114.496 C125.814161,114.496 126.644153,114.643999 127.392156,114.94 C128.14016,115.236001 128.780154,115.655997 129.312156,116.2 C129.844159,116.744003 130.254155,117.407996 130.542156,118.192 C130.830158,118.976004 130.974156,119.851995 130.974156,120.82 C130.974156,121.796005 130.830158,122.675996 130.542156,123.46 C130.254155,124.244004 129.844159,124.911997 129.312156,125.464 C128.780154,126.016003 128.14016,126.439999 127.392156,126.736 C126.644153,127.032001 125.814161,127.18 124.902156,127.18 C123.982152,127.18 123.14616,127.032001 122.394156,126.736 C121.642152,126.439999 121.000159,126.016003 120.468156,125.464 C119.936154,124.911997 119.524158,124.244004 119.232156,123.46 C118.940155,122.675996 118.794156,121.796005 118.794156,120.82 C118.794156,119.851995 118.940155,118.976004 119.232156,118.192 C119.524158,117.407996 119.936154,116.744003 120.468156,116.2 C121.000159,115.655997 121.642152,115.236001 122.394156,114.94 C123.14616,114.643999 123.982152,114.496 124.902156,114.496 Z M124.902156,124.9 C125.926161,124.9 126.684154,124.556003 127.176156,123.868 C127.668159,123.179997 127.914156,122.172007 127.914156,120.844 C127.914156,119.515993 127.668159,118.504003 127.176156,117.808 C126.684154,117.111997 125.926161,116.764 124.902156,116.764 C123.862151,116.764 123.092159,117.113996 122.592156,117.814 C122.092154,118.514004 121.842156,119.523993 121.842156,120.844 C121.842156,122.164007 122.092154,123.169997 122.592156,123.862 C123.092159,124.554003 123.862151,124.9 124.902156,124.9 Z M133.324187,127 L133.324187,114.688 L135.136188,114.688 C135.520189,114.688 135.772187,114.867998 135.892187,115.228 L136.096187,116.2 C136.344189,115.943999 136.606186,115.712001 136.882187,115.504 C137.158189,115.295999 137.450186,115.116001 137.758187,114.964 C138.066189,114.811999 138.396186,114.696 138.748188,114.616 C139.100189,114.536 139.484185,114.496 139.900188,114.496 C140.572191,114.496 141.168185,114.609999 141.688187,114.838 C142.20819,115.066001 142.642186,115.385998 142.990187,115.798 C143.338189,116.210002 143.602187,116.701997 143.782187,117.274 C143.962188,117.846003 144.052188,118.475997 144.052188,119.164 L144.052188,127 L141.088188,127 L141.088188,119.164 C141.088188,118.411996 140.916189,117.830002 140.572187,117.418 C140.228186,117.005998 139.704191,116.8 139.000187,116.8 C138.488185,116.8 138.00819,116.915999 137.560187,117.148 C137.112185,117.380001 136.688189,117.695998 136.288187,118.096 L136.288187,127 L133.324187,127 Z M158.52025,109.456 C159.320254,109.456 160.052247,109.573999 160.71625,109.81 C161.380253,110.046001 161.948248,110.379998 162.42025,110.812 C162.892252,111.244002 163.260249,111.763997 163.52425,112.372 C163.788251,112.980003 163.92025,113.655996 163.92025,114.4 C163.92025,115.040003 163.826251,115.631997 163.63825,116.176 C163.450249,116.720003 163.198252,117.239998 162.88225,117.736 C162.566248,118.232002 162.196252,118.711998 161.77225,119.176 C161.348248,119.640002 160.904252,120.111998 160.44025,120.592 L156.51625,124.588 C156.900252,124.475999 157.278248,124.39 157.65025,124.33 C158.022252,124.27 158.376248,124.24 158.71225,124.24 L163.16425,124.24 C163.484252,124.24 163.738249,124.329999 163.92625,124.51 C164.114251,124.690001 164.20825,124.927999 164.20825,125.224 L164.20825,127 L152.30425,127 L152.30425,126.016 C152.30425,125.815999 152.34625,125.606001 152.43025,125.386 C152.51425,125.165999 152.648249,124.968001 152.83225,124.792 L158.10025,119.512 C158.540252,119.063998 158.934248,118.636002 159.28225,118.228 C159.630252,117.819998 159.920249,117.416002 160.15225,117.016 C160.384251,116.615998 160.562249,116.210002 160.68625,115.798 C160.810251,115.385998 160.87225,114.952002 160.87225,114.496 C160.87225,114.079998 160.812251,113.714002 160.69225,113.398 C160.572249,113.081998 160.402251,112.816001 160.18225,112.6 C159.962249,112.383999 159.698252,112.222001 159.39025,112.114 C159.082248,112.005999 158.736252,111.952 158.35225,111.952 C158.000248,111.952 157.674252,112.001999 157.37425,112.102 C157.074249,112.202 156.808251,112.341999 156.57625,112.522 C156.344249,112.702001 156.148251,112.911999 155.98825,113.152 C155.828249,113.392001 155.70825,113.655999 155.62825,113.944 C155.492249,114.312002 155.316251,114.555999 155.10025,114.676 C154.884249,114.796001 154.572252,114.824 154.16425,114.76 L152.60425,114.484 C152.724251,113.651996 152.956248,112.922003 153.30025,112.294 C153.644252,111.665997 154.074247,111.142002 154.59025,110.722 C155.106253,110.301998 155.698247,109.986001 156.36625,109.774 C157.034253,109.561999 157.752246,109.456 158.52025,109.456 Z" id="Question-2" fill="#C0EBFC"></path>
        </g>
    </g>
</svg>