<?xml version="1.0" encoding="UTF-8"?>
<svg width="279px" height="325px" viewBox="0 0 279 325" version="1.1" xmlns="http://www.w3.org/2000/svg" xmlns:xlink="http://www.w3.org/1999/xlink">
    <!-- Generator: Sketch 48.2 (47327) - http://www.bohemiancoding.com/sketch -->
    <title>Step 3@2x</title>
    <desc>Created with Sketch.</desc>
    <defs>
        <rect id="path-1" x="0.797342767" y="0.647993244" width="258.01148" height="308.009636" rx="10"></rect>
    </defs>
    <g id="HCD27" stroke="none" stroke-width="1" fill="none" fill-rule="evenodd" transform="translate(-342.000000, -2424.000000)">
        <g id="Step-3" transform="translate(481.000000, 2586.000000) rotate(-4.000000) translate(-481.000000, -2586.000000) translate(351.000000, 2431.000000)">
            <g id="Step-2" transform="translate(0.493681, 0.688548)">
                <g id="Rectangle-18" transform="translate(129.803083, 154.652811) rotate(-360.000000) translate(-129.803083, -154.652811) ">
                    <use fill="#F4FCFF" fill-rule="evenodd" xlink:href="#path-1"></use>
                    <rect stroke="#C0EBFC" stroke-width="1.5" x="1.54734277" y="1.39799324" width="256.51148" height="306.509636" rx="10"></rect>
                </g>
                <rect id="Rectangle-3" fill="#54D0FF" x="30.5678981" y="226.175107" width="198.470369" height="49.6789735" rx="6"></rect>
                <path d="M108.184139,244.843324 C108.088506,245.010785 107.986898,245.132391 107.879311,245.208147 C107.771724,245.283903 107.638239,245.321781 107.478851,245.321781 C107.311494,245.321781 107.130193,245.259981 106.934943,245.136379 C106.739693,245.012777 106.506592,244.875222 106.235633,244.72371 C105.964674,244.572198 105.647895,244.434643 105.285288,244.311041 C104.922681,244.187439 104.494333,244.125639 104.000231,244.125639 C103.553945,244.125639 103.163451,244.179465 102.828736,244.287118 C102.494022,244.394772 102.213105,244.544288 101.985978,244.735671 C101.75885,244.927055 101.589503,245.156313 101.477932,245.423453 C101.36636,245.690592 101.310575,245.983644 101.310575,246.302617 C101.310575,246.709307 101.424137,247.04821 101.651265,247.319337 C101.878393,247.590464 102.179233,247.821715 102.553794,248.013099 C102.928355,248.204483 103.354711,248.375928 103.832874,248.52744 C104.311038,248.678952 104.801148,248.840429 105.303219,249.011877 C105.805291,249.183325 106.295401,249.38268 106.773564,249.609948 C107.251727,249.837216 107.678083,250.124287 108.052644,250.47117 C108.427206,250.818053 108.728045,251.242679 108.955173,251.74506 C109.182301,252.247442 109.295863,252.857468 109.295863,253.575157 C109.295863,254.35664 109.162377,255.088272 108.895403,255.770077 C108.628428,256.451881 108.237934,257.045958 107.723909,257.552327 C107.209883,258.058696 106.582303,258.457406 105.84115,258.748469 C105.099997,259.039531 104.25127,259.18506 103.294943,259.18506 C102.745055,259.18506 102.203145,259.131235 101.669196,259.023581 C101.135247,258.915928 100.623221,258.762425 100.133104,258.563067 C99.6429867,258.363709 99.1827614,258.124483 98.7524144,257.845382 C98.3220675,257.566281 97.9395426,257.255287 97.6048282,256.912392 L98.5491961,255.369369 C98.6288899,255.257729 98.7324904,255.164032 98.8600007,255.088276 C98.9875109,255.01252 99.1229884,254.974642 99.2664374,254.974642 C99.4656722,254.974642 99.6808424,255.056378 99.9119547,255.219851 C100.143067,255.383325 100.418007,255.564738 100.736782,255.764096 C101.055558,255.963454 101.428121,256.144867 101.854483,256.30834 C102.280846,256.471814 102.792871,256.553549 103.390575,256.553549 C104.307055,256.553549 105.01632,256.336252 105.518391,255.901652 C106.020463,255.467052 106.271495,254.843071 106.271495,254.029691 C106.271495,253.575155 106.157933,253.204355 105.930805,252.917279 C105.703678,252.630204 105.402838,252.388984 105.028277,252.193614 C104.653715,251.998243 104.227359,251.832778 103.749196,251.697215 C103.271033,251.561651 102.784907,251.414129 102.290805,251.254642 C101.796703,251.095156 101.310578,250.903775 100.832414,250.680495 C100.354251,250.457214 99.9278952,250.166156 99.553334,249.807311 C99.1787727,249.448467 98.8779328,248.999918 98.6508053,248.461652 C98.4236777,247.923386 98.3101156,247.259534 98.3101156,246.470077 C98.3101156,245.840106 98.4356316,245.226092 98.6866673,244.628019 C98.9377031,244.029945 99.3022971,243.499661 99.7804604,243.03715 C100.258624,242.57464 100.84835,242.20384 101.549656,241.924739 C102.250962,241.645638 103.055858,241.506089 103.964368,241.506089 C104.98445,241.506089 105.924824,241.665573 106.785518,241.984546 C107.646212,242.303519 108.379385,242.750074 108.985058,243.324224 L108.184139,244.843324 Z M116.932522,246.529884 C117.705553,246.529884 118.418802,246.653484 119.072292,246.900687 C119.725782,247.147891 120.287616,247.508724 120.75781,247.983196 C121.228003,248.457667 121.596582,249.039784 121.863557,249.729562 C122.130531,250.41934 122.264016,251.206792 122.264016,252.091941 C122.264016,252.538503 122.216201,252.839529 122.120568,252.995028 C122.024936,253.150527 121.841642,253.228276 121.570683,253.228276 L113.979879,253.228276 C114.027695,253.858247 114.139265,254.402486 114.314591,254.861009 C114.489918,255.319532 114.721027,255.698307 115.007925,255.997343 C115.294822,256.29638 115.635509,256.519658 116.029993,256.667183 C116.424478,256.814708 116.860796,256.888469 117.338959,256.888469 C117.817122,256.888469 118.229532,256.832649 118.5762,256.721009 C118.922869,256.609369 119.225701,256.485769 119.484706,256.350205 C119.743711,256.214642 119.970835,256.091042 120.166085,255.979401 C120.361335,255.867761 120.550606,255.811941 120.733902,255.811941 C120.980953,255.811941 121.164246,255.903645 121.283787,256.087054 L122.132522,257.163581 C121.805777,257.546349 121.439191,257.86731 121.032752,258.126475 C120.626313,258.385641 120.20195,258.59297 119.759649,258.748469 C119.317348,258.903968 118.867084,259.013613 118.408844,259.077408 C117.950604,259.141202 117.506317,259.173099 117.07597,259.173099 C116.223246,259.173099 115.430304,259.031557 114.69712,258.748469 C113.963936,258.465381 113.326395,258.046735 112.784476,257.49252 C112.242558,256.938305 111.816202,256.252524 111.505396,255.435157 C111.19459,254.617789 111.039189,253.670854 111.039189,252.594321 C111.039189,251.757018 111.174666,250.969566 111.445626,250.231941 C111.716585,249.494317 112.105087,248.852394 112.611143,248.306154 C113.117199,247.759913 113.734817,247.327313 114.464016,247.00834 C115.193216,246.689368 116.016043,246.529884 116.932522,246.529884 Z M116.992292,248.647054 C116.131598,248.647054 115.458195,248.890267 114.972062,249.3767 C114.48593,249.863134 114.175128,250.552902 114.039649,251.446025 L119.610223,251.446025 C119.610223,251.063258 119.556431,250.702425 119.448844,250.363517 C119.341257,250.024609 119.17988,249.72757 118.964706,249.472392 C118.749533,249.217214 118.476585,249.015865 118.145856,248.86834 C117.815126,248.720815 117.430609,248.647054 116.992292,248.647054 Z M127.545733,241.219015 L127.545733,258.993678 L124.59309,258.993678 L124.59309,241.219015 L127.545733,241.219015 Z M135.804002,246.529884 C136.577033,246.529884 137.290282,246.653484 137.943772,246.900687 C138.597262,247.147891 139.159096,247.508724 139.629289,247.983196 C140.099483,248.457667 140.468062,249.039784 140.735037,249.729562 C141.002011,250.41934 141.135496,251.206792 141.135496,252.091941 C141.135496,252.538503 141.087681,252.839529 140.992048,252.995028 C140.896415,253.150527 140.713122,253.228276 140.442163,253.228276 L132.851358,253.228276 C132.899175,253.858247 133.010745,254.402486 133.186071,254.861009 C133.361398,255.319532 133.592506,255.698307 133.879404,255.997343 C134.166302,256.29638 134.506989,256.519658 134.901473,256.667183 C135.295958,256.814708 135.732276,256.888469 136.210439,256.888469 C136.688602,256.888469 137.101012,256.832649 137.44768,256.721009 C137.794349,256.609369 138.097181,256.485769 138.356186,256.350205 C138.615191,256.214642 138.842315,256.091042 139.037565,255.979401 C139.232815,255.867761 139.422085,255.811941 139.605381,255.811941 C139.852432,255.811941 140.035726,255.903645 140.155266,256.087054 L141.004002,257.163581 C140.677257,257.546349 140.310671,257.86731 139.904232,258.126475 C139.497793,258.385641 139.07343,258.59297 138.631129,258.748469 C138.188827,258.903968 137.738564,259.013613 137.280324,259.077408 C136.822084,259.141202 136.377797,259.173099 135.94745,259.173099 C135.094726,259.173099 134.301784,259.031557 133.5686,258.748469 C132.835416,258.465381 132.197875,258.046735 131.655956,257.49252 C131.114038,256.938305 130.687682,256.252524 130.376876,255.435157 C130.06607,254.617789 129.910669,253.670854 129.910669,252.594321 C129.910669,251.757018 130.046146,250.969566 130.317106,250.231941 C130.588065,249.494317 130.976567,248.852394 131.482623,248.306154 C131.988679,247.759913 132.606297,247.327313 133.335496,247.00834 C134.064695,246.689368 134.887522,246.529884 135.804002,246.529884 Z M135.863772,248.647054 C135.003078,248.647054 134.329675,248.890267 133.843542,249.3767 C133.35741,249.863134 133.046608,250.552902 132.911129,251.446025 L138.481703,251.446025 C138.481703,251.063258 138.427911,250.702425 138.320324,250.363517 C138.212737,250.024609 138.051359,249.72757 137.836186,249.472392 C137.621013,249.217214 137.348065,249.015865 137.017335,248.86834 C136.686606,248.720815 136.302089,248.647054 135.863772,248.647054 Z M152.214914,249.316893 C152.127251,249.428534 152.041582,249.51625 151.957903,249.580044 C151.874224,249.643839 151.752693,249.675736 151.593305,249.675736 C151.441887,249.675736 151.294455,249.629884 151.151006,249.538179 C151.007557,249.446475 150.836218,249.34281 150.636983,249.227183 C150.437749,249.111555 150.200663,249.007891 149.925719,248.916186 C149.650775,248.824481 149.310089,248.77863 148.90365,248.77863 C148.38564,248.77863 147.931391,248.872326 147.540891,249.059723 C147.150391,249.247119 146.825644,249.516248 146.566639,249.867118 C146.307633,250.217988 146.114379,250.642614 145.986868,251.141009 C145.859358,251.639404 145.795604,252.203578 145.795604,252.833549 C145.795604,253.487443 145.865335,254.06956 146.0048,254.579916 C146.144264,255.090272 146.345488,255.518885 146.608478,255.865768 C146.871467,256.212651 147.190238,256.475799 147.5648,256.655221 C147.939361,256.834643 148.361732,256.924353 148.831926,256.924353 C149.30212,256.924353 149.682652,256.86654 149.973535,256.750913 C150.264418,256.635285 150.509473,256.507698 150.708708,256.368147 C150.907942,256.228597 151.081274,256.10101 151.228708,255.985382 C151.376141,255.869754 151.541504,255.811941 151.7248,255.811941 C151.963881,255.811941 152.14319,255.903645 152.262731,256.087054 L153.111466,257.163581 C152.784721,257.546349 152.430089,257.86731 152.047558,258.126475 C151.665027,258.385641 151.268556,258.59297 150.858133,258.748469 C150.447709,258.903968 150.025338,259.013613 149.591006,259.077408 C149.156675,259.141202 148.724342,259.173099 148.293995,259.173099 C147.536903,259.173099 146.823653,259.031557 146.154225,258.748469 C145.484796,258.465381 144.899055,258.052716 144.396983,257.510462 C143.894912,256.968209 143.498441,256.304357 143.207558,255.518887 C142.916675,254.733417 142.771236,253.838313 142.771236,252.833549 C142.771236,251.932451 142.900737,251.097154 143.159742,250.327633 C143.418747,249.558111 143.79928,248.892266 144.301351,248.330077 C144.803423,247.767887 145.425026,247.327313 146.166179,247.00834 C146.907332,246.689368 147.760044,246.529884 148.72434,246.529884 C149.640819,246.529884 150.443723,246.677406 151.133075,246.972456 C151.822427,247.267506 152.442038,247.690138 152.991926,248.240366 L152.214914,249.316893 Z M159.122379,259.18506 C158.05448,259.18506 157.235638,258.884035 156.665827,258.281974 C156.096016,257.679913 155.811114,256.848603 155.811114,255.788019 L155.811114,248.934128 L154.555942,248.934128 C154.396554,248.934128 154.261076,248.882296 154.149505,248.77863 C154.037934,248.674963 153.982149,248.519467 153.982149,248.312134 L153.982149,247.139916 L155.954562,246.816958 L156.576172,243.467761 C156.616019,243.308275 156.691727,243.184675 156.803298,243.096958 C156.91487,243.00924 157.058316,242.965382 157.233643,242.965382 L158.763758,242.965382 L158.763758,246.828919 L162.03916,246.828919 L162.03916,248.934128 L158.763758,248.934128 L158.763758,255.584675 C158.763758,255.967442 158.857397,256.266474 159.044677,256.481781 C159.231958,256.697087 159.488967,256.804739 159.815712,256.804739 C159.999008,256.804739 160.152416,256.78281 160.275942,256.738951 C160.399467,256.695092 160.507052,256.649241 160.5987,256.601395 C160.690348,256.553549 160.772033,256.507697 160.843758,256.463839 C160.915482,256.41998 160.987206,256.398051 161.05893,256.398051 C161.146594,256.398051 161.218317,256.41998 161.274103,256.463839 C161.329888,256.507697 161.389658,256.573484 161.453413,256.661202 L162.338011,258.096572 C161.907664,258.455416 161.413569,258.726539 160.855712,258.909948 C160.297855,259.093357 159.720083,259.18506 159.122379,259.18506 Z" id="Select" fill="#FFFFFF"></path>
                <path d="M42.6559387,60.0223794 C41.2094947,59.8908032 39.8915768,59.5349547 38.7021456,58.9548232 C37.5127144,58.3746916 36.4876671,57.6360817 35.6269732,56.7389711 L36.595249,55.267717 C36.6908817,55.1361408 36.8104207,55.0284892 36.9538697,54.9447588 C37.0973187,54.8610285 37.2527195,54.819164 37.4200766,54.819164 C37.6472042,54.819164 37.9042131,54.9327963 38.1911111,55.1600643 C38.4780091,55.3873323 38.8306492,55.6474905 39.2490421,55.9405466 C39.667435,56.2336028 40.1665105,56.5176835 40.7462835,56.7927974 C41.3260565,57.0679113 42.0223714,57.2533114 42.835249,57.3490032 L43.4986973,47.8217363 C42.6619115,47.5705454 41.8400807,47.2864646 41.0331801,46.9694855 C40.2262795,46.6525065 39.5030683,46.2398418 38.8635249,45.7314791 C38.2239815,45.2231164 37.7099636,44.5831871 37.3214559,43.811672 C36.9329482,43.0401569 36.7386973,42.0742823 36.7386973,40.9140193 C36.7386973,40.0408316 36.9090404,39.1885894 37.2497318,38.3572669 C37.5904232,37.5259444 38.0894986,36.7873344 38.7469732,36.1414148 C39.4044477,35.4954952 40.2113362,34.9662079 41.1676628,34.553537 C42.1239895,34.1408661 43.2177716,33.9106112 44.4490421,33.8627653 L44.6283525,31.2790997 C44.6403066,31.0518317 44.7269724,30.8484896 44.8883525,30.6690675 C45.0497326,30.4896454 45.2619144,30.3999357 45.5249042,30.3999357 L46.7083525,30.3999357 L46.457318,33.9524759 C47.7124967,34.1079751 48.7973134,34.43093 49.7118008,34.9213505 C50.6262881,35.4117709 51.4361651,36.0038551 52.1414559,36.6976206 L51.3704215,37.8818006 C51.1313398,38.2406449 50.8564,38.4200643 50.5455939,38.4200643 C50.3782367,38.4200643 50.1720319,38.3453062 49.9269732,38.1957878 C49.6819145,38.0462693 49.3890438,37.8728306 49.0483525,37.6754662 C48.7076611,37.4781019 48.3072054,37.2807405 47.8469732,37.0833762 C47.386741,36.8860119 46.8637577,36.7454667 46.2780077,36.6617363 L45.6862835,45.3457235 C46.5469775,45.6088759 47.3957046,45.895947 48.2324904,46.2069453 C49.0692762,46.5179437 49.8223721,46.9186471 50.4918008,47.4090675 C51.1612294,47.899488 51.7021435,48.5125044 52.1145594,49.248135 C52.5269752,49.9837657 52.7331801,50.9017951 52.7331801,52.0022508 C52.7331801,53.0787835 52.5538715,54.089513 52.195249,55.0344695 C51.8366266,55.9794259 51.3136433,56.810736 50.6262835,57.5284244 C49.9389238,58.2461129 49.0961736,58.8292261 48.0980077,59.2777814 C47.0998418,59.7263366 45.9612324,59.9864948 44.6821456,60.0582637 L44.4669732,63.2160772 C44.4550191,63.4433452 44.3653648,63.6436969 44.1980077,63.8171383 C44.0306505,63.9905796 43.8214572,64.077299 43.5704215,64.077299 L42.3869732,64.077299 L42.6559387,60.0223794 Z M49.7028352,52.5046302 C49.7028352,51.9065565 49.5922616,51.3922208 49.3711111,50.9616077 C49.1499606,50.5309946 48.8481245,50.1601945 48.4655939,49.8491961 C48.0830632,49.5381978 47.6347918,49.2690687 47.1207663,49.0418006 C46.6067407,48.8145326 46.0568612,48.60521 45.4711111,48.4138264 L44.8614559,57.3490032 C45.6504254,57.2772344 46.3437518,57.1067859 46.9414559,56.8376527 C47.5391601,56.5685196 48.0442125,56.2246323 48.4566284,55.8059807 C48.8690442,55.3873291 49.1798457,54.8999063 49.3890421,54.3436977 C49.5982386,53.7874892 49.7028352,53.1744728 49.7028352,52.5046302 Z M39.7511111,40.5910611 C39.7511111,41.1652119 39.8527193,41.6645959 40.0559387,42.0892283 C40.2591581,42.5138606 40.5400748,42.8876511 40.8986973,43.2106109 C41.2573198,43.5335707 41.6757064,43.8146612 42.1538697,44.0538907 C42.632033,44.2931202 43.1520278,44.5084235 43.7138697,44.6998071 L44.2518008,36.60791 C43.4747854,36.6796788 42.8023783,36.8351757 42.2345594,37.0744051 C41.6667405,37.3136346 41.2005382,37.612667 40.8359387,37.9715113 C40.4713392,38.3303555 40.1993879,38.7340492 40.0200766,39.1826045 C39.8407654,39.6311598 39.7511111,40.1006406 39.7511111,40.5910611 Z" id="$" fill="#54D0FF"></path>
                <path d="M39.667433,129.797299 C38.2209889,129.665723 36.9030711,129.309874 35.7136398,128.729743 C34.5242086,128.149611 33.4991614,127.411001 32.6384674,126.513891 L33.6067433,125.042637 C33.702376,124.91106 33.821915,124.803409 33.965364,124.719678 C34.108813,124.635948 34.2642137,124.594084 34.4315709,124.594084 C34.6586985,124.594084 34.9157074,124.707716 35.2026054,124.934984 C35.4895034,125.162252 35.8421435,125.42241 36.2605364,125.715466 C36.6789293,126.008522 37.1780048,126.292603 37.7577778,126.567717 C38.3375508,126.842831 39.0338657,127.028231 39.8467433,127.123923 L40.5101916,117.596656 C39.6734058,117.345465 38.8515749,117.061384 38.0446743,116.744405 C37.2377737,116.427426 36.5145626,116.014761 35.8750192,115.506399 C35.2354757,114.998036 34.7214579,114.358107 34.3329502,113.586592 C33.9444425,112.815077 33.7501916,111.849202 33.7501916,110.688939 C33.7501916,109.815751 33.9205347,108.963509 34.2612261,108.132186 C34.6019174,107.300864 35.1009929,106.562254 35.7584674,105.916334 C36.415942,105.270415 37.2228305,104.741127 38.1791571,104.328457 C39.1354837,103.915786 40.2292659,103.685531 41.4605364,103.637685 L41.6398467,101.054019 C41.6518008,100.826751 41.7384666,100.623409 41.8998467,100.443987 C42.0612269,100.264565 42.2734086,100.174855 42.5363985,100.174855 L43.7198467,100.174855 L43.4688123,103.727395 C44.723991,103.882895 45.8088077,104.20585 46.723295,104.69627 C47.6377824,105.186691 48.4476593,105.778775 49.1529502,106.47254 L48.3819157,107.65672 C48.1428341,108.015564 47.8678943,108.194984 47.5570881,108.194984 C47.389731,108.194984 47.1835261,108.120226 46.9384674,107.970707 C46.6934087,107.821189 46.4005381,107.64775 46.0598467,107.450386 C45.7191554,107.253022 45.3186996,107.05566 44.8584674,106.858296 C44.3982352,106.660931 43.875252,106.520386 43.2895019,106.436656 L42.6977778,115.120643 C43.5584717,115.383796 44.4071989,115.670867 45.2439847,115.981865 C46.0807705,116.292863 46.8338664,116.693567 47.503295,117.183987 C48.1727237,117.674408 48.7136378,118.287424 49.1260536,119.023055 C49.5384695,119.758685 49.7446743,120.676715 49.7446743,121.77717 C49.7446743,122.853703 49.5653658,123.864433 49.2067433,124.809389 C48.8481208,125.754346 48.3251375,126.585656 47.6377778,127.303344 C46.950418,128.021033 46.1076678,128.604146 45.1095019,129.052701 C44.111336,129.501256 42.9727267,129.761414 41.6936398,129.833183 L41.4784674,132.990997 C41.4665134,133.218265 41.3768591,133.418616 41.2095019,133.592058 C41.0421448,133.765499 40.8329514,133.852219 40.5819157,133.852219 L39.3984674,133.852219 L39.667433,129.797299 Z M46.7143295,122.27955 C46.7143295,121.681476 46.6037559,121.16714 46.3826054,120.736527 C46.1614548,120.305914 45.8596188,119.935114 45.4770881,119.624116 C45.0945575,119.313117 44.6462861,119.043988 44.1322605,118.81672 C43.618235,118.589452 43.0683554,118.38013 42.4826054,118.188746 L41.8729502,127.123923 C42.6619197,127.052154 43.3552461,126.881706 43.9529502,126.612572 C44.5506543,126.343439 45.0557068,125.999552 45.4681226,125.5809 C45.8805385,125.162249 46.19134,124.674826 46.4005364,124.118617 C46.6097328,123.562409 46.7143295,122.949392 46.7143295,122.27955 Z M36.7626054,110.365981 C36.7626054,110.940131 36.8642135,111.439516 37.067433,111.864148 C37.2706524,112.28878 37.5515691,112.662571 37.9101916,112.985531 C38.2688141,113.30849 38.6872007,113.589581 39.165364,113.82881 C39.6435273,114.06804 40.1635221,114.283343 40.725364,114.474727 L41.263295,106.38283 C40.4862796,106.454598 39.8138726,106.610095 39.2460536,106.849325 C38.6782347,107.088554 38.2120325,107.387587 37.847433,107.746431 C37.4828334,108.105275 37.2108821,108.508969 37.0315709,108.957524 C36.8522596,109.406079 36.7626054,109.87556 36.7626054,110.365981 Z" id="$" fill="#54D0FF"></path>
                <path d="M39.667433,195.58508 C38.2209889,195.453504 36.9030711,195.097656 35.7136398,194.517524 C34.5242086,193.937393 33.4991614,193.198783 32.6384674,192.301672 L33.6067433,190.830418 C33.702376,190.698842 33.821915,190.59119 33.965364,190.50746 C34.108813,190.423729 34.2642137,190.381865 34.4315709,190.381865 C34.6586985,190.381865 34.9157074,190.495497 35.2026054,190.722765 C35.4895034,190.950033 35.8421435,191.210191 36.2605364,191.503248 C36.6789293,191.796304 37.1780048,192.080384 37.7577778,192.355498 C38.3375508,192.630612 39.0338657,192.816012 39.8467433,192.911704 L40.5101916,183.384437 C39.6734058,183.133246 38.8515749,182.849166 38.0446743,182.532186 C37.2377737,182.215207 36.5145626,181.802543 35.8750192,181.29418 C35.2354757,180.785817 34.7214579,180.145888 34.3329502,179.374373 C33.9444425,178.602858 33.7501916,177.636983 33.7501916,176.47672 C33.7501916,175.603533 33.9205347,174.75129 34.2612261,173.919968 C34.6019174,173.088645 35.1009929,172.350035 35.7584674,171.704116 C36.415942,171.058196 37.2228305,170.528909 38.1791571,170.116238 C39.1354837,169.703567 40.2292659,169.473312 41.4605364,169.425466 L41.6398467,166.841801 C41.6518008,166.614533 41.7384666,166.411191 41.8998467,166.231768 C42.0612269,166.052346 42.2734086,165.962637 42.5363985,165.962637 L43.7198467,165.962637 L43.4688123,169.515177 C44.723991,169.670676 45.8088077,169.993631 46.723295,170.484051 C47.6377824,170.974472 48.4476593,171.566556 49.1529502,172.260322 L48.3819157,173.444502 C48.1428341,173.803346 47.8678943,173.982765 47.5570881,173.982765 C47.389731,173.982765 47.1835261,173.908007 46.9384674,173.758489 C46.6934087,173.60897 46.4005381,173.435532 46.0598467,173.238167 C45.7191554,173.040803 45.3186996,172.843442 44.8584674,172.646077 C44.3982352,172.448713 43.875252,172.308168 43.2895019,172.224437 L42.6977778,180.908424 C43.5584717,181.171577 44.4071989,181.458648 45.2439847,181.769646 C46.0807705,182.080645 46.8338664,182.481348 47.503295,182.971768 C48.1727237,183.462189 48.7136378,184.075205 49.1260536,184.810836 C49.5384695,185.546467 49.7446743,186.464496 49.7446743,187.564952 C49.7446743,188.641484 49.5653658,189.652214 49.2067433,190.59717 C48.8481208,191.542127 48.3251375,192.373437 47.6377778,193.091125 C46.950418,193.808814 46.1076678,194.391927 45.1095019,194.840482 C44.111336,195.289038 42.9727267,195.549196 41.6936398,195.620965 L41.4784674,198.778778 C41.4665134,199.006046 41.3768591,199.206398 41.2095019,199.379839 C41.0421448,199.553281 40.8329514,199.64 40.5819157,199.64 L39.3984674,199.64 L39.667433,195.58508 Z M46.7143295,188.067331 C46.7143295,187.469257 46.6037559,186.954922 46.3826054,186.524309 C46.1614548,186.093696 45.8596188,185.722895 45.4770881,185.411897 C45.0945575,185.100899 44.6462861,184.83177 44.1322605,184.604502 C43.618235,184.377234 43.0683554,184.167911 42.4826054,183.976527 L41.8729502,192.911704 C42.6619197,192.839935 43.3552461,192.669487 43.9529502,192.400354 C44.5506543,192.131221 45.0557068,191.787333 45.4681226,191.368682 C45.8805385,190.95003 46.19134,190.462607 46.4005364,189.906399 C46.6097328,189.35019 46.7143295,188.737174 46.7143295,188.067331 Z M36.7626054,176.153762 C36.7626054,176.727913 36.8642135,177.227297 37.067433,177.651929 C37.2706524,178.076562 37.5515691,178.450352 37.9101916,178.773312 C38.2688141,179.096272 38.6872007,179.377362 39.165364,179.616592 C39.6435273,179.855821 40.1635221,180.071124 40.725364,180.262508 L41.263295,172.170611 C40.4862796,172.24238 39.8138726,172.397877 39.2460536,172.637106 C38.6782347,172.876336 38.2120325,173.175368 37.847433,173.534212 C37.4828334,173.893056 37.2108821,174.29675 37.0315709,174.745305 C36.8522596,175.193861 36.7626054,175.663342 36.7626054,176.153762 Z" id="$" fill="#54D0FF"></path>
            </g>
            <path d="M31.3793103,82.2347267 L228.62069,82.2347267" id="Line-2" stroke="#C0EBFC" stroke-width="1.5" stroke-linecap="square"></path>
            <path d="M31.3793103,151.012862 L228.62069,151.012862" id="Line-2" stroke="#C0EBFC" stroke-width="1.5" stroke-linecap="square"></path>
            <path d="M173.360759,52.3770553 C173.360759,53.339954 173.208346,54.2161188 172.903517,55.0055762 C172.598688,55.7950335 172.168348,56.4708467 171.612483,57.033036 C171.056618,57.5952253 170.390188,58.0303174 169.613172,58.3383254 C168.836157,58.6463333 167.975476,58.800335 167.031104,58.800335 L162.225586,58.800335 L162.225586,45.9448045 L167.031104,45.9448045 C167.975476,45.9448045 168.836157,46.0988061 169.613172,46.4068141 C170.390188,46.7148221 171.056618,47.1514094 171.612483,47.716589 C172.168348,48.2817687 172.598688,48.959077 172.903517,49.7485344 C173.208346,50.5379917 173.360759,51.4141566 173.360759,52.3770553 Z M171.576621,52.3770553 C171.576621,51.5875979 171.469036,50.8818815 171.253862,50.2598848 C171.038689,49.6378882 170.733864,49.1115912 170.339379,48.6809781 C169.944895,48.250365 169.466739,47.9214294 168.904897,47.6941614 C168.343055,47.4668934 167.718463,47.3532611 167.031104,47.3532611 L163.973862,47.3532611 L163.973862,57.3918784 L167.031104,57.3918784 C167.718463,57.3918784 168.343055,57.2782461 168.904897,57.0509781 C169.466739,56.8237101 169.944895,56.4962696 170.339379,56.0686469 C170.733864,55.6410242 171.038689,55.1162224 171.253862,54.4942257 C171.469036,53.872229 171.576621,53.1665126 171.576621,52.3770553 Z M179.152483,49.5691131 C179.815934,49.5691131 180.415124,49.6797551 180.950069,49.9010424 C181.485014,50.1223297 181.939263,50.4363137 182.312828,50.8430038 C182.686393,51.249694 182.973286,51.7416022 183.173517,52.3187434 C183.373748,52.8958845 183.473862,53.5402993 183.473862,54.252007 C183.473862,54.9696955 183.373748,55.6156054 183.173517,56.1897562 C182.973286,56.763907 182.686393,57.2543201 182.312828,57.6610102 C181.939263,58.0677004 181.485014,58.3801892 180.950069,58.5984861 C180.415124,58.816783 179.815934,58.9259299 179.152483,58.9259299 C178.489031,58.9259299 177.889842,58.816783 177.354897,58.5984861 C176.819951,58.3801892 176.364209,58.0677004 175.987655,57.6610102 C175.611102,57.2543201 175.321219,56.763907 175.118,56.1897562 C174.914781,55.6156054 174.813172,54.9696955 174.813172,54.252007 C174.813172,53.5402993 174.914781,52.8958845 175.118,52.3187434 C175.321219,51.7416022 175.611102,51.249694 175.987655,50.8430038 C176.364209,50.4363137 176.819951,50.1223297 177.354897,49.9010424 C177.889842,49.6797551 178.489031,49.5691131 179.152483,49.5691131 Z M179.152483,57.6789524 C180.049039,57.6789524 180.718458,57.3784248 181.160759,56.7773607 C181.60306,56.1762966 181.824207,55.3375108 181.824207,54.2609781 C181.824207,53.1784646 181.60306,52.3351933 181.160759,51.7311389 C180.718458,51.1270844 180.049039,50.8250617 179.152483,50.8250617 C178.698228,50.8250617 178.303749,50.9028101 177.969035,51.0583093 C177.63432,51.2138085 177.354898,51.4380827 177.130759,51.7311389 C176.90662,52.024195 176.739265,52.384529 176.62869,52.8121517 C176.518114,53.2397744 176.462828,53.7227117 176.462828,54.2609781 C176.462828,54.7992445 176.518114,55.2806866 176.62869,55.7053189 C176.739265,56.1299513 176.90662,56.487295 177.130759,56.7773607 C177.354898,57.0674265 177.63432,57.2902056 177.969035,57.4457048 C178.303749,57.601204 178.698228,57.6789524 179.152483,57.6789524 Z M191.641448,51.3274411 C191.593632,51.3932292 191.545816,51.4440647 191.498,51.4799492 C191.450184,51.5158336 191.381449,51.5337755 191.291793,51.5337755 C191.202138,51.5337755 191.105012,51.4963965 191.000414,51.4216373 C190.895816,51.346878 190.762828,51.2646441 190.601448,51.1749331 C190.440068,51.085222 190.244323,51.0029881 190.014207,50.9282289 C189.784091,50.8534697 189.50168,50.8160906 189.166966,50.8160906 C188.724665,50.8160906 188.333174,50.8953342 187.992483,51.0538238 C187.651791,51.2123133 187.366392,51.4410731 187.136276,51.7401099 C186.90616,52.0391468 186.732828,52.400976 186.616276,52.8256083 C186.499724,53.2502407 186.441448,53.7257022 186.441448,54.252007 C186.441448,54.8022349 186.504206,55.2911528 186.629724,55.7187755 C186.755242,56.1463982 186.931562,56.5052371 187.15869,56.7953029 C187.385817,57.0853686 187.662251,57.3066526 187.988,57.4591614 C188.313749,57.6116702 188.679837,57.6879234 189.086276,57.6879234 C189.474784,57.6879234 189.794551,57.6415734 190.045586,57.548872 C190.296622,57.4561706 190.505815,57.3530044 190.673172,57.2393704 C190.84053,57.1257364 190.978,57.0225702 191.085586,56.9298688 C191.193173,56.8371673 191.300758,56.7908173 191.408345,56.7908173 C191.545817,56.7908173 191.647425,56.8416528 191.713172,56.9433254 L192.161448,57.5264443 C191.766964,58.0108841 191.273865,58.3652374 190.682138,58.5895151 C190.090411,58.8137927 189.465819,58.9259299 188.808345,58.9259299 C188.240526,58.9259299 187.71306,58.8212685 187.225931,58.6119427 C186.738802,58.4026169 186.315933,58.0990991 185.95731,57.70138 C185.598688,57.303661 185.316277,56.8147431 185.110069,56.2346115 C184.903861,55.65448 184.800759,54.9936185 184.800759,54.252007 C184.800759,53.5761837 184.894896,52.951206 185.083172,52.3770553 C185.271449,51.8029045 185.546389,51.3080059 185.908,50.8923447 C186.269611,50.4766834 186.716388,50.1522333 187.248345,49.9189845 C187.780302,49.6857358 188.389951,49.5691131 189.07731,49.5691131 C189.710877,49.5691131 190.27271,49.6722793 190.762828,49.8786148 C191.252945,50.0849502 191.686274,50.3765068 192.062828,50.7532932 L191.641448,51.3274411 Z M196.572483,58.943872 C195.855238,58.943872 195.303864,58.7435203 194.918345,58.3428109 C194.532826,57.9421015 194.340069,57.364969 194.340069,56.6113961 L194.340069,51.0493382 L193.246276,51.0493382 C193.150643,51.0493382 193.069954,51.0209301 193.004207,50.9641131 C192.93846,50.9072961 192.905586,50.8190816 192.905586,50.6994668 L192.905586,50.0625215 L194.393862,49.8741292 L194.761448,47.0661871 C194.773402,46.976476 194.812253,46.9032131 194.878,46.8463961 C194.943748,46.7895791 195.027425,46.761171 195.129035,46.761171 L195.935931,46.761171 L195.935931,49.8920713 L198.535931,49.8920713 L198.535931,51.0493382 L195.935931,51.0493382 L195.935931,56.5037434 C195.935931,56.8865106 196.028574,57.1705913 196.213862,57.3559942 C196.39915,57.541397 196.638228,57.6340971 196.931104,57.6340971 C197.098461,57.6340971 197.243402,57.6116696 197.365931,57.5668141 C197.48846,57.5219586 197.594551,57.4726182 197.684207,57.4187916 C197.773863,57.364965 197.850069,57.3156246 197.912828,57.2707691 C197.975587,57.2259136 198.030873,57.2034861 198.07869,57.2034861 C198.162368,57.2034861 198.23708,57.2543216 198.302828,57.3559942 L198.769035,58.1185344 C198.494091,58.3757061 198.16237,58.5775529 197.773862,58.724081 C197.385354,58.8706091 196.984899,58.943872 196.572483,58.943872 Z M204.184207,49.5691131 C204.847659,49.5691131 205.446848,49.6797551 205.981793,49.9010424 C206.516738,50.1223297 206.970987,50.4363137 207.344552,50.8430038 C207.718117,51.249694 208.005011,51.7416022 208.205241,52.3187434 C208.405472,52.8958845 208.505586,53.5402993 208.505586,54.252007 C208.505586,54.9696955 208.405472,55.6156054 208.205241,56.1897562 C208.005011,56.763907 207.718117,57.2543201 207.344552,57.6610102 C206.970987,58.0677004 206.516738,58.3801892 205.981793,58.5984861 C205.446848,58.816783 204.847659,58.9259299 204.184207,58.9259299 C203.520755,58.9259299 202.921566,58.816783 202.386621,58.5984861 C201.851676,58.3801892 201.395933,58.0677004 201.019379,57.6610102 C200.642826,57.2543201 200.352944,56.763907 200.149724,56.1897562 C199.946505,55.6156054 199.844897,54.9696955 199.844897,54.252007 C199.844897,53.5402993 199.946505,52.8958845 200.149724,52.3187434 C200.352944,51.7416022 200.642826,51.249694 201.019379,50.8430038 C201.395933,50.4363137 201.851676,50.1223297 202.386621,49.9010424 C202.921566,49.6797551 203.520755,49.5691131 204.184207,49.5691131 Z M204.184207,57.6789524 C205.080763,57.6789524 205.750182,57.3784248 206.192483,56.7773607 C206.634784,56.1762966 206.855931,55.3375108 206.855931,54.2609781 C206.855931,53.1784646 206.634784,52.3351933 206.192483,51.7311389 C205.750182,51.1270844 205.080763,50.8250617 204.184207,50.8250617 C203.729952,50.8250617 203.335473,50.9028101 203.000759,51.0583093 C202.666044,51.2138085 202.386622,51.4380827 202.162483,51.7311389 C201.938344,52.024195 201.770989,52.384529 201.660414,52.8121517 C201.549839,53.2397744 201.494552,53.7227117 201.494552,54.2609781 C201.494552,54.7992445 201.549839,55.2806866 201.660414,55.7053189 C201.770989,56.1299513 201.938344,56.487295 202.162483,56.7773607 C202.386622,57.0674265 202.666044,57.2902056 203.000759,57.4457048 C203.335473,57.601204 203.729952,57.6789524 204.184207,57.6789524 Z M210.478,58.800335 L210.478,49.7126501 L211.392483,49.7126501 C211.565817,49.7126501 211.685356,49.7455437 211.751104,49.8113318 C211.816851,49.8771199 211.861678,49.9907522 211.885586,50.1522321 L211.993172,51.5696598 C212.303979,50.9357016 212.687998,50.440803 213.145241,50.0849492 C213.602485,49.7290953 214.138917,49.551171 214.754552,49.551171 C215.005588,49.551171 215.232712,49.5795791 215.435931,49.6363961 C215.639151,49.6932131 215.827424,49.7724567 216.000759,49.8741292 L215.794552,51.0672803 C215.752713,51.2167988 215.66007,51.2915569 215.516621,51.2915569 C215.432942,51.2915569 215.304438,51.2631488 215.131104,51.2063318 C214.957769,51.1495148 214.715703,51.1211067 214.404897,51.1211067 C213.849032,51.1211067 213.384324,51.2825842 213.010759,51.605544 C212.637194,51.9285038 212.324898,52.3979847 212.073862,53.0140006 L212.073862,58.800335 L210.478,58.800335 Z M222.429035,57.5802707 L225.190414,57.5802707 L225.190414,48.815544 C225.190414,48.5523916 225.199379,48.2862528 225.21731,48.0171196 L222.922138,49.981782 C222.862368,50.0296279 222.802598,50.0640166 222.742828,50.0849492 C222.683057,50.1058817 222.626276,50.1163479 222.572483,50.1163479 C222.482827,50.1163479 222.402138,50.0969108 222.330414,50.058036 C222.258689,50.0191612 222.204897,49.9728112 222.169035,49.9189845 L221.666966,49.2282128 L225.486276,45.9178913 L226.786276,45.9178913 L226.786276,57.5802707 L229.314552,57.5802707 L229.314552,58.800335 L222.429035,58.800335 L222.429035,57.5802707 Z" id="Doctor-1" fill="#54D0FF"></path>
            <path d="M172.111273,113.241679 C172.111273,114.204578 171.958861,115.080743 171.654032,115.8702 C171.349203,116.659657 170.918862,117.335471 170.362997,117.89766 C169.807132,118.459849 169.140702,118.894941 168.363687,119.202949 C167.586672,119.510957 166.725991,119.664959 165.781618,119.664959 L160.976101,119.664959 L160.976101,106.809428 L165.781618,106.809428 C166.725991,106.809428 167.586672,106.96343 168.363687,107.271438 C169.140702,107.579446 169.807132,108.016033 170.362997,108.581213 C170.918862,109.146393 171.349203,109.823701 171.654032,110.613158 C171.958861,111.402616 172.111273,112.278781 172.111273,113.241679 Z M170.327135,113.241679 C170.327135,112.452222 170.21955,111.746506 170.004377,111.124509 C169.789203,110.502512 169.484379,109.976215 169.089894,109.545602 C168.695409,109.114989 168.217253,108.786053 167.655411,108.558785 C167.093569,108.331517 166.468978,108.217885 165.781618,108.217885 L162.724377,108.217885 L162.724377,118.256502 L165.781618,118.256502 C166.468978,118.256502 167.093569,118.14287 167.655411,117.915602 C168.217253,117.688334 168.695409,117.360894 169.089894,116.933271 C169.484379,116.505648 169.789203,115.980846 170.004377,115.35885 C170.21955,114.736853 170.327135,114.031137 170.327135,113.241679 Z M177.902997,110.433737 C178.566449,110.433737 179.165638,110.544379 179.700584,110.765666 C180.235529,110.986954 180.689777,111.300938 181.063342,111.707628 C181.436907,112.114318 181.723801,112.606226 181.924032,113.183367 C182.124263,113.760509 182.224377,114.404923 182.224377,115.116631 C182.224377,115.83432 182.124263,116.480229 181.924032,117.05438 C181.723801,117.628531 181.436907,118.118944 181.063342,118.525634 C180.689777,118.932324 180.235529,119.244813 179.700584,119.46311 C179.165638,119.681407 178.566449,119.790554 177.902997,119.790554 C177.239546,119.790554 176.640356,119.681407 176.105411,119.46311 C175.570466,119.244813 175.114723,118.932324 174.73817,118.525634 C174.361616,118.118944 174.071734,117.628531 173.868515,117.05438 C173.665295,116.480229 173.563687,115.83432 173.563687,115.116631 C173.563687,114.404923 173.665295,113.760509 173.868515,113.183367 C174.071734,112.606226 174.361616,112.114318 174.73817,111.707628 C175.114723,111.300938 175.570466,110.986954 176.105411,110.765666 C176.640356,110.544379 177.239546,110.433737 177.902997,110.433737 Z M177.902997,118.543576 C178.799554,118.543576 179.468972,118.243049 179.911273,117.641985 C180.353574,117.040921 180.574721,116.202135 180.574721,115.125602 C180.574721,114.043089 180.353574,113.199817 179.911273,112.595763 C179.468972,111.991708 178.799554,111.689686 177.902997,111.689686 C177.448742,111.689686 177.054263,111.767434 176.719549,111.922933 C176.384835,112.078432 176.105412,112.302707 175.881273,112.595763 C175.657134,112.888819 175.489779,113.249153 175.379204,113.676776 C175.268629,114.104398 175.213342,114.587336 175.213342,115.125602 C175.213342,115.663868 175.268629,116.145311 175.379204,116.569943 C175.489779,116.994575 175.657134,117.351919 175.881273,117.641985 C176.105412,117.93205 176.384835,118.15483 176.719549,118.310329 C177.054263,118.465828 177.448742,118.543576 177.902997,118.543576 Z M190.391963,112.192065 C190.344146,112.257853 190.296331,112.308689 190.248515,112.344573 C190.200698,112.380458 190.131963,112.3984 190.042308,112.3984 C189.952652,112.3984 189.855527,112.36102 189.750928,112.286261 C189.64633,112.211502 189.513343,112.129268 189.351963,112.039557 C189.190583,111.949846 188.994838,111.867612 188.764721,111.792853 C188.534605,111.718094 188.252194,111.680715 187.91748,111.680715 C187.475179,111.680715 187.083689,111.759958 186.742997,111.918448 C186.402306,112.076937 186.116906,112.305697 185.88679,112.604734 C185.656674,112.903771 185.483343,113.2656 185.36679,113.690232 C185.250238,114.114865 185.191963,114.590326 185.191963,115.116631 C185.191963,115.666859 185.254721,116.155777 185.380239,116.5834 C185.505757,117.011022 185.682077,117.369861 185.909204,117.659927 C186.136332,117.949993 186.412766,118.171277 186.738515,118.323785 C187.064263,118.476294 187.430352,118.552547 187.83679,118.552547 C188.225298,118.552547 188.545065,118.506197 188.796101,118.413496 C189.047136,118.320795 189.25633,118.217628 189.423687,118.103994 C189.591044,117.99036 189.728514,117.887194 189.836101,117.794493 C189.943687,117.701791 190.051273,117.655441 190.158859,117.655441 C190.296331,117.655441 190.397939,117.706277 190.463687,117.807949 L190.911963,118.391068 C190.517478,118.875508 190.02438,119.229861 189.432652,119.454139 C188.840925,119.678417 188.216334,119.790554 187.558859,119.790554 C186.99104,119.790554 186.463574,119.685893 185.976446,119.476567 C185.489317,119.267241 185.066447,118.963723 184.707825,118.566004 C184.349202,118.168285 184.066791,117.679367 183.860584,117.099236 C183.654376,116.519104 183.551273,115.858242 183.551273,115.116631 C183.551273,114.440808 183.64541,113.81583 183.833687,113.241679 C184.021964,112.667528 184.296904,112.17263 184.658515,111.756969 C185.020126,111.341307 185.466903,111.016857 185.998859,110.783609 C186.530816,110.55036 187.140465,110.433737 187.827825,110.433737 C188.461391,110.433737 189.023225,110.536903 189.513342,110.743239 C190.00346,110.949574 190.436789,111.241131 190.813342,111.617917 L190.391963,112.192065 Z M195.322997,119.808496 C194.605752,119.808496 194.054379,119.608144 193.668859,119.207435 C193.28334,118.806725 193.090584,118.229593 193.090584,117.47602 L193.090584,111.913962 L191.99679,111.913962 C191.901158,111.913962 191.820469,111.885554 191.754721,111.828737 C191.688974,111.77192 191.656101,111.683706 191.656101,111.564091 L191.656101,110.927145 L193.144377,110.738753 L193.511963,107.930811 C193.523917,107.8411 193.562767,107.767837 193.628515,107.71102 C193.694262,107.654203 193.777939,107.625795 193.879549,107.625795 L194.686446,107.625795 L194.686446,110.756695 L197.286446,110.756695 L197.286446,111.913962 L194.686446,111.913962 L194.686446,117.368367 C194.686446,117.751135 194.779088,118.035215 194.964377,118.220618 C195.149665,118.406021 195.388743,118.498721 195.681618,118.498721 C195.848975,118.498721 195.993916,118.476294 196.116446,118.431438 C196.238975,118.386583 196.345066,118.337242 196.434721,118.283416 C196.524377,118.229589 196.600583,118.180249 196.663342,118.135393 C196.726101,118.090538 196.781388,118.06811 196.829204,118.06811 C196.912883,118.06811 196.987595,118.118946 197.053342,118.220618 L197.519549,118.983158 C197.244605,119.24033 196.912884,119.442177 196.524377,119.588705 C196.135869,119.735233 195.735413,119.808496 195.322997,119.808496 Z M202.934721,110.433737 C203.598173,110.433737 204.197362,110.544379 204.732308,110.765666 C205.267253,110.986954 205.721501,111.300938 206.095066,111.707628 C206.468631,112.114318 206.755525,112.606226 206.955756,113.183367 C207.155987,113.760509 207.256101,114.404923 207.256101,115.116631 C207.256101,115.83432 207.155987,116.480229 206.955756,117.05438 C206.755525,117.628531 206.468631,118.118944 206.095066,118.525634 C205.721501,118.932324 205.267253,119.244813 204.732308,119.46311 C204.197362,119.681407 203.598173,119.790554 202.934721,119.790554 C202.27127,119.790554 201.67208,119.681407 201.137135,119.46311 C200.60219,119.244813 200.146447,118.932324 199.769894,118.525634 C199.39334,118.118944 199.103458,117.628531 198.900239,117.05438 C198.697019,116.480229 198.595411,115.83432 198.595411,115.116631 C198.595411,114.404923 198.697019,113.760509 198.900239,113.183367 C199.103458,112.606226 199.39334,112.114318 199.769894,111.707628 C200.146447,111.300938 200.60219,110.986954 201.137135,110.765666 C201.67208,110.544379 202.27127,110.433737 202.934721,110.433737 Z M202.934721,118.543576 C203.831278,118.543576 204.500696,118.243049 204.942997,117.641985 C205.385298,117.040921 205.606446,116.202135 205.606446,115.125602 C205.606446,114.043089 205.385298,113.199817 204.942997,112.595763 C204.500696,111.991708 203.831278,111.689686 202.934721,111.689686 C202.480466,111.689686 202.085987,111.767434 201.751273,111.922933 C201.416559,112.078432 201.137136,112.302707 200.912997,112.595763 C200.688858,112.888819 200.521504,113.249153 200.410928,113.676776 C200.300353,114.104398 200.245066,114.587336 200.245066,115.125602 C200.245066,115.663868 200.300353,116.145311 200.410928,116.569943 C200.521504,116.994575 200.688858,117.351919 200.912997,117.641985 C201.137136,117.93205 201.416559,118.15483 201.751273,118.310329 C202.085987,118.465828 202.480466,118.543576 202.934721,118.543576 Z M209.228515,119.664959 L209.228515,110.577274 L210.142997,110.577274 C210.316331,110.577274 210.435871,110.610168 210.501618,110.675956 C210.567365,110.741744 210.612193,110.855376 210.636101,111.016856 L210.743687,112.434284 C211.054493,111.800326 211.438512,111.305427 211.895756,110.949573 C212.353,110.593719 212.889431,110.415795 213.505066,110.415795 C213.756102,110.415795 213.983226,110.444203 214.186446,110.50102 C214.389665,110.557837 214.577939,110.637081 214.751273,110.738753 L214.545066,111.931904 C214.503227,112.081423 214.410584,112.156181 214.267135,112.156181 C214.183457,112.156181 214.054952,112.127773 213.881618,112.070956 C213.708284,112.014139 213.466217,111.985731 213.155411,111.985731 C212.599546,111.985731 212.134838,112.147208 211.761273,112.470168 C211.387708,112.793128 211.075412,113.262609 210.824377,113.878625 L210.824377,119.664959 L209.228515,119.664959 Z M223.994721,106.665891 C224.538632,106.665891 225.046673,106.74663 225.518859,106.90811 C225.991046,107.06959 226.398973,107.30433 226.742652,107.612338 C227.086332,107.920346 227.356789,108.295632 227.554032,108.738207 C227.751274,109.180781 227.849894,109.683156 227.849894,110.245345 C227.849894,110.723804 227.77817,111.166372 227.634721,111.573062 C227.491272,111.979752 227.297022,112.369989 227.051963,112.743785 C226.806904,113.117581 226.524493,113.479411 226.204721,113.829284 C225.88495,114.179157 225.545758,114.536501 225.187135,114.901326 L221.807135,118.364155 C222.046217,118.298367 222.288283,118.246036 222.533342,118.207162 C222.778401,118.168287 223.01449,118.14885 223.241618,118.14885 L227.545066,118.14885 C227.7184,118.14885 227.85587,118.199685 227.95748,118.301358 C228.05909,118.40303 228.109894,118.534604 228.109894,118.696084 L228.109894,119.664959 L219.538859,119.664959 L219.538859,119.117724 C219.538859,119.00409 219.561273,118.887468 219.606101,118.767853 C219.650929,118.648238 219.724146,118.537596 219.825756,118.435924 L223.940928,114.300264 C224.28162,113.953382 224.592421,113.619961 224.873342,113.299991 C225.154263,112.980022 225.394835,112.658562 225.595066,112.335602 C225.795297,112.012642 225.949204,111.685202 226.05679,111.353271 C226.164377,111.02134 226.21817,110.666987 226.21817,110.2902 C226.21817,109.913414 226.1584,109.582983 226.038859,109.298898 C225.919319,109.014813 225.754952,108.780072 225.545756,108.59467 C225.336559,108.409267 225.091504,108.270217 224.810584,108.177515 C224.529663,108.084814 224.227826,108.038464 223.905066,108.038464 C223.582306,108.038464 223.283458,108.086309 223.008515,108.182001 C222.733571,108.277693 222.49001,108.410762 222.277825,108.581213 C222.06564,108.751664 221.886331,108.953511 221.739894,109.18676 C221.593456,109.420008 221.490354,109.677176 221.430584,109.958271 C221.382767,110.131712 221.311044,110.257306 221.215411,110.335055 C221.119778,110.412805 220.994262,110.451679 220.838859,110.451679 C220.808974,110.451679 220.777595,110.450184 220.744721,110.447194 C220.711848,110.444203 220.674492,110.439718 220.632652,110.433737 L219.798859,110.2902 C219.882538,109.704088 220.043916,109.185267 220.282997,108.733721 C220.522079,108.282175 220.825409,107.903899 221.192997,107.598882 C221.560585,107.293864 221.98196,107.062114 222.457135,106.903625 C222.93231,106.745135 223.444834,106.665891 223.994721,106.665891 Z" id="Doctor-2" fill="#54D0FF"></path>
            <path d="M171.360975,181.136046 C171.360975,182.098945 171.208563,182.97511 170.903734,183.764567 C170.598904,184.554025 170.168564,185.229838 169.612699,185.792027 C169.056834,186.354216 168.390404,186.789309 167.613389,187.097317 C166.836373,187.405325 165.975692,187.559326 165.03132,187.559326 L160.225802,187.559326 L160.225802,174.703796 L165.03132,174.703796 C165.975692,174.703796 166.836373,174.857797 167.613389,175.165805 C168.390404,175.473813 169.056834,175.910401 169.612699,176.47558 C170.168564,177.04076 170.598904,177.718068 170.903734,178.507526 C171.208563,179.296983 171.360975,180.173148 171.360975,181.136046 Z M169.576837,181.136046 C169.576837,180.346589 169.469252,179.640873 169.254078,179.018876 C169.038905,178.396879 168.73408,177.870582 168.339596,177.439969 C167.945111,177.009356 167.466955,176.680421 166.905113,176.453153 C166.343271,176.225885 165.718679,176.112252 165.03132,176.112252 L161.974078,176.112252 L161.974078,186.15087 L165.03132,186.15087 C165.718679,186.15087 166.343271,186.037237 166.905113,185.809969 C167.466955,185.582701 167.945111,185.255261 168.339596,184.827638 C168.73408,184.400015 169.038905,183.875214 169.254078,183.253217 C169.469252,182.63122 169.576837,181.925504 169.576837,181.136046 Z M177.152699,178.328104 C177.816151,178.328104 178.41534,178.438746 178.950285,178.660034 C179.48523,178.881321 179.939479,179.195305 180.313044,179.601995 C180.686609,180.008685 180.973503,180.500593 181.173734,181.077735 C181.373964,181.654876 181.474078,182.299291 181.474078,183.010998 C181.474078,183.728687 181.373964,184.374597 181.173734,184.948747 C180.973503,185.522898 180.686609,186.013311 180.313044,186.420001 C179.939479,186.826692 179.48523,187.13918 178.950285,187.357477 C178.41534,187.575774 177.816151,187.684921 177.152699,187.684921 C176.489247,187.684921 175.890058,187.575774 175.355113,187.357477 C174.820168,187.13918 174.364425,186.826692 173.987871,186.420001 C173.611318,186.013311 173.321436,185.522898 173.118216,184.948747 C172.914997,184.374597 172.813389,183.728687 172.813389,183.010998 C172.813389,182.299291 172.914997,181.654876 173.118216,181.077735 C173.321436,180.500593 173.611318,180.008685 173.987871,179.601995 C174.364425,179.195305 174.820168,178.881321 175.355113,178.660034 C175.890058,178.438746 176.489247,178.328104 177.152699,178.328104 Z M177.152699,186.437944 C178.049255,186.437944 178.718674,186.137416 179.160975,185.536352 C179.603276,184.935288 179.824423,184.096502 179.824423,183.019969 C179.824423,181.937456 179.603276,181.094185 179.160975,180.49013 C178.718674,179.886076 178.049255,179.584053 177.152699,179.584053 C176.698444,179.584053 176.303965,179.661801 175.969251,179.817301 C175.634536,179.9728 175.355114,180.197074 175.130975,180.49013 C174.906836,180.783186 174.739481,181.14352 174.628906,181.571143 C174.518331,181.998766 174.463044,182.481703 174.463044,183.019969 C174.463044,183.558236 174.518331,184.039678 174.628906,184.46431 C174.739481,184.888942 174.906836,185.246286 175.130975,185.536352 C175.355114,185.826418 175.634536,186.049197 175.969251,186.204696 C176.303965,186.360195 176.698444,186.437944 177.152699,186.437944 Z M189.641665,180.086432 C189.593848,180.15222 189.546033,180.203056 189.498216,180.23894 C189.4504,180.274825 189.381665,180.292767 189.292009,180.292767 C189.202354,180.292767 189.105228,180.255388 189.00063,180.180628 C188.896032,180.105869 188.763045,180.023635 188.601665,179.933924 C188.440284,179.844213 188.244539,179.761979 188.014423,179.68722 C187.784307,179.612461 187.501896,179.575082 187.167182,179.575082 C186.724881,179.575082 186.33339,179.654325 185.992699,179.812815 C185.652008,179.971305 185.366608,180.200064 185.136492,180.499101 C184.906376,180.798138 184.733044,181.159967 184.616492,181.5846 C184.49994,182.009232 184.441665,182.484693 184.441665,183.010998 C184.441665,183.561226 184.504423,184.050144 184.62994,184.477767 C184.755458,184.905389 184.931778,185.264228 185.158906,185.554294 C185.386034,185.84436 185.662468,186.065644 185.988216,186.218153 C186.313965,186.370661 186.680053,186.446915 187.086492,186.446915 C187.475,186.446915 187.794767,186.400565 188.045802,186.307863 C188.296838,186.215162 188.506032,186.111996 188.673389,185.998362 C188.840746,185.884728 188.978216,185.781561 189.085802,185.68886 C189.193389,185.596159 189.300974,185.549809 189.408561,185.549809 C189.546033,185.549809 189.647641,185.600644 189.713389,185.702317 L190.161665,186.285436 C189.76718,186.769875 189.274081,187.124229 188.682354,187.348506 C188.090627,187.572784 187.466036,187.684921 186.808561,187.684921 C186.240742,187.684921 185.713276,187.58026 185.226147,187.370934 C184.739018,187.161608 184.316149,186.85809 183.957527,186.460371 C183.598904,186.062652 183.316493,185.573734 183.110285,184.993603 C182.904077,184.413471 182.800975,183.75261 182.800975,183.010998 C182.800975,182.335175 182.895112,181.710197 183.083389,181.136046 C183.271666,180.561896 183.546605,180.066997 183.908216,179.651336 C184.269827,179.235675 184.716604,178.911225 185.248561,178.677976 C185.780518,178.444727 186.390167,178.328104 187.077527,178.328104 C187.711093,178.328104 188.272926,178.431271 188.763044,178.637606 C189.253161,178.843941 189.68649,179.135498 190.063044,179.512284 L189.641665,180.086432 Z M194.572699,187.702863 C193.855454,187.702863 193.30408,187.502512 192.918561,187.101802 C192.533042,186.701093 192.340285,186.12396 192.340285,185.370387 L192.340285,179.808329 L191.246492,179.808329 C191.150859,179.808329 191.070171,179.779921 191.004423,179.723104 C190.938676,179.666287 190.905802,179.578073 190.905802,179.458458 L190.905802,178.821513 L192.394078,178.63312 L192.761665,175.825178 C192.773619,175.735467 192.812469,175.662204 192.878216,175.605387 C192.943964,175.54857 193.027641,175.520162 193.129251,175.520162 L193.936147,175.520162 L193.936147,178.651063 L196.536147,178.651063 L196.536147,179.808329 L193.936147,179.808329 L193.936147,185.262735 C193.936147,185.645502 194.02879,185.929583 194.214078,186.114985 C194.399367,186.300388 194.638445,186.393088 194.93132,186.393088 C195.098677,186.393088 195.243618,186.370661 195.366147,186.325805 C195.488677,186.28095 195.594768,186.231609 195.684423,186.177783 C195.774079,186.123956 195.850285,186.074616 195.913044,186.02976 C195.975803,185.984905 196.03109,185.962477 196.078906,185.962477 C196.162585,185.962477 196.237296,186.013313 196.303044,186.114985 L196.769251,186.877526 C196.494307,187.134697 196.162586,187.336544 195.774078,187.483072 C195.385571,187.6296 194.985115,187.702863 194.572699,187.702863 Z M202.184423,178.328104 C202.847875,178.328104 203.447064,178.438746 203.982009,178.660034 C204.516955,178.881321 204.971203,179.195305 205.344768,179.601995 C205.718333,180.008685 206.005227,180.500593 206.205458,181.077735 C206.405689,181.654876 206.505802,182.299291 206.505802,183.010998 C206.505802,183.728687 206.405689,184.374597 206.205458,184.948747 C206.005227,185.522898 205.718333,186.013311 205.344768,186.420001 C204.971203,186.826692 204.516955,187.13918 203.982009,187.357477 C203.447064,187.575774 202.847875,187.684921 202.184423,187.684921 C201.520972,187.684921 200.921782,187.575774 200.386837,187.357477 C199.851892,187.13918 199.396149,186.826692 199.019596,186.420001 C198.643042,186.013311 198.35316,185.522898 198.14994,184.948747 C197.946721,184.374597 197.845113,183.728687 197.845113,183.010998 C197.845113,182.299291 197.946721,181.654876 198.14994,181.077735 C198.35316,180.500593 198.643042,180.008685 199.019596,179.601995 C199.396149,179.195305 199.851892,178.881321 200.386837,178.660034 C200.921782,178.438746 201.520972,178.328104 202.184423,178.328104 Z M202.184423,186.437944 C203.080979,186.437944 203.750398,186.137416 204.192699,185.536352 C204.635,184.935288 204.856147,184.096502 204.856147,183.019969 C204.856147,181.937456 204.635,181.094185 204.192699,180.49013 C203.750398,179.886076 203.080979,179.584053 202.184423,179.584053 C201.730168,179.584053 201.335689,179.661801 201.000975,179.817301 C200.666261,179.9728 200.386838,180.197074 200.162699,180.49013 C199.93856,180.783186 199.771205,181.14352 199.66063,181.571143 C199.550055,181.998766 199.494768,182.481703 199.494768,183.019969 C199.494768,183.558236 199.550055,184.039678 199.66063,184.46431 C199.771205,184.888942 199.93856,185.246286 200.162699,185.536352 C200.386838,185.826418 200.666261,186.049197 201.000975,186.204696 C201.335689,186.360195 201.730168,186.437944 202.184423,186.437944 Z M208.478216,187.559326 L208.478216,178.471641 L209.392699,178.471641 C209.566033,178.471641 209.685572,178.504535 209.75132,178.570323 C209.817067,178.636111 209.861894,178.749743 209.885802,178.911223 L209.993389,180.328651 C210.304195,179.694693 210.688214,179.199794 211.145458,178.84394 C211.602701,178.488087 212.139133,178.310162 212.754768,178.310162 C213.005804,178.310162 213.232928,178.33857 213.436147,178.395387 C213.639367,178.452204 213.827641,178.531448 214.000975,178.63312 L213.794768,179.826272 C213.752929,179.97579 213.660286,180.050548 213.516837,180.050548 C213.433158,180.050548 213.304654,180.02214 213.13132,179.965323 C212.957986,179.908506 212.715919,179.880098 212.405113,179.880098 C211.849248,179.880098 211.38454,180.041575 211.010975,180.364535 C210.63741,180.687495 210.325114,181.156976 210.074078,181.772992 L210.074078,187.559326 L208.478216,187.559326 Z M223.414768,174.560259 C223.958679,174.560259 224.460743,174.638007 224.920975,174.793506 C225.381207,174.949005 225.77718,175.170289 226.108906,175.457365 C226.440632,175.74444 226.699135,176.091318 226.884423,176.498008 C227.069711,176.904698 227.162354,177.356237 227.162354,177.852638 C227.162354,178.259328 227.110056,178.622653 227.005458,178.942622 C226.900859,179.262591 226.751436,179.543682 226.557182,179.785902 C226.362928,180.028122 226.128333,180.232959 225.853389,180.400419 C225.578445,180.56788 225.270632,180.702445 224.92994,180.804117 C225.766726,181.025405 226.3958,181.396205 226.817182,181.916529 C227.238563,182.436853 227.449251,183.088744 227.449251,183.87222 C227.449251,184.464313 227.337183,184.996591 227.113044,185.469069 C226.888905,185.941547 226.582586,186.343746 226.194078,186.675677 C225.805571,187.007608 225.352817,187.261785 224.835802,187.438217 C224.318788,187.614649 223.764426,187.702863 223.172699,187.702863 C222.491316,187.702863 221.908564,187.617639 221.424423,187.447188 C220.940283,187.276737 220.530862,187.041997 220.196147,186.74296 C219.861433,186.443923 219.586493,186.089569 219.37132,185.679889 C219.156146,185.270208 218.973849,184.826145 218.824423,184.347686 L219.505802,184.060612 C219.63132,184.006786 219.756836,183.979873 219.882354,183.979873 C220.001895,183.979873 220.107986,184.005291 220.20063,184.056127 C220.293274,184.106963 220.363503,184.186207 220.41132,184.29386 C220.423274,184.317783 220.435228,184.343201 220.447182,184.370114 C220.459136,184.397027 220.47109,184.425435 220.483044,184.455339 C220.566722,184.62878 220.668331,184.824647 220.787871,185.042944 C220.907412,185.261241 221.06879,185.466078 221.272009,185.657461 C221.475229,185.848845 221.727755,186.010322 222.029596,186.141899 C222.331436,186.273475 222.70649,186.339262 223.154768,186.339262 C223.603046,186.339262 223.996031,186.265999 224.333734,186.119471 C224.671436,185.972943 224.952353,185.783057 225.176492,185.549809 C225.400631,185.31656 225.56948,185.056402 225.683044,184.769326 C225.796608,184.482251 225.853389,184.19817 225.853389,183.917075 C225.853389,183.570193 225.807067,183.253218 225.714423,182.966143 C225.621779,182.679068 225.454424,182.430871 225.212354,182.221545 C224.970284,182.012219 224.635575,181.847751 224.208216,181.728137 C223.780858,181.608522 223.232473,181.548715 222.563044,181.548715 L222.563044,180.391448 C223.106955,180.385468 223.571663,180.325661 223.957182,180.212027 C224.342701,180.098393 224.657985,179.942896 224.903044,179.745532 C225.148103,179.548168 225.325917,179.311932 225.436492,179.036818 C225.547067,178.761704 225.602354,178.456691 225.602354,178.12177 C225.602354,177.750964 225.544079,177.428009 225.427527,177.152895 C225.310974,176.877781 225.151091,176.650517 224.947871,176.471095 C224.744652,176.291673 224.50408,176.157108 224.226147,176.067397 C223.948215,175.977686 223.647873,175.932831 223.325113,175.932831 C223.002353,175.932831 222.703505,175.980676 222.428561,176.076368 C222.153617,176.17206 221.910056,176.305129 221.697871,176.47558 C221.485686,176.646031 221.307872,176.849373 221.164423,177.085612 C221.020974,177.321852 220.913389,177.577524 220.841665,177.852638 C220.793848,178.02608 220.722125,178.151673 220.626492,178.229423 C220.530859,178.307172 220.408332,178.346046 220.258906,178.346046 C220.229021,178.346046 220.197642,178.344551 220.164768,178.341561 C220.131894,178.338571 220.094538,178.334085 220.052699,178.328104 L219.218906,178.184567 C219.302585,177.598455 219.463962,177.079634 219.703044,176.628088 C219.942126,176.176543 220.245456,175.798267 220.613044,175.493249 C220.980632,175.188231 221.402007,174.956481 221.877182,174.797992 C222.352357,174.639502 222.86488,174.560259 223.414768,174.560259 Z" id="Doctor-3" fill="#54D0FF"></path>
        </g>
    </g>
</svg>