<?xml version="1.0" encoding="UTF-8"?>
<svg width="48px" height="40px" viewBox="0 0 48 40" version="1.1" xmlns="http://www.w3.org/2000/svg" xmlns:xlink="http://www.w3.org/1999/xlink">
    <!-- Generator: Sketch 48.2 (47327) - http://www.bohemiancoding.com/sketch -->
    <title>TrueCare24_logo@2x</title>
    <desc>Created with Sketch.</desc>
    <defs></defs>
    <g id="HCD27_mobile-head" stroke="none" stroke-width="1" fill="none" fill-rule="evenodd" transform="translate(-136.000000, -10.000000)">
        <g id="TrueCare24_logo" transform="translate(136.000000, 10.000000)">
            <g id="Group-27" transform="translate(0.427478, 0.000000)">
                <path d="M42.8982515,10.5537098 L42.8982515,8.24966079 L40.1793482,8.24966079 L40.1793482,10.5537098 L37.8752991,10.5537098 L37.8752991,13.2726131 L40.1793482,13.2726131 L40.1793482,15.5766621 L42.8982515,15.5766621 L42.8982515,13.2726131 L45.2023005,13.2726131 L45.2023005,10.5537098 L42.8982515,10.5537098 Z M0,10.4187016 C0,8.20912566 1.79265632,6.41791045 3.99232058,6.41791045 L42.8332356,6.41791045 C45.0381334,6.41791045 46.8255562,8.19971897 46.8255562,10.4187016 L46.8255562,35.9992088 C46.8255562,38.2087848 45.0328998,40 42.8332356,40 L3.99232058,40 C1.78742281,40 0,38.2181915 0,35.9992088 L0,10.4187016 Z M7.2504087,18.7920084 L7.2504087,18.8685983 L11.0715228,18.8685983 L11.0715228,18.7766904 C11.0715228,16.7393973 12.559028,15.5790263 14.4695851,15.5790263 C16.2709675,15.5790263 17.3763612,16.5862174 17.3763612,18.3631046 C17.3763612,19.8029959 16.6803726,20.9518454 13.9100648,23.984808 L7.48240491,31.0464026 L7.48240491,34.2784991 L21.6887615,34.2784991 L21.6887615,30.4336829 L13.0639609,30.4336829 L13.0639609,30.1579591 L16.8304878,26.1293269 C20.2421968,22.5295986 21.4021779,20.4616696 21.4021779,18.0567447 C21.4021779,14.2578825 18.5363423,11.6078697 14.4286446,11.6078697 C10.1708317,11.6078697 7.2504087,14.5182884 7.2504087,18.7920084 Z M36.3159237,30.3748138 L38.6688464,30.3748138 L38.6688464,26.4426922 L36.3159237,26.4426922 L36.3159237,11.6078697 L32.3159552,11.6078697 L22.9596275,26.1502204 L22.9596275,30.3748138 L32.5789289,30.3748138 L32.5789289,34.0957058 L36.3159237,34.0957058 L36.3159237,30.3748138 Z" id="Combined-Shape" fill="#54D0FF"></path>
                <path d="M28.3974341,9.10141585 L28.3974341,3.44763439 C28.3974341,2.8924222 27.9560843,2.44233379 27.3938661,2.44233379 L19.1295897,2.44233379 C18.5753344,2.44233379 18.1260217,2.89183555 18.1260217,3.44763439 L18.1260217,9.1019578 C16.7458266,8.8302976 15.7092188,7.61632001 15.7092188,6.15983385 L15.7092188,2.99891785 C15.7092188,1.35140535 17.0534057,-1.77635684e-15 18.7115441,-1.77635684e-15 L27.8119117,-1.77635684e-15 C29.4737674,-1.77635684e-15 30.814237,1.34266126 30.814237,2.99891785 L30.814237,6.15983385 C30.814237,7.60826612 29.7752775,8.82782894 28.3974341,9.10141585 Z" id="Combined-Shape" fill="#54D0FF"></path>
                <g id="Group-26" transform="translate(26.206990, 8.249661)">
                    <g id="Group-21" transform="translate(11.555556, 0.000000)"></g>
                    <polygon id="4" fill="#54D0FF" points="6.37193921 9.37013044 0.558836199 18.1930314 6.37193921 18.1930314"></polygon>
                </g>
                <g id="Page-1" transform="translate(7.250409, 11.607870)"></g>
            </g>
        </g>
    </g>
</svg>