<?xml version="1.0" encoding="UTF-8"?>
<svg width="60px" height="50px" viewBox="0 0 60 50" version="1.1" xmlns="http://www.w3.org/2000/svg" xmlns:xlink="http://www.w3.org/1999/xlink">
    <!-- Generator: Sketch 48.2 (47327) - http://www.bohemiancoding.com/sketch -->
    <title>TrueCare24_logo</title>
    <desc>Created with Sketch.</desc>
    <defs></defs>
    <g id="HCD27_mobile" stroke="none" stroke-width="1" fill="none" fill-rule="evenodd" transform="translate(-130.000000, -7165.000000)">
        <g id="TrueCare24_logo" transform="translate(130.000000, 7165.000000)">
            <g id="Group-27" transform="translate(0.534348, 0.000000)">
                <path d="M53.6228143,13.9723273 L53.6228143,11.1940299 L50.2241852,11.1940299 L50.2241852,13.9723273 L47.4458878,13.9723273 L47.4458878,17.3709563 L50.2241852,17.3709563 L50.2241852,20.1492537 L53.6228143,20.1492537 L53.6228143,17.3709563 L56.4011117,17.3709563 L56.4011117,13.9723273 L53.6228143,13.9723273 Z M0,12.9467649 C0,10.7422976 1.78370433,8.95522388 4.00010094,8.95522388 L54.5318443,8.95522388 C56.741039,8.95522388 58.5319452,10.7452589 58.5319452,12.9467649 L58.5319452,46.008459 C58.5319452,48.2129262 56.7482409,50 54.5318443,50 L4.00010094,50 C1.79090619,50 0,48.2099649 0,46.008459 L0,12.9467649 Z M9.06301087,24.0791214 L9.06301087,24.1727313 L13.8394036,24.1727313 L13.8394036,24.0603994 C13.8394036,21.5703745 15.698785,20.1521432 18.0869813,20.1521432 C20.3387093,20.1521432 21.7204515,21.3831546 21.7204515,23.5549056 C21.7204515,25.3147728 20.8504657,26.7189221 17.387581,30.4258764 L9.35300614,39.0567143 L9.35300614,43.0070545 L27.1109518,43.0070545 L27.1109518,38.3078347 L16.3299512,38.3078347 L16.3299512,37.9708389 L21.0381097,33.0469552 C25.302746,28.6472872 26.7527224,26.1198184 26.7527224,23.1804658 C26.7527224,18.5374119 23.1704279,15.2985075 18.0358057,15.2985075 C12.7135396,15.2985075 9.06301087,18.8556858 9.06301087,24.0791214 Z M45.3949047,38.2358836 L48.336058,38.2358836 L48.336058,33.4299571 L45.3949047,33.4299571 L45.3949047,15.2985075 L40.394944,15.2985075 L28.6995344,33.0724915 L28.6995344,38.2358836 L40.7236612,38.2358836 L40.7236612,42.7836404 L45.3949047,42.7836404 L45.3949047,38.2358836 Z" id="Combined-Shape" fill="#FFFFFF"></path>
                <path d="M35.4967926,11.1940299 L35.4967926,3.9867644 C35.4967926,3.43354641 35.0398363,2.98507463 34.489317,2.98507463 L23.6650028,2.98507463 C23.1085894,2.98507463 22.6575272,3.4271371 22.6575272,3.9867644 L22.6575272,11.1940299 L22.6283173,11.1940299 C20.9792816,11.1940299 19.6365236,9.85097607 19.6365236,8.19423528 L19.6365236,2.99979457 C19.6365236,1.35026155 20.9759953,0 22.6283173,-1.77635684e-15 L35.5260024,-1.77635684e-15 C37.1750381,0 38.5177962,1.34305378 38.5177962,2.99979457 L38.5177962,8.19423528 C38.5177962,9.8437683 37.1783245,11.1940299 35.5260024,11.1940299 L35.4967926,11.1940299 Z" id="Combined-Shape" fill="#FFFFFF"></path>
                <g id="Group-26" transform="translate(32.758737, 11.194030)">
                    <g id="Group-21" transform="translate(14.444444, 0.000000)"></g>
                    <polygon id="4" fill="#FFFFFF" points="7.96492401 11.4523816 0.698545249 22.2359273 7.96492401 22.2359273"></polygon>
                </g>
                <g id="Page-1" transform="translate(9.063011, 15.298507)"></g>
            </g>
        </g>
    </g>
</svg>