<?xml version="1.0" encoding="UTF-8"?>
<svg width="25px" height="25px" viewBox="0 0 25 25" version="1.1" xmlns="http://www.w3.org/2000/svg" xmlns:xlink="http://www.w3.org/1999/xlink">
    <!-- Generator: sketchtool 49.2 (51160) - http://www.bohemiancoding.com/sketch -->
    <title>7861D74A-8D55-4103-B572-AD12B5983077@2x</title>
    <desc>Created with sketchtool.</desc>
    <defs></defs>
    <g id="Page-1" stroke="none" stroke-width="1" fill="none" fill-rule="evenodd">
        <g id="performance23" transform="translate(-1211.000000, -56.000000)" fill="#1DD384">
            <path d="M1223.5,56 C1216.59593,56 1211,61.5959302 1211,68.5 C1211,75.4040698 1216.59593,81 1223.5,81 C1230.40407,81 1236,75.4040698 1236,68.5 C1236,61.5959302 1230.40407,56 1223.5,56 Z M1218.8314,62.9767442 C1219.63422,62.9767442 1220.28488,63.6274128 1220.28488,64.4302326 C1220.28488,65.2330523 1219.63422,65.8837209 1218.8314,65.8837209 C1218.02858,65.8837209 1217.37791,65.2330523 1217.37791,64.4302326 C1217.37791,63.6274128 1218.02858,62.9767442 1218.8314,62.9767442 Z M1228.1686,62.9767442 C1228.97142,62.9767442 1229.62209,63.6274128 1229.62209,64.4302326 C1229.62209,65.2330523 1228.97142,65.8837209 1228.1686,65.8837209 C1227.36578,65.8837209 1226.71512,65.2330523 1226.71512,64.4302326 C1226.71512,63.6274128 1227.36578,62.9767442 1228.1686,62.9767442 Z M1215.83285,69.680814 C1220.92907,70.8231686 1226.07093,70.8231686 1231.14913,69.680814 C1231.44663,69.6172238 1231.7748,69.8284331 1231.83953,70.1259302 C1232.18814,71.7077326 1231.53067,73.710814 1230.14076,75.385814 C1228.75084,77.060814 1226.56169,78.3927907 1223.78174,78.3927907 C1220.98831,78.3927907 1218.67186,77.0676163 1217.14105,75.4041279 C1215.61023,73.7406395 1214.78593,71.745407 1215.1425,70.1262209 C1215.32078,69.76625 1215.50587,69.6924419 1215.83291,69.6811047 L1215.83285,69.680814 Z" id="Above-average"></path>
        </g>
    </g>
</svg>