<?xml version="1.0" encoding="UTF-8"?>
<svg width="25px" height="25px" viewBox="0 0 25 25" version="1.1" xmlns="http://www.w3.org/2000/svg" xmlns:xlink="http://www.w3.org/1999/xlink">
    <!-- Generator: sketchtool 49.2 (51160) - http://www.bohemiancoding.com/sketch -->
    <title>1961E54C-A654-4E52-9A36-F2C9A63E5770@2x</title>
    <desc>Created with sketchtool.</desc>
    <defs></defs>
    <g id="Page-1" stroke="none" stroke-width="1" fill="none" fill-rule="evenodd">
        <g id="performance23" transform="translate(-1181.000000, -56.000000)">
            <g id="Average" transform="translate(1181.000000, 56.000000)">
                <path d="M12.5000002,25 C19.4031251,25 25,19.403125 25,12.5 C25,5.596875 19.4031251,0 12.5000002,0 C5.59687524,0 0,5.596875 0,12.5 C0,19.403125 5.59687524,25 12.5000002,25 Z" id="Path" fill="#F5BD23"></path>
                <path d="M12.5665385,18.1461849 C14.8461889,18.1461849 16.9520378,17.1046327 18.3308711,15.3558596 C18.6481895,14.9527528 19.2354231,14.8815364 19.6415098,15.196551 C20.0475964,15.5127458 20.1193393,16.0944653 19.801996,16.497572 C18.0731009,18.6917183 15.4273905,20 12.5667004,20 C9.92958048,20 7.46999704,18.8884364 5.73976351,16.9803608 C5.39446381,16.6001793 5.42608671,16.01364 5.80906623,15.6720791 C6.19327207,15.3293133 6.78293341,15.3607041 7.12823312,15.7408733 C8.50697308,17.2615685 10.4645118,18.1462281 12.5666879,18.1462281 L12.5665385,18.1461849 Z" id="Path" fill="#FFFFFF"></path>
                <path d="M17,11 C17.82851,11 18.5,10.32851 18.5,9.5 C18.5,8.67149 17.82851,8 17,8 C16.17149,8 15.5,8.67149 15.5,9.5 C15.5,10.32851 16.17149,11 17,11 Z" id="Path" fill="#FFFFFF"></path>
                <path d="M8,11 C8.82851,11 9.5,10.32851 9.5,9.5 C9.5,8.67149 8.82851,8 8,8 C7.17149,8 6.5,8.67149 6.5,9.5 C6.5,10.32851 7.17149,11 8,11 Z" id="Path" fill="#FFFFFF"></path>
            </g>
        </g>
    </g>
</svg>