<?xml version="1.0" encoding="UTF-8"?>
<svg width="25px" height="25px" viewBox="0 0 25 25" version="1.1" xmlns="http://www.w3.org/2000/svg" xmlns:xlink="http://www.w3.org/1999/xlink">
    <!-- Generator: sketchtool 49.2 (51160) - http://www.bohemiancoding.com/sketch -->
    <title>58685BDC-C823-449D-B84E-8F163E242DC2@2x</title>
    <desc>Created with sketchtool.</desc>
    <defs></defs>
    <g id="Page-1" stroke="none" stroke-width="1" fill="none" fill-rule="evenodd">
        <g id="performance23" transform="translate(-1150.000000, -56.000000)" fill="#FF2F4F">
            <path d="M1162.31514,71.8870806 C1164.61215,71.8870806 1166.73403,72.9692127 1168.12336,74.7861199 C1168.44309,75.2049321 1169.0348,75.2789232 1169.44398,74.9516353 C1169.85315,74.6231212 1169.92544,74.0187374 1169.60568,73.5999252 C1167.86363,71.3202927 1165.19777,69.961039 1162.3153,69.961039 C1159.65811,69.961039 1157.1798,71.1159103 1155.43639,73.0983264 C1155.08847,73.4933202 1155.12033,74.1014598 1155.50622,74.4575801 C1155.89336,74.8137005 1156.48751,74.7810866 1156.83543,74.3861057 C1158.22467,72.8061626 1160.19711,71.8870357 1162.31529,71.8870357 L1162.31514,71.8870806 Z M1162.5,81 C1169.40313,81 1175,75.403125 1175,68.5 C1175,61.596875 1169.40313,56 1162.5,56 C1155.59688,56 1150,61.596875 1150,68.5 C1150,75.403125 1155.59688,81 1162.5,81 Z M1166.88312,67.3636364 C1167.77977,67.3636364 1168.50649,66.6369156 1168.50649,65.7402597 C1168.50649,64.8436039 1167.77977,64.1168831 1166.88312,64.1168831 C1165.98646,64.1168831 1165.25974,64.8436039 1165.25974,65.7402597 C1165.25974,66.6369156 1165.98646,67.3636364 1166.88312,67.3636364 Z M1158.11688,67.3636364 C1159.01354,67.3636364 1159.74026,66.6369156 1159.74026,65.7402597 C1159.74026,64.8436039 1159.01354,64.1168831 1158.11688,64.1168831 C1157.22023,64.1168831 1156.49351,64.8436039 1156.49351,65.7402597 C1156.49351,66.6369156 1157.22023,67.3636364 1158.11688,67.3636364 Z" id="Below-average"></path>
        </g>
    </g>
</svg>