<?xml version="1.0" encoding="UTF-8"?>
<svg width="20px" height="19px" viewBox="0 0 20 19" version="1.1" xmlns="http://www.w3.org/2000/svg" xmlns:xlink="http://www.w3.org/1999/xlink">
    <!-- Generator: sketchtool 49.2 (51160) - http://www.bohemiancoding.com/sketch -->
    <title>4359E04D-D460-4974-B27C-29DE69390D0D@2x</title>
    <desc>Created with sketchtool.</desc>
    <defs></defs>
    <g id="Page-1" stroke="none" stroke-width="1" fill="none" fill-rule="evenodd">
        <g id="performance23" transform="translate(-621.000000, -856.000000)" fill="#54D0FF">
            <g id="Group-36" transform="translate(621.000000, 856.000000)">
                <path d="M10,6.09756098e-05 C4.47609756,6.09756098e-05 0,3.65103659 0,8.15567073 C0,10.7661585 1.56153659,12.897378 3.90243902,14.3903049 L1.95121951,19.0244512 L7.31707317,16.097622 C8.04687805,16.2357707 9.2187561,16.3034146 10,16.3034146 C15.5239024,16.3034146 20,12.66 20,8.15560976 C20,3.65121951 15.5239024,0 10,0 L10,6.09756098e-05 Z M4.63414634,6.82932927 C5.30773171,6.82932927 5.85365854,7.3752561 5.85365854,8.04884146 C5.85365854,8.72242683 5.30773171,9.26835366 4.63414634,9.26835366 C3.96056098,9.26835366 3.41463415,8.72242683 3.41463415,8.04884146 C3.41463415,7.3752561 3.96056098,6.82932927 4.63414634,6.82932927 Z M10,6.82932927 C10.6735854,6.82932927 11.2195122,7.3752561 11.2195122,8.04884146 C11.2195122,8.72242683 10.6735854,9.26835366 10,9.26835366 C9.32641463,9.26835366 8.7804878,8.72242683 8.7804878,8.04884146 C8.7804878,7.3752561 9.32641463,6.82932927 10,6.82932927 Z M15.3658537,6.82932927 C16.039439,6.82932927 16.5853659,7.3752561 16.5853659,8.04884146 C16.5853659,8.72242683 16.039439,9.26835366 15.3658537,9.26835366 C14.6922683,9.26835366 14.1463415,8.72242683 14.1463415,8.04884146 C14.1463415,7.3752561 14.6922683,6.82932927 15.3658537,6.82932927 Z" id="Feedback"></path>
            </g>
        </g>
    </g>
</svg>