<?xml version="1.0" encoding="UTF-8"?>
<svg width="14px" height="14px" viewBox="0 0 14 14" version="1.1" xmlns="http://www.w3.org/2000/svg" xmlns:xlink="http://www.w3.org/1999/xlink">
    <!-- Generator: sketchtool 49.2 (51160) - http://www.bohemiancoding.com/sketch -->
    <title>97F45751-A1C0-40E9-848C-F3B90C8343CA@2x</title>
    <desc>Created with sketchtool.</desc>
    <defs></defs>
    <g id="Page-1" stroke="none" stroke-width="1" fill="none" fill-rule="evenodd">
        <g id="performance23" transform="translate(-760.000000, -419.000000)" fill="#C0CFD8">
            <path d="M767,419 C763.126459,419 760,422.126459 760,426 C760,429.858193 763.126459,433 767,433 C770.873541,433 774,429.858193 774,426 C774,422.126459 770.873541,419 767,419 Z M766.813748,431.008474 C766.284652,431.008474 765.864859,430.588889 765.864859,430.059793 C765.864859,429.530696 766.284652,429.111111 766.813748,429.111111 C767.342637,429.111111 767.76243,429.547081 767.76243,430.059793 C767.76243,430.588889 767.341807,431.008474 766.813748,431.008474 Z M768.322222,426.140207 C767.902637,426.57597 767.606874,426.902637 767.606874,427.617985 C767.606874,428.053748 767.248681,428.411111 766.813748,428.411111 C766.377778,428.411111 766.020415,428.052919 766.020415,427.617985 C766.020415,426.264859 766.673541,425.564859 767.156385,425.051319 C767.57597,424.6 767.778607,424.366667 767.778607,423.853748 C767.778607,423.324859 767.342637,422.889719 766.81437,422.889719 C766.285481,422.889719 765.850341,423.325481 765.850341,423.853748 C765.850341,424.289719 765.492148,424.647081 765.057215,424.647081 C764.621244,424.647081 764.264089,424.288889 764.264089,423.853748 C764.264089,422.453748 765.399852,421.317985 766.799852,421.317985 C768.199852,421.317985 769.335822,422.453748 769.335822,423.853748 C769.36403,425.019585 768.788889,425.641807 768.322222,426.140207 Z" id="Page-1"></path>
        </g>
    </g>
</svg>